<svg width="1087" height="167" viewBox="0 0 1087 167" fill="none" xmlns="http://www.w3.org/2000/svg">
<path d="M924.162 166.418L879.839 129.442V37.476L924.162 0.5H1042.68L1087 37.476V129.442L1042.68 166.418H924.162ZM943.124 130.864H1023.71L1044.81 113.087V53.8308L1023.71 36.0539H943.124L922.029 53.8308V113.087L943.124 130.864Z" fill="white"/>
<path d="M670.96 166.418V0.5H713.15V64.0229H753.208L812.701 0.5H855.366V13.0624L789.236 81.3258L861.291 153.856V166.418H816.257L754.156 100.999H713.15V166.418H670.96Z" fill="white"/>
<path d="M499.877 166.418L455.553 129.442V37.476L499.877 0.5H634.508V36.0539H518.839L497.744 53.8308V113.087L518.839 130.864H634.508V166.418H499.877Z" fill="white"/>
<path d="M246.211 166.418V0.5H426.114V35.5798H288.402V66.8672H392.93V98.8657H288.402V131.338H428.958V166.418H246.211Z" fill="white"/>
<path d="M45.2691 166.418L0.945312 129.442V37.476L45.2691 0.5H189.144V35.5798H64.2312L43.1359 53.3567V113.087L64.2312 130.864H145.294L166.152 113.561V96.9695H92.9113V65.4451H207.869V129.442L163.545 166.418H45.2691Z" fill="white"/>
</svg>
