<svg width="1133" height="175" viewBox="0 0 1133 175" fill="none" xmlns="http://www.w3.org/2000/svg">
<path d="M962.096 174.532L915.576 135.725V39.2024L962.096 0.394531H1086.48L1133 39.2024V135.725L1086.48 174.532H962.096ZM981.997 137.217H1066.58L1088.72 118.56V56.3674L1066.58 37.7098H981.997L959.857 56.3674V118.56L981.997 137.217Z" fill="white"/>
<path d="M666.71 174.532V0.394531H732.883L821.196 129.754H826.917V0.394531H869.457V174.532H803.284L714.972 45.1728H709.25V174.532H666.71Z" fill="white"/>
<path d="M492.262 174.532V138.959H536.792V35.9684H492.262V0.394531H625.602V35.9684H581.073V138.959H625.602V174.532H492.262Z" fill="white"/>
<path d="M247.4 174.532V0.394531H291.681V68.0595H406.86V0.394531H451.141V174.532H406.86V106.867H291.681V174.532H247.4Z" fill="white"/>
<path d="M0.575195 174.532V0.394531H158.792L199.092 34.9733V85.7221L163.021 116.569L204.814 161.348V174.532H159.289L111.775 121.296H44.856V174.532H0.575195ZM44.856 84.4783H137.895L154.812 70.2985V51.3921L137.895 37.2123H44.856V84.4783Z" fill="white"/>
</svg>
