<svg width="1173" height="158" viewBox="0 0 1173 158" fill="none" xmlns="http://www.w3.org/2000/svg">
<path d="M989.24 157.26V0H1049L1128.75 116.822H1133.92V0H1172.34V157.26H1112.58L1032.82 40.4384H1027.66V157.26H989.24Z" fill="white"/>
<path d="M793.298 157.26L751.287 122.214V35.0466L793.298 0H905.627L947.638 35.0466V122.214L905.627 157.26H793.298ZM811.271 123.562H887.654L907.649 106.712V50.548L887.654 33.6987H811.271L791.276 50.548V106.712L811.271 123.562Z" fill="white"/>
<path d="M599.136 157.26L557.125 122.214V35.0466L599.136 0H726.741V33.6987H617.108L597.114 50.548V106.712L617.108 123.562H726.741V157.26H599.136Z" fill="white"/>
<path d="M393.151 157.26V0H433.14V122.214H542.324V157.26H393.151Z" fill="white"/>
<path d="M283.303 0L364.854 145.354V157.26H325.988L309.139 126.033H203.774L186.925 157.26H149.182V145.354L230.508 0H283.303ZM221.747 92.3343H291.166L259.489 33.2493H253.648L221.747 92.3343Z" fill="white"/>
<path d="M0 157.26V0H164.899V33.6987H39.9891V71.8905H135.469V104.241H39.9891V157.26H0Z" fill="white"/>
</svg>
