<?xml version="1.0" encoding="UTF-8"?>
<svg id="Layer_2" data-name="Layer 2" xmlns="http://www.w3.org/2000/svg" xmlns:xlink="http://www.w3.org/1999/xlink" viewBox="0 0 4888.54 3186.63">
  <defs>
    <style>
      .cls-1 {
        fill: none;
      }

      .cls-2 {
        fill: #f0f1f0;
      }

      .cls-3 {
        clip-path: url(#clippath);
      }
    </style>
    <clipPath id="clippath">
      <rect class="cls-1" width="4888.54" height="3186.63"/>
    </clipPath>
  </defs>
  <g id="Layer_1-2" data-name="Layer 1">
    <g class="cls-3">
      <g>
        <path class="cls-2" d="M101.87,73.53L79.19,5.61H0v33.84l33.96,34.08h67.92ZM101.87,73.53V5.61l79.17-22.65,11.28,22.68v33.96l-33.94,33.92h-56.51ZM.02-118.81h79.16V-17.07S0,5.61,0,5.61l.02-124.42ZM181.05-17.04l-79.17-.03-22.68-67.79,45.36-33.96h67.79l33.96,67.92-45.26,33.87Z"/>
        <path class="cls-2" d="M373.47,0l-22.68,67.92h-79.19v-33.84L305.56,0h67.92ZM373.47,0v67.92l79.17,22.65,11.28-22.68v-33.96L429.99,0h-56.51ZM271.62,192.34h79.16v-101.75s-79.18-22.68-79.18-22.68l.02,124.42ZM452.64,90.56l-79.17.03-22.68,67.79,45.36,33.96h67.79l33.96-67.92-45.26-33.87Z"/>
        <path class="cls-2" d="M645.07,73.53l-22.68-67.92h-79.19v33.84l33.96,34.08h67.92ZM645.07,73.53V5.61l79.17-22.65,11.28,22.68v33.96l-33.94,33.92h-56.51ZM543.22-118.81h79.16V-17.07s-79.18,22.68-79.18,22.68l.02-124.42ZM724.24-17.04l-79.17-.03-22.68-67.79,45.36-33.96h67.79l33.96,67.92-45.26,33.87Z"/>
        <path class="cls-2" d="M916.67,0l-22.68,67.92h-79.19v-33.84L848.75,0h67.92ZM916.67,0v67.92l79.17,22.65,11.28-22.68v-33.96L973.18,0h-56.51ZM814.82,192.34h79.16v-101.75s-79.18-22.68-79.18-22.68l.02,124.42ZM995.84,90.56l-79.17.03-22.68,67.79,45.36,33.96h67.79l33.96-67.92-45.26-33.87Z"/>
        <path class="cls-2" d="M1188.27,73.53l-22.68-67.92h-79.19v33.84l33.96,34.08h67.92ZM1188.27,73.53V5.61l79.17-22.65,11.28,22.68v33.96l-33.94,33.92h-56.51ZM1086.41-118.81h79.16V-17.07s-79.18,22.68-79.18,22.68l.02-124.42ZM1267.44-17.04l-79.17-.03-22.68-67.79,45.36-33.96h67.79l33.96,67.92-45.26,33.87Z"/>
        <path class="cls-2" d="M1459.86,0l-22.68,67.92h-79.19v-33.84L1391.95,0h67.92ZM1459.86,0v67.92l79.17,22.65,11.28-22.68v-33.96L1516.38,0h-56.51ZM1358.01,192.34h79.16v-101.75s-79.18-22.68-79.18-22.68l.02,124.42ZM1539.04,90.56l-79.17.03-22.68,67.79,45.36,33.96h67.79l33.96-67.92-45.26-33.87Z"/>
        <path class="cls-2" d="M1731.46,73.53l-22.68-67.92h-79.19v33.84l33.96,34.08h67.92ZM1731.46,73.53V5.61l79.17-22.65,11.28,22.68v33.96l-33.94,33.92h-56.51ZM1629.61-118.81h79.16V-17.07s-79.18,22.68-79.18,22.68l.02-124.42ZM1810.64-17.04l-79.17-.03-22.68-67.79,45.36-33.96h67.79l33.96,67.92-45.26,33.87Z"/>
        <path class="cls-2" d="M2003.06,0l-22.68,67.92h-79.19v-33.84L1935.14,0h67.92ZM2003.06,0v67.92l79.17,22.65,11.28-22.68v-33.96L2059.58,0h-56.51ZM1901.21,192.34h79.16v-101.75s-79.18-22.68-79.18-22.68l.02,124.42ZM2082.23,90.56l-79.17.03-22.68,67.79,45.36,33.96h67.79l33.96-67.92-45.26-33.87Z"/>
        <path class="cls-2" d="M2274.66,73.53l-22.68-67.92h-79.19v33.84l33.96,34.08h67.92ZM2274.66,73.53V5.61l79.17-22.65,11.28,22.68v33.96l-33.94,33.92h-56.51ZM2172.81-118.81h79.16V-17.07s-79.18,22.68-79.18,22.68l.02-124.42ZM2353.83-17.04l-79.17-.03-22.68-67.79,45.36-33.96h67.79l33.96,67.92-45.26,33.87Z"/>
        <path class="cls-2" d="M2546.26,0l-22.68,67.92h-79.19v-33.84L2478.34,0h67.92ZM2546.26,0v67.92l79.17,22.65,11.28-22.68v-33.96L2602.77,0h-56.51ZM2444.4,192.34h79.16v-101.75s-79.18-22.68-79.18-22.68l.02,124.42ZM2625.43,90.56l-79.17.03-22.68,67.79,45.36,33.96h67.79l33.96-67.92-45.26-33.87Z"/>
        <path class="cls-2" d="M2817.85,73.53l-22.68-67.92h-79.19v33.84l33.96,34.08h67.92ZM2817.85,73.53V5.61l79.17-22.65,11.28,22.68v33.96l-33.94,33.92h-56.51ZM2716-118.81h79.16V-17.07s-79.18,22.68-79.18,22.68l.02-124.42ZM2897.03-17.04l-79.17-.03-22.68-67.79,45.36-33.96h67.79l33.96,67.92-45.26,33.87Z"/>
        <path class="cls-2" d="M3089.45,0l-22.68,67.92h-79.19v-33.84L3021.54,0h67.92ZM3089.45,0v67.92l79.17,22.65,11.28-22.68v-33.96L3145.97,0h-56.51ZM2987.6,192.34h79.16v-101.75s-79.18-22.68-79.18-22.68l.02,124.42ZM3168.63,90.56l-79.17.03-22.68,67.79,45.36,33.96h67.79l33.96-67.92-45.26-33.87Z"/>
        <path class="cls-2" d="M3361.05,73.53l-22.68-67.92h-79.19v33.84l33.96,34.08h67.92ZM3361.05,73.53V5.61l79.17-22.65,11.28,22.68v33.96l-33.94,33.92h-56.51ZM3259.2-118.81h79.16V-17.07s-79.18,22.68-79.18,22.68l.02-124.42ZM3440.22-17.04l-79.17-.03-22.68-67.79,45.36-33.96h67.79l33.96,67.92-45.26,33.87Z"/>
        <path class="cls-2" d="M3632.65,0l-22.68,67.92h-79.19v-33.84L3564.73,0h67.92ZM3632.65,0v67.92l79.17,22.65,11.28-22.68v-33.96L3689.16,0h-56.51ZM3530.8,192.34h79.16v-101.75s-79.18-22.68-79.18-22.68l.02,124.42ZM3711.82,90.56l-79.17.03-22.68,67.79,45.36,33.96h67.79l33.96-67.92-45.26-33.87Z"/>
        <path class="cls-2" d="M3904.25,73.53l-22.68-67.92h-79.19v33.84l33.96,34.08h67.92ZM3904.25,73.53V5.61l79.17-22.65,11.28,22.68v33.96l-33.94,33.92h-56.51ZM3802.39-118.81h79.16V-17.07s-79.18,22.68-79.18,22.68l.02-124.42ZM3983.42-17.04l-79.17-.03-22.68-67.79,45.36-33.96h67.79l33.96,67.92-45.26,33.87Z"/>
        <path class="cls-2" d="M4175.85,0l-22.68,67.92h-79.19v-33.84L4107.93,0h67.92ZM4175.85,0v67.92l79.17,22.65,11.28-22.68v-33.96L4232.36,0h-56.51ZM4073.99,192.34h79.16v-101.75s-79.18-22.68-79.18-22.68l.02,124.42ZM4255.02,90.56l-79.17.03-22.68,67.79,45.36,33.96h67.79l33.96-67.92-45.26-33.87Z"/>
        <path class="cls-2" d="M4447.44,73.53l-22.68-67.92h-79.19v33.84l33.96,34.08h67.92ZM4447.44,73.53V5.61l79.17-22.65,11.28,22.68v33.96l-33.94,33.92h-56.51ZM4345.59-118.81h79.16V-17.07s-79.18,22.68-79.18,22.68l.02-124.42ZM4526.62-17.04l-79.17-.03-22.68-67.79,45.36-33.96h67.79l33.96,67.92-45.26,33.87Z"/>
        <path class="cls-2" d="M4719.04,0l-22.68,67.92h-79.19v-33.84L4651.13,0h67.92ZM4719.04,0v67.92l79.17,22.65,11.28-22.68v-33.96L4775.56,0h-56.51ZM4617.19,192.34h79.16v-101.75s-79.18-22.68-79.18-22.68l.02,124.42ZM4798.21,90.56l-79.17.03-22.68,67.79,45.36,33.96h67.79l33.96-67.92-45.26-33.87Z"/>
        <path class="cls-2" d="M101.87,118.82l-22.68,67.92H0v-33.84l33.96-34.08h67.92ZM101.87,118.82v67.92l79.17,22.65,11.28-22.68v-33.96l-33.94-33.92h-56.51ZM.02,311.16h79.16v-101.75S0,186.74,0,186.74l.02,124.42ZM181.05,209.38l-79.17.03-22.68,67.79,45.36,33.96h67.79l33.96-67.92-45.26-33.87Z"/>
        <path class="cls-2" d="M373.47,429.99l-22.68-67.92h-79.19v33.84l33.96,34.08h67.92ZM373.47,429.99v-67.92l79.17-22.65,11.28,22.68v33.96l-33.94,33.92h-56.51ZM271.62,237.65h79.16v101.75s-79.18,22.68-79.18,22.68l.02-124.42ZM452.64,339.42l-79.17-.03-22.68-67.79,45.36-33.96h67.79l33.96,67.92-45.26,33.87Z"/>
        <path class="cls-2" d="M645.07,118.82l-22.68,67.92h-79.19v-33.84l33.96-34.08h67.92ZM645.07,118.82v67.92l79.17,22.65,11.28-22.68v-33.96l-33.94-33.92h-56.51ZM543.22,311.16h79.16v-101.75s-79.18-22.68-79.18-22.68l.02,124.42ZM724.24,209.38l-79.17.03-22.68,67.79,45.36,33.96h67.79l33.96-67.92-45.26-33.87Z"/>
        <path class="cls-2" d="M916.67,429.99l-22.68-67.92h-79.19v33.84l33.96,34.08h67.92ZM916.67,429.99v-67.92l79.17-22.65,11.28,22.68v33.96l-33.94,33.92h-56.51ZM814.82,237.65h79.16v101.75s-79.18,22.68-79.18,22.68l.02-124.42ZM995.84,339.42l-79.17-.03-22.68-67.79,45.36-33.96h67.79l33.96,67.92-45.26,33.87Z"/>
        <path class="cls-2" d="M1188.27,118.82l-22.68,67.92h-79.19v-33.84l33.96-34.08h67.92ZM1188.27,118.82v67.92l79.17,22.65,11.28-22.68v-33.96l-33.94-33.92h-56.51ZM1086.41,311.16h79.16v-101.75s-79.18-22.68-79.18-22.68l.02,124.42ZM1267.44,209.38l-79.17.03-22.68,67.79,45.36,33.96h67.79l33.96-67.92-45.26-33.87Z"/>
        <path class="cls-2" d="M1459.86,429.99l-22.68-67.92h-79.19v33.84l33.96,34.08h67.92ZM1459.86,429.99v-67.92l79.17-22.65,11.28,22.68v33.96l-33.94,33.92h-56.51ZM1358.01,237.65h79.16v101.75s-79.18,22.68-79.18,22.68l.02-124.42ZM1539.04,339.42l-79.17-.03-22.68-67.79,45.36-33.96h67.79l33.96,67.92-45.26,33.87Z"/>
        <path class="cls-2" d="M1731.46,118.82l-22.68,67.92h-79.19v-33.84l33.96-34.08h67.92ZM1731.46,118.82v67.92l79.17,22.65,11.28-22.68v-33.96l-33.94-33.92h-56.51ZM1629.61,311.16h79.16v-101.75s-79.18-22.68-79.18-22.68l.02,124.42ZM1810.64,209.38l-79.17.03-22.68,67.79,45.36,33.96h67.79l33.96-67.92-45.26-33.87Z"/>
        <path class="cls-2" d="M2003.06,429.99l-22.68-67.92h-79.19v33.84l33.96,34.08h67.92ZM2003.06,429.99v-67.92l79.17-22.65,11.28,22.68v33.96l-33.94,33.92h-56.51ZM1901.21,237.65h79.16v101.75s-79.18,22.68-79.18,22.68l.02-124.42ZM2082.23,339.42l-79.17-.03-22.68-67.79,45.36-33.96h67.79l33.96,67.92-45.26,33.87Z"/>
        <path class="cls-2" d="M2274.66,118.82l-22.68,67.92h-79.19v-33.84l33.96-34.08h67.92ZM2274.66,118.82v67.92l79.17,22.65,11.28-22.68v-33.96l-33.94-33.92h-56.51ZM2172.81,311.16h79.16v-101.75s-79.18-22.68-79.18-22.68l.02,124.42ZM2353.83,209.38l-79.17.03-22.68,67.79,45.36,33.96h67.79l33.96-67.92-45.26-33.87Z"/>
        <path class="cls-2" d="M2546.26,429.99l-22.68-67.92h-79.19v33.84l33.96,34.08h67.92ZM2546.26,429.99v-67.92l79.17-22.65,11.28,22.68v33.96l-33.94,33.92h-56.51ZM2444.4,237.65h79.16v101.75s-79.18,22.68-79.18,22.68l.02-124.42ZM2625.43,339.42l-79.17-.03-22.68-67.79,45.36-33.96h67.79l33.96,67.92-45.26,33.87Z"/>
        <path class="cls-2" d="M2817.85,118.82l-22.68,67.92h-79.19v-33.84l33.96-34.08h67.92ZM2817.85,118.82v67.92l79.17,22.65,11.28-22.68v-33.96l-33.94-33.92h-56.51ZM2716,311.16h79.16v-101.75s-79.18-22.68-79.18-22.68l.02,124.42ZM2897.03,209.38l-79.17.03-22.68,67.79,45.36,33.96h67.79l33.96-67.92-45.26-33.87Z"/>
        <path class="cls-2" d="M3089.45,429.99l-22.68-67.92h-79.19v33.84l33.96,34.08h67.92ZM3089.45,429.99v-67.92l79.17-22.65,11.28,22.68v33.96l-33.94,33.92h-56.51ZM2987.6,237.65h79.16v101.75s-79.18,22.68-79.18,22.68l.02-124.42ZM3168.63,339.42l-79.17-.03-22.68-67.79,45.36-33.96h67.79l33.96,67.92-45.26,33.87Z"/>
        <path class="cls-2" d="M3361.05,118.82l-22.68,67.92h-79.19v-33.84l33.96-34.08h67.92ZM3361.05,118.82v67.92l79.17,22.65,11.28-22.68v-33.96l-33.94-33.92h-56.51ZM3259.2,311.16h79.16v-101.75s-79.18-22.68-79.18-22.68l.02,124.42ZM3440.22,209.38l-79.17.03-22.68,67.79,45.36,33.96h67.79l33.96-67.92-45.26-33.87Z"/>
        <path class="cls-2" d="M3632.65,429.99l-22.68-67.92h-79.19v33.84l33.96,34.08h67.92ZM3632.65,429.99v-67.92l79.17-22.65,11.28,22.68v33.96l-33.94,33.92h-56.51ZM3530.8,237.65h79.16v101.75s-79.18,22.68-79.18,22.68l.02-124.42ZM3711.82,339.42l-79.17-.03-22.68-67.79,45.36-33.96h67.79l33.96,67.92-45.26,33.87Z"/>
        <path class="cls-2" d="M3904.25,118.82l-22.68,67.92h-79.19v-33.84l33.96-34.08h67.92ZM3904.25,118.82v67.92l79.17,22.65,11.28-22.68v-33.96l-33.94-33.92h-56.51ZM3802.39,311.16h79.16v-101.75s-79.18-22.68-79.18-22.68l.02,124.42ZM3983.42,209.38l-79.17.03-22.68,67.79,45.36,33.96h67.79l33.96-67.92-45.26-33.87Z"/>
        <path class="cls-2" d="M4175.85,429.99l-22.68-67.92h-79.19v33.84l33.96,34.08h67.92ZM4175.85,429.99v-67.92l79.17-22.65,11.28,22.68v33.96l-33.94,33.92h-56.51ZM4073.99,237.65h79.16v101.75s-79.18,22.68-79.18,22.68l.02-124.42ZM4255.02,339.42l-79.17-.03-22.68-67.79,45.36-33.96h67.79l33.96,67.92-45.26,33.87Z"/>
        <path class="cls-2" d="M4447.44,118.82l-22.68,67.92h-79.19v-33.84l33.96-34.08h67.92ZM4447.44,118.82v67.92l79.17,22.65,11.28-22.68v-33.96l-33.94-33.92h-56.51ZM4345.59,311.16h79.16v-101.75s-79.18-22.68-79.18-22.68l.02,124.42ZM4526.62,209.38l-79.17.03-22.68,67.79,45.36,33.96h67.79l33.96-67.92-45.26-33.87Z"/>
        <path class="cls-2" d="M4719.04,429.99l-22.68-67.92h-79.19v33.84l33.96,34.08h67.92ZM4719.04,429.99v-67.92l79.17-22.65,11.28,22.68v33.96l-33.94,33.92h-56.51ZM4617.19,237.65h79.16v101.75s-79.18,22.68-79.18,22.68l.02-124.42ZM4798.21,339.42l-79.17-.03-22.68-67.79,45.36-33.96h67.79l33.96,67.92-45.26,33.87Z"/>
        <path class="cls-2" d="M101.87,548.81l-22.68-67.92H0v33.84l33.96,34.08h67.92ZM101.87,548.81v-67.92l79.17-22.65,11.28,22.68v33.96l-33.94,33.92h-56.51ZM.02,356.47h79.16v101.75S0,480.89,0,480.89l.02-124.42ZM181.05,458.24l-79.17-.03-22.68-67.79,45.36-33.96h67.79l33.96,67.92-45.26,33.87Z"/>
        <path class="cls-2" d="M373.47,475.28l-22.68,67.92h-79.19v-33.84l33.96-34.08h67.92ZM373.47,475.28v67.92l79.17,22.65,11.28-22.68v-33.96l-33.94-33.92h-56.51ZM271.62,667.62h79.16v-101.75s-79.18-22.68-79.18-22.68l.02,124.42ZM452.64,565.84l-79.17.03-22.68,67.79,45.36,33.96h67.79l33.96-67.92-45.26-33.87Z"/>
        <path class="cls-2" d="M645.07,548.81l-22.68-67.92h-79.19v33.84l33.96,34.08h67.92ZM645.07,548.81v-67.92l79.17-22.65,11.28,22.68v33.96l-33.94,33.92h-56.51ZM543.22,356.47h79.16v101.75s-79.18,22.68-79.18,22.68l.02-124.42ZM724.24,458.24l-79.17-.03-22.68-67.79,45.36-33.96h67.79l33.96,67.92-45.26,33.87Z"/>
        <path class="cls-2" d="M916.67,475.28l-22.68,67.92h-79.19v-33.84l33.96-34.08h67.92ZM916.67,475.28v67.92l79.17,22.65,11.28-22.68v-33.96l-33.94-33.92h-56.51ZM814.82,667.62h79.16v-101.75s-79.18-22.68-79.18-22.68l.02,124.42ZM995.84,565.84l-79.17.03-22.68,67.79,45.36,33.96h67.79l33.96-67.92-45.26-33.87Z"/>
        <path class="cls-2" d="M1188.27,548.81l-22.68-67.92h-79.19v33.84l33.96,34.08h67.92ZM1188.27,548.81v-67.92l79.17-22.65,11.28,22.68v33.96l-33.94,33.92h-56.51ZM1086.41,356.47h79.16v101.75s-79.18,22.68-79.18,22.68l.02-124.42ZM1267.44,458.24l-79.17-.03-22.68-67.79,45.36-33.96h67.79l33.96,67.92-45.26,33.87Z"/>
        <path class="cls-2" d="M1459.86,475.28l-22.68,67.92h-79.19v-33.84l33.96-34.08h67.92ZM1459.86,475.28v67.92l79.17,22.65,11.28-22.68v-33.96l-33.94-33.92h-56.51ZM1358.01,667.62h79.16v-101.75s-79.18-22.68-79.18-22.68l.02,124.42ZM1539.04,565.84l-79.17.03-22.68,67.79,45.36,33.96h67.79l33.96-67.92-45.26-33.87Z"/>
        <path class="cls-2" d="M1731.46,548.81l-22.68-67.92h-79.19v33.84l33.96,34.08h67.92ZM1731.46,548.81v-67.92l79.17-22.65,11.28,22.68v33.96l-33.94,33.92h-56.51ZM1629.61,356.47h79.16v101.75s-79.18,22.68-79.18,22.68l.02-124.42ZM1810.64,458.24l-79.17-.03-22.68-67.79,45.36-33.96h67.79l33.96,67.92-45.26,33.87Z"/>
        <path class="cls-2" d="M2003.06,475.28l-22.68,67.92h-79.19v-33.84l33.96-34.08h67.92ZM2003.06,475.28v67.92l79.17,22.65,11.28-22.68v-33.96l-33.94-33.92h-56.51ZM1901.21,667.62h79.16v-101.75s-79.18-22.68-79.18-22.68l.02,124.42ZM2082.23,565.84l-79.17.03-22.68,67.79,45.36,33.96h67.79l33.96-67.92-45.26-33.87Z"/>
        <path class="cls-2" d="M2274.66,548.81l-22.68-67.92h-79.19v33.84l33.96,34.08h67.92ZM2274.66,548.81v-67.92l79.17-22.65,11.28,22.68v33.96l-33.94,33.92h-56.51ZM2172.81,356.47h79.16v101.75s-79.18,22.68-79.18,22.68l.02-124.42ZM2353.83,458.24l-79.17-.03-22.68-67.79,45.36-33.96h67.79l33.96,67.92-45.26,33.87Z"/>
        <path class="cls-2" d="M2546.26,475.28l-22.68,67.92h-79.19v-33.84l33.96-34.08h67.92ZM2546.26,475.28v67.92l79.17,22.65,11.28-22.68v-33.96l-33.94-33.92h-56.51ZM2444.4,667.62h79.16v-101.75s-79.18-22.68-79.18-22.68l.02,124.42ZM2625.43,565.84l-79.17.03-22.68,67.79,45.36,33.96h67.79l33.96-67.92-45.26-33.87Z"/>
        <path class="cls-2" d="M2817.85,548.81l-22.68-67.92h-79.19v33.84l33.96,34.08h67.92ZM2817.85,548.81v-67.92l79.17-22.65,11.28,22.68v33.96l-33.94,33.92h-56.51ZM2716,356.47h79.16v101.75s-79.18,22.68-79.18,22.68l.02-124.42ZM2897.03,458.24l-79.17-.03-22.68-67.79,45.36-33.96h67.79l33.96,67.92-45.26,33.87Z"/>
        <path class="cls-2" d="M3089.45,475.28l-22.68,67.92h-79.19v-33.84l33.96-34.08h67.92ZM3089.45,475.28v67.92l79.17,22.65,11.28-22.68v-33.96l-33.94-33.92h-56.51ZM2987.6,667.62h79.16v-101.75s-79.18-22.68-79.18-22.68l.02,124.42ZM3168.63,565.84l-79.17.03-22.68,67.79,45.36,33.96h67.79l33.96-67.92-45.26-33.87Z"/>
        <path class="cls-2" d="M3361.05,548.81l-22.68-67.92h-79.19v33.84l33.96,34.08h67.92ZM3361.05,548.81v-67.92l79.17-22.65,11.28,22.68v33.96l-33.94,33.92h-56.51ZM3259.2,356.47h79.16v101.75s-79.18,22.68-79.18,22.68l.02-124.42ZM3440.22,458.24l-79.17-.03-22.68-67.79,45.36-33.96h67.79l33.96,67.92-45.26,33.87Z"/>
        <path class="cls-2" d="M3632.65,475.28l-22.68,67.92h-79.19v-33.84l33.96-34.08h67.92ZM3632.65,475.28v67.92l79.17,22.65,11.28-22.68v-33.96l-33.94-33.92h-56.51ZM3530.8,667.62h79.16v-101.75s-79.18-22.68-79.18-22.68l.02,124.42ZM3711.82,565.84l-79.17.03-22.68,67.79,45.36,33.96h67.79l33.96-67.92-45.26-33.87Z"/>
        <path class="cls-2" d="M3904.25,548.81l-22.68-67.92h-79.19v33.84l33.96,34.08h67.92ZM3904.25,548.81v-67.92l79.17-22.65,11.28,22.68v33.96l-33.94,33.92h-56.51ZM3802.39,356.47h79.16v101.75s-79.18,22.68-79.18,22.68l.02-124.42ZM3983.42,458.24l-79.17-.03-22.68-67.79,45.36-33.96h67.79l33.96,67.92-45.26,33.87Z"/>
        <path class="cls-2" d="M4175.85,475.28l-22.68,67.92h-79.19v-33.84l33.96-34.08h67.92ZM4175.85,475.28v67.92l79.17,22.65,11.28-22.68v-33.96l-33.94-33.92h-56.51ZM4073.99,667.62h79.16v-101.75s-79.18-22.68-79.18-22.68l.02,124.42ZM4255.02,565.84l-79.17.03-22.68,67.79,45.36,33.96h67.79l33.96-67.92-45.26-33.87Z"/>
        <path class="cls-2" d="M4447.44,548.81l-22.68-67.92h-79.19v33.84l33.96,34.08h67.92ZM4447.44,548.81v-67.92l79.17-22.65,11.28,22.68v33.96l-33.94,33.92h-56.51ZM4345.59,356.47h79.16v101.75s-79.18,22.68-79.18,22.68l.02-124.42ZM4526.62,458.24l-79.17-.03-22.68-67.79,45.36-33.96h67.79l33.96,67.92-45.26,33.87Z"/>
        <path class="cls-2" d="M4719.04,475.28l-22.68,67.92h-79.19v-33.84l33.96-34.08h67.92ZM4719.04,475.28v67.92l79.17,22.65,11.28-22.68v-33.96l-33.94-33.92h-56.51ZM4617.19,667.62h79.16v-101.75s-79.18-22.68-79.18-22.68l.02,124.42ZM4798.21,565.84l-79.17.03-22.68,67.79,45.36,33.96h67.79l33.96-67.92-45.26-33.87Z"/>
        <path class="cls-2" d="M101.87,594.1l-22.68,67.92H0v-33.84l33.96-34.08h67.92ZM101.87,594.1v67.92l79.17,22.65,11.28-22.68v-33.96l-33.94-33.92h-56.51ZM.02,786.44h79.16v-101.75S0,662.02,0,662.02l.02,124.42ZM181.05,684.66l-79.17.03-22.68,67.79,45.36,33.96h67.79l33.96-67.92-45.26-33.87Z"/>
        <path class="cls-2" d="M373.47,905.27l-22.68-67.92h-79.19v33.84l33.96,34.08h67.92ZM373.47,905.27v-67.92l79.17-22.65,11.28,22.68v33.96l-33.94,33.92h-56.51ZM271.62,712.93h79.16v101.75s-79.18,22.68-79.18,22.68l.02-124.42ZM452.64,814.71l-79.17-.03-22.68-67.79,45.36-33.96h67.79l33.96,67.92-45.26,33.87Z"/>
        <path class="cls-2" d="M645.07,594.1l-22.68,67.92h-79.19v-33.84l33.96-34.08h67.92ZM645.07,594.1v67.92l79.17,22.65,11.28-22.68v-33.96l-33.94-33.92h-56.51ZM543.22,786.44h79.16v-101.75s-79.18-22.68-79.18-22.68l.02,124.42ZM724.24,684.66l-79.17.03-22.68,67.79,45.36,33.96h67.79l33.96-67.92-45.26-33.87Z"/>
        <path class="cls-2" d="M916.67,905.27l-22.68-67.92h-79.19v33.84l33.96,34.08h67.92ZM916.67,905.27v-67.92l79.17-22.65,11.28,22.68v33.96l-33.94,33.92h-56.51ZM814.82,712.93h79.16v101.75s-79.18,22.68-79.18,22.68l.02-124.42ZM995.84,814.71l-79.17-.03-22.68-67.79,45.36-33.96h67.79l33.96,67.92-45.26,33.87Z"/>
        <path class="cls-2" d="M1188.27,594.1l-22.68,67.92h-79.19v-33.84l33.96-34.08h67.92ZM1188.27,594.1v67.92l79.17,22.65,11.28-22.68v-33.96l-33.94-33.92h-56.51ZM1086.41,786.44h79.16v-101.75s-79.18-22.68-79.18-22.68l.02,124.42ZM1267.44,684.66l-79.17.03-22.68,67.79,45.36,33.96h67.79l33.96-67.92-45.26-33.87Z"/>
        <path class="cls-2" d="M1459.86,905.27l-22.68-67.92h-79.19v33.84l33.96,34.08h67.92ZM1459.86,905.27v-67.92l79.17-22.65,11.28,22.68v33.96l-33.94,33.92h-56.51ZM1358.01,712.93h79.16v101.75s-79.18,22.68-79.18,22.68l.02-124.42ZM1539.04,814.71l-79.17-.03-22.68-67.79,45.36-33.96h67.79l33.96,67.92-45.26,33.87Z"/>
        <path class="cls-2" d="M1731.46,594.1l-22.68,67.92h-79.19v-33.84l33.96-34.08h67.92ZM1731.46,594.1v67.92l79.17,22.65,11.28-22.68v-33.96l-33.94-33.92h-56.51ZM1629.61,786.44h79.16v-101.75s-79.18-22.68-79.18-22.68l.02,124.42ZM1810.64,684.66l-79.17.03-22.68,67.79,45.36,33.96h67.79l33.96-67.92-45.26-33.87Z"/>
        <path class="cls-2" d="M2003.06,905.27l-22.68-67.92h-79.19v33.84l33.96,34.08h67.92ZM2003.06,905.27v-67.92l79.17-22.65,11.28,22.68v33.96l-33.94,33.92h-56.51ZM1901.21,712.93h79.16v101.75s-79.18,22.68-79.18,22.68l.02-124.42ZM2082.23,814.71l-79.17-.03-22.68-67.79,45.36-33.96h67.79l33.96,67.92-45.26,33.87Z"/>
        <path class="cls-2" d="M2274.66,594.1l-22.68,67.92h-79.19v-33.84l33.96-34.08h67.92ZM2274.66,594.1v67.92l79.17,22.65,11.28-22.68v-33.96l-33.94-33.92h-56.51ZM2172.81,786.44h79.16v-101.75s-79.18-22.68-79.18-22.68l.02,124.42ZM2353.83,684.66l-79.17.03-22.68,67.79,45.36,33.96h67.79l33.96-67.92-45.26-33.87Z"/>
        <path class="cls-2" d="M2546.26,905.27l-22.68-67.92h-79.19v33.84l33.96,34.08h67.92ZM2546.26,905.27v-67.92l79.17-22.65,11.28,22.68v33.96l-33.94,33.92h-56.51ZM2444.4,712.93h79.16v101.75s-79.18,22.68-79.18,22.68l.02-124.42ZM2625.43,814.71l-79.17-.03-22.68-67.79,45.36-33.96h67.79l33.96,67.92-45.26,33.87Z"/>
        <path class="cls-2" d="M2817.85,594.1l-22.68,67.92h-79.19v-33.84l33.96-34.08h67.92ZM2817.85,594.1v67.92l79.17,22.65,11.28-22.68v-33.96l-33.94-33.92h-56.51ZM2716,786.44h79.16v-101.75s-79.18-22.68-79.18-22.68l.02,124.42ZM2897.03,684.66l-79.17.03-22.68,67.79,45.36,33.96h67.79l33.96-67.92-45.26-33.87Z"/>
        <path class="cls-2" d="M3089.45,905.27l-22.68-67.92h-79.19v33.84l33.96,34.08h67.92ZM3089.45,905.27v-67.92l79.17-22.65,11.28,22.68v33.96l-33.94,33.92h-56.51ZM2987.6,712.93h79.16v101.75s-79.18,22.68-79.18,22.68l.02-124.42ZM3168.63,814.71l-79.17-.03-22.68-67.79,45.36-33.96h67.79l33.96,67.92-45.26,33.87Z"/>
        <path class="cls-2" d="M3361.05,594.1l-22.68,67.92h-79.19v-33.84l33.96-34.08h67.92ZM3361.05,594.1v67.92l79.17,22.65,11.28-22.68v-33.96l-33.94-33.92h-56.51ZM3259.2,786.44h79.16v-101.75s-79.18-22.68-79.18-22.68l.02,124.42ZM3440.22,684.66l-79.17.03-22.68,67.79,45.36,33.96h67.79l33.96-67.92-45.26-33.87Z"/>
        <path class="cls-2" d="M3632.65,905.27l-22.68-67.92h-79.19v33.84l33.96,34.08h67.92ZM3632.65,905.27v-67.92l79.17-22.65,11.28,22.68v33.96l-33.94,33.92h-56.51ZM3530.8,712.93h79.16v101.75s-79.18,22.68-79.18,22.68l.02-124.42ZM3711.82,814.71l-79.17-.03-22.68-67.79,45.36-33.96h67.79l33.96,67.92-45.26,33.87Z"/>
        <path class="cls-2" d="M3904.25,594.1l-22.68,67.92h-79.19v-33.84l33.96-34.08h67.92ZM3904.25,594.1v67.92l79.17,22.65,11.28-22.68v-33.96l-33.94-33.92h-56.51ZM3802.39,786.44h79.16v-101.75s-79.18-22.68-79.18-22.68l.02,124.42ZM3983.42,684.66l-79.17.03-22.68,67.79,45.36,33.96h67.79l33.96-67.92-45.26-33.87Z"/>
        <path class="cls-2" d="M4175.85,905.27l-22.68-67.92h-79.19v33.84l33.96,34.08h67.92ZM4175.85,905.27v-67.92l79.17-22.65,11.28,22.68v33.96l-33.94,33.92h-56.51ZM4073.99,712.93h79.16v101.75s-79.18,22.68-79.18,22.68l.02-124.42ZM4255.02,814.71l-79.17-.03-22.68-67.79,45.36-33.96h67.79l33.96,67.92-45.26,33.87Z"/>
        <path class="cls-2" d="M4447.44,594.1l-22.68,67.92h-79.19v-33.84l33.96-34.08h67.92ZM4447.44,594.1v67.92l79.17,22.65,11.28-22.68v-33.96l-33.94-33.92h-56.51ZM4345.59,786.44h79.16v-101.75s-79.18-22.68-79.18-22.68l.02,124.42ZM4526.62,684.66l-79.17.03-22.68,67.79,45.36,33.96h67.79l33.96-67.92-45.26-33.87Z"/>
        <path class="cls-2" d="M4719.04,905.27l-22.68-67.92h-79.19v33.84l33.96,34.08h67.92ZM4719.04,905.27v-67.92l79.17-22.65,11.28,22.68v33.96l-33.94,33.92h-56.51ZM4617.19,712.93h79.16v101.75s-79.18,22.68-79.18,22.68l.02-124.42ZM4798.21,814.71l-79.17-.03-22.68-67.79,45.36-33.96h67.79l33.96,67.92-45.26,33.87Z"/>
        <path class="cls-2" d="M101.87,1024.09l-22.68-67.92H0v33.84l33.96,34.08h67.92ZM101.87,1024.09v-67.92l79.17-22.65,11.28,22.68v33.96l-33.94,33.92h-56.51ZM.02,831.75h79.16v101.75S0,956.17,0,956.17l.02-124.42ZM181.05,933.53l-79.17-.03-22.68-67.79,45.36-33.96h67.79l33.96,67.92-45.26,33.87Z"/>
        <path class="cls-2" d="M373.47,950.56l-22.68,67.92h-79.19v-33.84l33.96-34.08h67.92ZM373.47,950.56v67.92l79.17,22.65,11.28-22.68v-33.96l-33.94-33.92h-56.51ZM271.62,1142.9h79.16v-101.75s-79.18-22.68-79.18-22.68l.02,124.42ZM452.64,1041.12l-79.17.03-22.68,67.79,45.36,33.96h67.79l33.96-67.92-45.26-33.87Z"/>
        <path class="cls-2" d="M645.07,1024.09l-22.68-67.92h-79.19v33.84l33.96,34.08h67.92ZM645.07,1024.09v-67.92l79.17-22.65,11.28,22.68v33.96l-33.94,33.92h-56.51ZM543.22,831.75h79.16v101.75s-79.18,22.68-79.18,22.68l.02-124.42ZM724.24,933.53l-79.17-.03-22.68-67.79,45.36-33.96h67.79l33.96,67.92-45.26,33.87Z"/>
        <path class="cls-2" d="M916.67,950.56l-22.68,67.92h-79.19v-33.84l33.96-34.08h67.92ZM916.67,950.56v67.92l79.17,22.65,11.28-22.68v-33.96l-33.94-33.92h-56.51ZM814.82,1142.9h79.16v-101.75s-79.18-22.68-79.18-22.68l.02,124.42ZM995.84,1041.12l-79.17.03-22.68,67.79,45.36,33.96h67.79l33.96-67.92-45.26-33.87Z"/>
        <path class="cls-2" d="M1188.27,1024.09l-22.68-67.92h-79.19v33.84l33.96,34.08h67.92ZM1188.27,1024.09v-67.92l79.17-22.65,11.28,22.68v33.96l-33.94,33.92h-56.51ZM1086.41,831.75h79.16v101.75s-79.18,22.68-79.18,22.68l.02-124.42ZM1267.44,933.53l-79.17-.03-22.68-67.79,45.36-33.96h67.79l33.96,67.92-45.26,33.87Z"/>
        <path class="cls-2" d="M1459.86,950.56l-22.68,67.92h-79.19v-33.84l33.96-34.08h67.92ZM1459.86,950.56v67.92l79.17,22.65,11.28-22.68v-33.96l-33.94-33.92h-56.51ZM1358.01,1142.9h79.16v-101.75s-79.18-22.68-79.18-22.68l.02,124.42ZM1539.04,1041.12l-79.17.03-22.68,67.79,45.36,33.96h67.79l33.96-67.92-45.26-33.87Z"/>
        <path class="cls-2" d="M1731.46,1024.09l-22.68-67.92h-79.19v33.84l33.96,34.08h67.92ZM1731.46,1024.09v-67.92l79.17-22.65,11.28,22.68v33.96l-33.94,33.92h-56.51ZM1629.61,831.75h79.16v101.75s-79.18,22.68-79.18,22.68l.02-124.42ZM1810.64,933.53l-79.17-.03-22.68-67.79,45.36-33.96h67.79l33.96,67.92-45.26,33.87Z"/>
        <path class="cls-2" d="M2003.06,950.56l-22.68,67.92h-79.19v-33.84l33.96-34.08h67.92ZM2003.06,950.56v67.92l79.17,22.65,11.28-22.68v-33.96l-33.94-33.92h-56.51ZM1901.21,1142.9h79.16v-101.75s-79.18-22.68-79.18-22.68l.02,124.42ZM2082.23,1041.12l-79.17.03-22.68,67.79,45.36,33.96h67.79l33.96-67.92-45.26-33.87Z"/>
        <path class="cls-2" d="M2274.66,1024.09l-22.68-67.92h-79.19v33.84l33.96,34.08h67.92ZM2274.66,1024.09v-67.92l79.17-22.65,11.28,22.68v33.96l-33.94,33.92h-56.51ZM2172.81,831.75h79.16v101.75s-79.18,22.68-79.18,22.68l.02-124.42ZM2353.83,933.53l-79.17-.03-22.68-67.79,45.36-33.96h67.79l33.96,67.92-45.26,33.87Z"/>
        <path class="cls-2" d="M2546.26,950.56l-22.68,67.92h-79.19v-33.84l33.96-34.08h67.92ZM2546.26,950.56v67.92l79.17,22.65,11.28-22.68v-33.96l-33.94-33.92h-56.51ZM2444.4,1142.9h79.16v-101.75s-79.18-22.68-79.18-22.68l.02,124.42ZM2625.43,1041.12l-79.17.03-22.68,67.79,45.36,33.96h67.79l33.96-67.92-45.26-33.87Z"/>
        <path class="cls-2" d="M2817.85,1024.09l-22.68-67.92h-79.19v33.84l33.96,34.08h67.92ZM2817.85,1024.09v-67.92l79.17-22.65,11.28,22.68v33.96l-33.94,33.92h-56.51ZM2716,831.75h79.16v101.75s-79.18,22.68-79.18,22.68l.02-124.42ZM2897.03,933.53l-79.17-.03-22.68-67.79,45.36-33.96h67.79l33.96,67.92-45.26,33.87Z"/>
        <path class="cls-2" d="M3089.45,950.56l-22.68,67.92h-79.19v-33.84l33.96-34.08h67.92ZM3089.45,950.56v67.92l79.17,22.65,11.28-22.68v-33.96l-33.94-33.92h-56.51ZM2987.6,1142.9h79.16v-101.75s-79.18-22.68-79.18-22.68l.02,124.42ZM3168.63,1041.12l-79.17.03-22.68,67.79,45.36,33.96h67.79l33.96-67.92-45.26-33.87Z"/>
        <path class="cls-2" d="M3361.05,1024.09l-22.68-67.92h-79.19v33.84l33.96,34.08h67.92ZM3361.05,1024.09v-67.92l79.17-22.65,11.28,22.68v33.96l-33.94,33.92h-56.51ZM3259.2,831.75h79.16v101.75s-79.18,22.68-79.18,22.68l.02-124.42ZM3440.22,933.53l-79.17-.03-22.68-67.79,45.36-33.96h67.79l33.96,67.92-45.26,33.87Z"/>
        <path class="cls-2" d="M3632.65,950.56l-22.68,67.92h-79.19v-33.84l33.96-34.08h67.92ZM3632.65,950.56v67.92l79.17,22.65,11.28-22.68v-33.96l-33.94-33.92h-56.51ZM3530.8,1142.9h79.16v-101.75s-79.18-22.68-79.18-22.68l.02,124.42ZM3711.82,1041.12l-79.17.03-22.68,67.79,45.36,33.96h67.79l33.96-67.92-45.26-33.87Z"/>
        <path class="cls-2" d="M3904.25,1024.09l-22.68-67.92h-79.19v33.84l33.96,34.08h67.92ZM3904.25,1024.09v-67.92l79.17-22.65,11.28,22.68v33.96l-33.94,33.92h-56.51ZM3802.39,831.75h79.16v101.75s-79.18,22.68-79.18,22.68l.02-124.42ZM3983.42,933.53l-79.17-.03-22.68-67.79,45.36-33.96h67.79l33.96,67.92-45.26,33.87Z"/>
        <path class="cls-2" d="M4175.85,950.56l-22.68,67.92h-79.19v-33.84l33.96-34.08h67.92ZM4175.85,950.56v67.92l79.17,22.65,11.28-22.68v-33.96l-33.94-33.92h-56.51ZM4073.99,1142.9h79.16v-101.75s-79.18-22.68-79.18-22.68l.02,124.42ZM4255.02,1041.12l-79.17.03-22.68,67.79,45.36,33.96h67.79l33.96-67.92-45.26-33.87Z"/>
        <path class="cls-2" d="M4447.44,1024.09l-22.68-67.92h-79.19v33.84l33.96,34.08h67.92ZM4447.44,1024.09v-67.92l79.17-22.65,11.28,22.68v33.96l-33.94,33.92h-56.51ZM4345.59,831.75h79.16v101.75s-79.18,22.68-79.18,22.68l.02-124.42ZM4526.62,933.53l-79.17-.03-22.68-67.79,45.36-33.96h67.79l33.96,67.92-45.26,33.87Z"/>
        <path class="cls-2" d="M4719.04,950.56l-22.68,67.92h-79.19v-33.84l33.96-34.08h67.92ZM4719.04,950.56v67.92l79.17,22.65,11.28-22.68v-33.96l-33.94-33.92h-56.51ZM4617.19,1142.9h79.16v-101.75s-79.18-22.68-79.18-22.68l.02,124.42ZM4798.21,1041.12l-79.17.03-22.68,67.79,45.36,33.96h67.79l33.96-67.92-45.26-33.87Z"/>
        <path class="cls-2" d="M101.87,1069.38l-22.68,67.92H0v-33.84l33.96-34.08h67.92ZM101.87,1069.38v67.92l79.17,22.65,11.28-22.68v-33.96l-33.94-33.92h-56.51ZM.02,1261.72h79.16v-101.75S0,1137.3,0,1137.3l.02,124.42ZM181.05,1159.94l-79.17.03-22.68,67.79,45.36,33.96h67.79l33.96-67.92-45.26-33.87Z"/>
        <path class="cls-2" d="M373.47,1380.55l-22.68-67.92h-79.19v33.84l33.96,34.08h67.92ZM373.47,1380.55v-67.92l79.17-22.65,11.28,22.68v33.96l-33.94,33.92h-56.51ZM271.62,1188.21h79.16v101.75s-79.18,22.68-79.18,22.68l.02-124.42ZM452.64,1289.98l-79.17-.03-22.68-67.79,45.36-33.96h67.79l33.96,67.92-45.26,33.87Z"/>
        <path class="cls-2" d="M645.07,1069.38l-22.68,67.92h-79.19v-33.84l33.96-34.08h67.92ZM645.07,1069.38v67.92l79.17,22.65,11.28-22.68v-33.96l-33.94-33.92h-56.51ZM543.22,1261.72h79.16v-101.75s-79.18-22.68-79.18-22.68l.02,124.42ZM724.24,1159.94l-79.17.03-22.68,67.79,45.36,33.96h67.79l33.96-67.92-45.26-33.87Z"/>
        <path class="cls-2" d="M916.67,1380.55l-22.68-67.92h-79.19v33.84l33.96,34.08h67.92ZM916.67,1380.55v-67.92l79.17-22.65,11.28,22.68v33.96l-33.94,33.92h-56.51ZM814.82,1188.21h79.16v101.75s-79.18,22.68-79.18,22.68l.02-124.42ZM995.84,1289.98l-79.17-.03-22.68-67.79,45.36-33.96h67.79l33.96,67.92-45.26,33.87Z"/>
        <path class="cls-2" d="M1188.27,1069.38l-22.68,67.92h-79.19v-33.84l33.96-34.08h67.92ZM1188.27,1069.38v67.92l79.17,22.65,11.28-22.68v-33.96l-33.94-33.92h-56.51ZM1086.41,1261.72h79.16v-101.75s-79.18-22.68-79.18-22.68l.02,124.42ZM1267.44,1159.94l-79.17.03-22.68,67.79,45.36,33.96h67.79l33.96-67.92-45.26-33.87Z"/>
        <path class="cls-2" d="M1459.86,1380.55l-22.68-67.92h-79.19v33.84l33.96,34.08h67.92ZM1459.86,1380.55v-67.92l79.17-22.65,11.28,22.68v33.96l-33.94,33.92h-56.51ZM1358.01,1188.21h79.16v101.75s-79.18,22.68-79.18,22.68l.02-124.42ZM1539.04,1289.98l-79.17-.03-22.68-67.79,45.36-33.96h67.79l33.96,67.92-45.26,33.87Z"/>
        <path class="cls-2" d="M1731.46,1069.38l-22.68,67.92h-79.19v-33.84l33.96-34.08h67.92ZM1731.46,1069.38v67.92l79.17,22.65,11.28-22.68v-33.96l-33.94-33.92h-56.51ZM1629.61,1261.72h79.16v-101.75s-79.18-22.68-79.18-22.68l.02,124.42ZM1810.64,1159.94l-79.17.03-22.68,67.79,45.36,33.96h67.79l33.96-67.92-45.26-33.87Z"/>
        <path class="cls-2" d="M2003.06,1380.55l-22.68-67.92h-79.19v33.84l33.96,34.08h67.92ZM2003.06,1380.55v-67.92l79.17-22.65,11.28,22.68v33.96l-33.94,33.92h-56.51ZM1901.21,1188.21h79.16v101.75s-79.18,22.68-79.18,22.68l.02-124.42ZM2082.23,1289.98l-79.17-.03-22.68-67.79,45.36-33.96h67.79l33.96,67.92-45.26,33.87Z"/>
        <path class="cls-2" d="M2274.66,1069.38l-22.68,67.92h-79.19v-33.84l33.96-34.08h67.92ZM2274.66,1069.38v67.92l79.17,22.65,11.28-22.68v-33.96l-33.94-33.92h-56.51ZM2172.81,1261.72h79.16v-101.75s-79.18-22.68-79.18-22.68l.02,124.42ZM2353.83,1159.94l-79.17.03-22.68,67.79,45.36,33.96h67.79l33.96-67.92-45.26-33.87Z"/>
        <path class="cls-2" d="M2546.26,1380.55l-22.68-67.92h-79.19v33.84l33.96,34.08h67.92ZM2546.26,1380.55v-67.92l79.17-22.65,11.28,22.68v33.96l-33.94,33.92h-56.51ZM2444.4,1188.21h79.16v101.75s-79.18,22.68-79.18,22.68l.02-124.42ZM2625.43,1289.98l-79.17-.03-22.68-67.79,45.36-33.96h67.79l33.96,67.92-45.26,33.87Z"/>
        <path class="cls-2" d="M2817.85,1069.38l-22.68,67.92h-79.19v-33.84l33.96-34.08h67.92ZM2817.85,1069.38v67.92l79.17,22.65,11.28-22.68v-33.96l-33.94-33.92h-56.51ZM2716,1261.72h79.16v-101.75s-79.18-22.68-79.18-22.68l.02,124.42ZM2897.03,1159.94l-79.17.03-22.68,67.79,45.36,33.96h67.79l33.96-67.92-45.26-33.87Z"/>
        <path class="cls-2" d="M3089.45,1380.55l-22.68-67.92h-79.19v33.84l33.96,34.08h67.92ZM3089.45,1380.55v-67.92l79.17-22.65,11.28,22.68v33.96l-33.94,33.92h-56.51ZM2987.6,1188.21h79.16v101.75s-79.18,22.68-79.18,22.68l.02-124.42ZM3168.63,1289.98l-79.17-.03-22.68-67.79,45.36-33.96h67.79l33.96,67.92-45.26,33.87Z"/>
        <path class="cls-2" d="M3361.05,1069.38l-22.68,67.92h-79.19v-33.84l33.96-34.08h67.92ZM3361.05,1069.38v67.92l79.17,22.65,11.28-22.68v-33.96l-33.94-33.92h-56.51ZM3259.2,1261.72h79.16v-101.75s-79.18-22.68-79.18-22.68l.02,124.42ZM3440.22,1159.94l-79.17.03-22.68,67.79,45.36,33.96h67.79l33.96-67.92-45.26-33.87Z"/>
        <path class="cls-2" d="M3632.65,1380.55l-22.68-67.92h-79.19v33.84l33.96,34.08h67.92ZM3632.65,1380.55v-67.92l79.17-22.65,11.28,22.68v33.96l-33.94,33.92h-56.51ZM3530.8,1188.21h79.16v101.75s-79.18,22.68-79.18,22.68l.02-124.42ZM3711.82,1289.98l-79.17-.03-22.68-67.79,45.36-33.96h67.79l33.96,67.92-45.26,33.87Z"/>
        <path class="cls-2" d="M3904.25,1069.38l-22.68,67.92h-79.19v-33.84l33.96-34.08h67.92ZM3904.25,1069.38v67.92l79.17,22.65,11.28-22.68v-33.96l-33.94-33.92h-56.51ZM3802.39,1261.72h79.16v-101.75s-79.18-22.68-79.18-22.68l.02,124.42ZM3983.42,1159.94l-79.17.03-22.68,67.79,45.36,33.96h67.79l33.96-67.92-45.26-33.87Z"/>
        <path class="cls-2" d="M4175.85,1380.55l-22.68-67.92h-79.19v33.84l33.96,34.08h67.92ZM4175.85,1380.55v-67.92l79.17-22.65,11.28,22.68v33.96l-33.94,33.92h-56.51ZM4073.99,1188.21h79.16v101.75s-79.18,22.68-79.18,22.68l.02-124.42ZM4255.02,1289.98l-79.17-.03-22.68-67.79,45.36-33.96h67.79l33.96,67.92-45.26,33.87Z"/>
        <path class="cls-2" d="M4447.44,1069.38l-22.68,67.92h-79.19v-33.84l33.96-34.08h67.92ZM4447.44,1069.38v67.92l79.17,22.65,11.28-22.68v-33.96l-33.94-33.92h-56.51ZM4345.59,1261.72h79.16v-101.75s-79.18-22.68-79.18-22.68l.02,124.42ZM4526.62,1159.94l-79.17.03-22.68,67.79,45.36,33.96h67.79l33.96-67.92-45.26-33.87Z"/>
        <path class="cls-2" d="M4719.04,1380.55l-22.68-67.92h-79.19v33.84l33.96,34.08h67.92ZM4719.04,1380.55v-67.92l79.17-22.65,11.28,22.68v33.96l-33.94,33.92h-56.51ZM4617.19,1188.21h79.16v101.75s-79.18,22.68-79.18,22.68l.02-124.42ZM4798.21,1289.98l-79.17-.03-22.68-67.79,45.36-33.96h67.79l33.96,67.92-45.26,33.87Z"/>
        <path class="cls-2" d="M101.87,1499.37l-22.68-67.92H0v33.84l33.96,34.08h67.92ZM101.87,1499.37v-67.92l79.17-22.65,11.28,22.68v33.96l-33.94,33.92h-56.51ZM.02,1307.03h79.16v101.75S0,1431.45,0,1431.45l.02-124.42ZM181.05,1408.8l-79.17-.03-22.68-67.79,45.36-33.96h67.79l33.96,67.92-45.26,33.87Z"/>
        <path class="cls-2" d="M373.47,1425.84l-22.68,67.92h-79.19v-33.84l33.96-34.08h67.92ZM373.47,1425.84v67.92l79.17,22.65,11.28-22.68v-33.96l-33.94-33.92h-56.51ZM271.62,1618.18h79.16v-101.75s-79.18-22.68-79.18-22.68l.02,124.42ZM452.64,1516.4l-79.17.03-22.68,67.79,45.36,33.96h67.79l33.96-67.92-45.26-33.87Z"/>
        <path class="cls-2" d="M645.07,1499.37l-22.68-67.92h-79.19v33.84l33.96,34.08h67.92ZM645.07,1499.37v-67.92l79.17-22.65,11.28,22.68v33.96l-33.94,33.92h-56.51ZM543.22,1307.03h79.16v101.75s-79.18,22.68-79.18,22.68l.02-124.42ZM724.24,1408.8l-79.17-.03-22.68-67.79,45.36-33.96h67.79l33.96,67.92-45.26,33.87Z"/>
        <path class="cls-2" d="M916.67,1425.84l-22.68,67.92h-79.19v-33.84l33.96-34.08h67.92ZM916.67,1425.84v67.92l79.17,22.65,11.28-22.68v-33.96l-33.94-33.92h-56.51ZM814.82,1618.18h79.16v-101.75s-79.18-22.68-79.18-22.68l.02,124.42ZM995.84,1516.4l-79.17.03-22.68,67.79,45.36,33.96h67.79l33.96-67.92-45.26-33.87Z"/>
        <path class="cls-2" d="M1188.27,1499.37l-22.68-67.92h-79.19v33.84l33.96,34.08h67.92ZM1188.27,1499.37v-67.92l79.17-22.65,11.28,22.68v33.96l-33.94,33.92h-56.51ZM1086.41,1307.03h79.16v101.75s-79.18,22.68-79.18,22.68l.02-124.42ZM1267.44,1408.8l-79.17-.03-22.68-67.79,45.36-33.96h67.79l33.96,67.92-45.26,33.87Z"/>
        <path class="cls-2" d="M1459.86,1425.84l-22.68,67.92h-79.19v-33.84l33.96-34.08h67.92ZM1459.86,1425.84v67.92l79.17,22.65,11.28-22.68v-33.96l-33.94-33.92h-56.51ZM1358.01,1618.18h79.16v-101.75s-79.18-22.68-79.18-22.68l.02,124.42ZM1539.04,1516.4l-79.17.03-22.68,67.79,45.36,33.96h67.79l33.96-67.92-45.26-33.87Z"/>
        <path class="cls-2" d="M1731.46,1499.37l-22.68-67.92h-79.19v33.84l33.96,34.08h67.92ZM1731.46,1499.37v-67.92l79.17-22.65,11.28,22.68v33.96l-33.94,33.92h-56.51ZM1629.61,1307.03h79.16v101.75s-79.18,22.68-79.18,22.68l.02-124.42ZM1810.64,1408.8l-79.17-.03-22.68-67.79,45.36-33.96h67.79l33.96,67.92-45.26,33.87Z"/>
        <path class="cls-2" d="M2003.06,1425.84l-22.68,67.92h-79.19v-33.84l33.96-34.08h67.92ZM2003.06,1425.84v67.92l79.17,22.65,11.28-22.68v-33.96l-33.94-33.92h-56.51ZM1901.21,1618.18h79.16v-101.75s-79.18-22.68-79.18-22.68l.02,124.42ZM2082.23,1516.4l-79.17.03-22.68,67.79,45.36,33.96h67.79l33.96-67.92-45.26-33.87Z"/>
        <path class="cls-2" d="M2274.66,1499.37l-22.68-67.92h-79.19v33.84l33.96,34.08h67.92ZM2274.66,1499.37v-67.92l79.17-22.65,11.28,22.68v33.96l-33.94,33.92h-56.51ZM2172.81,1307.03h79.16v101.75s-79.18,22.68-79.18,22.68l.02-124.42ZM2353.83,1408.8l-79.17-.03-22.68-67.79,45.36-33.96h67.79l33.96,67.92-45.26,33.87Z"/>
        <path class="cls-2" d="M2546.26,1425.84l-22.68,67.92h-79.19v-33.84l33.96-34.08h67.92ZM2546.26,1425.84v67.92l79.17,22.65,11.28-22.68v-33.96l-33.94-33.92h-56.51ZM2444.4,1618.18h79.16v-101.75s-79.18-22.68-79.18-22.68l.02,124.42ZM2625.43,1516.4l-79.17.03-22.68,67.79,45.36,33.96h67.79l33.96-67.92-45.26-33.87Z"/>
        <path class="cls-2" d="M2817.85,1499.37l-22.68-67.92h-79.19v33.84l33.96,34.08h67.92ZM2817.85,1499.37v-67.92l79.17-22.65,11.28,22.68v33.96l-33.94,33.92h-56.51ZM2716,1307.03h79.16v101.75s-79.18,22.68-79.18,22.68l.02-124.42ZM2897.03,1408.8l-79.17-.03-22.68-67.79,45.36-33.96h67.79l33.96,67.92-45.26,33.87Z"/>
        <path class="cls-2" d="M3089.45,1425.84l-22.68,67.92h-79.19v-33.84l33.96-34.08h67.92ZM3089.45,1425.84v67.92l79.17,22.65,11.28-22.68v-33.96l-33.94-33.92h-56.51ZM2987.6,1618.18h79.16v-101.75s-79.18-22.68-79.18-22.68l.02,124.42ZM3168.63,1516.4l-79.17.03-22.68,67.79,45.36,33.96h67.79l33.96-67.92-45.26-33.87Z"/>
        <path class="cls-2" d="M3361.05,1499.37l-22.68-67.92h-79.19v33.84l33.96,34.08h67.92ZM3361.05,1499.37v-67.92l79.17-22.65,11.28,22.68v33.96l-33.94,33.92h-56.51ZM3259.2,1307.03h79.16v101.75s-79.18,22.68-79.18,22.68l.02-124.42ZM3440.22,1408.8l-79.17-.03-22.68-67.79,45.36-33.96h67.79l33.96,67.92-45.26,33.87Z"/>
        <path class="cls-2" d="M3632.65,1425.84l-22.68,67.92h-79.19v-33.84l33.96-34.08h67.92ZM3632.65,1425.84v67.92l79.17,22.65,11.28-22.68v-33.96l-33.94-33.92h-56.51ZM3530.8,1618.18h79.16v-101.75s-79.18-22.68-79.18-22.68l.02,124.42ZM3711.82,1516.4l-79.17.03-22.68,67.79,45.36,33.96h67.79l33.96-67.92-45.26-33.87Z"/>
        <path class="cls-2" d="M3904.25,1499.37l-22.68-67.92h-79.19v33.84l33.96,34.08h67.92ZM3904.25,1499.37v-67.92l79.17-22.65,11.28,22.68v33.96l-33.94,33.92h-56.51ZM3802.39,1307.03h79.16v101.75s-79.18,22.68-79.18,22.68l.02-124.42ZM3983.42,1408.8l-79.17-.03-22.68-67.79,45.36-33.96h67.79l33.96,67.92-45.26,33.87Z"/>
        <path class="cls-2" d="M4175.85,1425.84l-22.68,67.92h-79.19v-33.84l33.96-34.08h67.92ZM4175.85,1425.84v67.92l79.17,22.65,11.28-22.68v-33.96l-33.94-33.92h-56.51ZM4073.99,1618.18h79.16v-101.75s-79.18-22.68-79.18-22.68l.02,124.42ZM4255.02,1516.4l-79.17.03-22.68,67.79,45.36,33.96h67.79l33.96-67.92-45.26-33.87Z"/>
        <path class="cls-2" d="M4447.44,1499.37l-22.68-67.92h-79.19v33.84l33.96,34.08h67.92ZM4447.44,1499.37v-67.92l79.17-22.65,11.28,22.68v33.96l-33.94,33.92h-56.51ZM4345.59,1307.03h79.16v101.75s-79.18,22.68-79.18,22.68l.02-124.42ZM4526.62,1408.8l-79.17-.03-22.68-67.79,45.36-33.96h67.79l33.96,67.92-45.26,33.87Z"/>
        <path class="cls-2" d="M4719.04,1425.84l-22.68,67.92h-79.19v-33.84l33.96-34.08h67.92ZM4719.04,1425.84v67.92l79.17,22.65,11.28-22.68v-33.96l-33.94-33.92h-56.51ZM4617.19,1618.18h79.16v-101.75s-79.18-22.68-79.18-22.68l.02,124.42ZM4798.21,1516.4l-79.17.03-22.68,67.79,45.36,33.96h67.79l33.96-67.92-45.26-33.87Z"/>
        <path class="cls-2" d="M101.87,1544.66l-22.68,67.92H0v-33.84l33.96-34.08h67.92ZM101.87,1544.66v67.92l79.17,22.65,11.28-22.68v-33.96l-33.94-33.92h-56.51ZM.02,1737h79.16v-101.75S0,1612.58,0,1612.58l.02,124.42ZM181.05,1635.22l-79.17.03-22.68,67.79,45.36,33.96h67.79l33.96-67.92-45.26-33.87Z"/>
        <path class="cls-2" d="M373.47,1855.83l-22.68-67.92h-79.19v33.84l33.96,34.08h67.92ZM373.47,1855.83v-67.92l79.17-22.65,11.28,22.68v33.96l-33.94,33.92h-56.51ZM271.62,1663.49h79.16v101.75s-79.18,22.68-79.18,22.68l.02-124.42ZM452.64,1765.27l-79.17-.03-22.68-67.79,45.36-33.96h67.79l33.96,67.92-45.26,33.87Z"/>
        <path class="cls-2" d="M645.07,1544.66l-22.68,67.92h-79.19v-33.84l33.96-34.08h67.92ZM645.07,1544.66v67.92l79.17,22.65,11.28-22.68v-33.96l-33.94-33.92h-56.51ZM543.22,1737h79.16v-101.75s-79.18-22.68-79.18-22.68l.02,124.42ZM724.24,1635.22l-79.17.03-22.68,67.79,45.36,33.96h67.79l33.96-67.92-45.26-33.87Z"/>
        <path class="cls-2" d="M916.67,1855.83l-22.68-67.92h-79.19v33.84l33.96,34.08h67.92ZM916.67,1855.83v-67.92l79.17-22.65,11.28,22.68v33.96l-33.94,33.92h-56.51ZM814.82,1663.49h79.16v101.75s-79.18,22.68-79.18,22.68l.02-124.42ZM995.84,1765.27l-79.17-.03-22.68-67.79,45.36-33.96h67.79l33.96,67.92-45.26,33.87Z"/>
        <path class="cls-2" d="M1188.27,1544.66l-22.68,67.92h-79.19v-33.84l33.96-34.08h67.92ZM1188.27,1544.66v67.92l79.17,22.65,11.28-22.68v-33.96l-33.94-33.92h-56.51ZM1086.41,1737h79.16v-101.75s-79.18-22.68-79.18-22.68l.02,124.42ZM1267.44,1635.22l-79.17.03-22.68,67.79,45.36,33.96h67.79l33.96-67.92-45.26-33.87Z"/>
        <path class="cls-2" d="M1459.86,1855.83l-22.68-67.92h-79.19v33.84l33.96,34.08h67.92ZM1459.86,1855.83v-67.92l79.17-22.65,11.28,22.68v33.96l-33.94,33.92h-56.51ZM1358.01,1663.49h79.16v101.75s-79.18,22.68-79.18,22.68l.02-124.42ZM1539.04,1765.27l-79.17-.03-22.68-67.79,45.36-33.96h67.79l33.96,67.92-45.26,33.87Z"/>
        <path class="cls-2" d="M1731.46,1544.66l-22.68,67.92h-79.19v-33.84l33.96-34.08h67.92ZM1731.46,1544.66v67.92l79.17,22.65,11.28-22.68v-33.96l-33.94-33.92h-56.51ZM1629.61,1737h79.16v-101.75s-79.18-22.68-79.18-22.68l.02,124.42ZM1810.64,1635.22l-79.17.03-22.68,67.79,45.36,33.96h67.79l33.96-67.92-45.26-33.87Z"/>
        <path class="cls-2" d="M2003.06,1855.83l-22.68-67.92h-79.19v33.84l33.96,34.08h67.92ZM2003.06,1855.83v-67.92l79.17-22.65,11.28,22.68v33.96l-33.94,33.92h-56.51ZM1901.21,1663.49h79.16v101.75s-79.18,22.68-79.18,22.68l.02-124.42ZM2082.23,1765.27l-79.17-.03-22.68-67.79,45.36-33.96h67.79l33.96,67.92-45.26,33.87Z"/>
        <path class="cls-2" d="M2274.66,1544.66l-22.68,67.92h-79.19v-33.84l33.96-34.08h67.92ZM2274.66,1544.66v67.92l79.17,22.65,11.28-22.68v-33.96l-33.94-33.92h-56.51ZM2172.81,1737h79.16v-101.75s-79.18-22.68-79.18-22.68l.02,124.42ZM2353.83,1635.22l-79.17.03-22.68,67.79,45.36,33.96h67.79l33.96-67.92-45.26-33.87Z"/>
        <path class="cls-2" d="M2546.26,1855.83l-22.68-67.92h-79.19v33.84l33.96,34.08h67.92ZM2546.26,1855.83v-67.92l79.17-22.65,11.28,22.68v33.96l-33.94,33.92h-56.51ZM2444.4,1663.49h79.16v101.75s-79.18,22.68-79.18,22.68l.02-124.42ZM2625.43,1765.27l-79.17-.03-22.68-67.79,45.36-33.96h67.79l33.96,67.92-45.26,33.87Z"/>
        <path class="cls-2" d="M2817.85,1544.66l-22.68,67.92h-79.19v-33.84l33.96-34.08h67.92ZM2817.85,1544.66v67.92l79.17,22.65,11.28-22.68v-33.96l-33.94-33.92h-56.51ZM2716,1737h79.16v-101.75s-79.18-22.68-79.18-22.68l.02,124.42ZM2897.03,1635.22l-79.17.03-22.68,67.79,45.36,33.96h67.79l33.96-67.92-45.26-33.87Z"/>
        <path class="cls-2" d="M3089.45,1855.83l-22.68-67.92h-79.19v33.84l33.96,34.08h67.92ZM3089.45,1855.83v-67.92l79.17-22.65,11.28,22.68v33.96l-33.94,33.92h-56.51ZM2987.6,1663.49h79.16v101.75s-79.18,22.68-79.18,22.68l.02-124.42ZM3168.63,1765.27l-79.17-.03-22.68-67.79,45.36-33.96h67.79l33.96,67.92-45.26,33.87Z"/>
        <path class="cls-2" d="M3361.05,1544.66l-22.68,67.92h-79.19v-33.84l33.96-34.08h67.92ZM3361.05,1544.66v67.92l79.17,22.65,11.28-22.68v-33.96l-33.94-33.92h-56.51ZM3259.2,1737h79.16v-101.75s-79.18-22.68-79.18-22.68l.02,124.42ZM3440.22,1635.22l-79.17.03-22.68,67.79,45.36,33.96h67.79l33.96-67.92-45.26-33.87Z"/>
        <path class="cls-2" d="M3632.65,1855.83l-22.68-67.92h-79.19v33.84l33.96,34.08h67.92ZM3632.65,1855.83v-67.92l79.17-22.65,11.28,22.68v33.96l-33.94,33.92h-56.51ZM3530.8,1663.49h79.16v101.75s-79.18,22.68-79.18,22.68l.02-124.42ZM3711.82,1765.27l-79.17-.03-22.68-67.79,45.36-33.96h67.79l33.96,67.92-45.26,33.87Z"/>
        <path class="cls-2" d="M3904.25,1544.66l-22.68,67.92h-79.19v-33.84l33.96-34.08h67.92ZM3904.25,1544.66v67.92l79.17,22.65,11.28-22.68v-33.96l-33.94-33.92h-56.51ZM3802.39,1737h79.16v-101.75s-79.18-22.68-79.18-22.68l.02,124.42ZM3983.42,1635.22l-79.17.03-22.68,67.79,45.36,33.96h67.79l33.96-67.92-45.26-33.87Z"/>
        <path class="cls-2" d="M4175.85,1855.83l-22.68-67.92h-79.19v33.84l33.96,34.08h67.92ZM4175.85,1855.83v-67.92l79.17-22.65,11.28,22.68v33.96l-33.94,33.92h-56.51ZM4073.99,1663.49h79.16v101.75s-79.18,22.68-79.18,22.68l.02-124.42ZM4255.02,1765.27l-79.17-.03-22.68-67.79,45.36-33.96h67.79l33.96,67.92-45.26,33.87Z"/>
        <path class="cls-2" d="M4447.44,1544.66l-22.68,67.92h-79.19v-33.84l33.96-34.08h67.92ZM4447.44,1544.66v67.92l79.17,22.65,11.28-22.68v-33.96l-33.94-33.92h-56.51ZM4345.59,1737h79.16v-101.75s-79.18-22.68-79.18-22.68l.02,124.42ZM4526.62,1635.22l-79.17.03-22.68,67.79,45.36,33.96h67.79l33.96-67.92-45.26-33.87Z"/>
        <path class="cls-2" d="M4719.04,1855.83l-22.68-67.92h-79.19v33.84l33.96,34.08h67.92ZM4719.04,1855.83v-67.92l79.17-22.65,11.28,22.68v33.96l-33.94,33.92h-56.51ZM4617.19,1663.49h79.16v101.75s-79.18,22.68-79.18,22.68l.02-124.42ZM4798.21,1765.27l-79.17-.03-22.68-67.79,45.36-33.96h67.79l33.96,67.92-45.26,33.87Z"/>
        <path class="cls-2" d="M101.87,1974.65l-22.68-67.92H0v33.84l33.96,34.08h67.92ZM101.87,1974.65v-67.92l79.17-22.65,11.28,22.68v33.96l-33.94,33.92h-56.51ZM.02,1782.31h79.16v101.75S0,1906.73,0,1906.73l.02-124.42ZM181.05,1884.08l-79.17-.03-22.68-67.79,45.36-33.96h67.79l33.96,67.92-45.26,33.87Z"/>
        <path class="cls-2" d="M373.47,1901.12l-22.68,67.92h-79.19v-33.84l33.96-34.08h67.92ZM373.47,1901.12v67.92l79.17,22.65,11.28-22.68v-33.96l-33.94-33.92h-56.51ZM271.62,2093.46h79.16v-101.75s-79.18-22.68-79.18-22.68l.02,124.42ZM452.64,1991.68l-79.17.03-22.68,67.79,45.36,33.96h67.79l33.96-67.92-45.26-33.87Z"/>
        <path class="cls-2" d="M645.07,1974.65l-22.68-67.92h-79.19v33.84l33.96,34.08h67.92ZM645.07,1974.65v-67.92l79.17-22.65,11.28,22.68v33.96l-33.94,33.92h-56.51ZM543.22,1782.31h79.16v101.75s-79.18,22.68-79.18,22.68l.02-124.42ZM724.24,1884.08l-79.17-.03-22.68-67.79,45.36-33.96h67.79l33.96,67.92-45.26,33.87Z"/>
        <path class="cls-2" d="M916.67,1901.12l-22.68,67.92h-79.19v-33.84l33.96-34.08h67.92ZM916.67,1901.12v67.92l79.17,22.65,11.28-22.68v-33.96l-33.94-33.92h-56.51ZM814.82,2093.46h79.16v-101.75s-79.18-22.68-79.18-22.68l.02,124.42ZM995.84,1991.68l-79.17.03-22.68,67.79,45.36,33.96h67.79l33.96-67.92-45.26-33.87Z"/>
        <path class="cls-2" d="M1188.27,1974.65l-22.68-67.92h-79.19v33.84l33.96,34.08h67.92ZM1188.27,1974.65v-67.92l79.17-22.65,11.28,22.68v33.96l-33.94,33.92h-56.51ZM1086.41,1782.31h79.16v101.75s-79.18,22.68-79.18,22.68l.02-124.42ZM1267.44,1884.08l-79.17-.03-22.68-67.79,45.36-33.96h67.79l33.96,67.92-45.26,33.87Z"/>
        <path class="cls-2" d="M1459.86,1901.12l-22.68,67.92h-79.19v-33.84l33.96-34.08h67.92ZM1459.86,1901.12v67.92l79.17,22.65,11.28-22.68v-33.96l-33.94-33.92h-56.51ZM1358.01,2093.46h79.16v-101.75s-79.18-22.68-79.18-22.68l.02,124.42ZM1539.04,1991.68l-79.17.03-22.68,67.79,45.36,33.96h67.79l33.96-67.92-45.26-33.87Z"/>
        <path class="cls-2" d="M1731.46,1974.65l-22.68-67.92h-79.19v33.84l33.96,34.08h67.92ZM1731.46,1974.65v-67.92l79.17-22.65,11.28,22.68v33.96l-33.94,33.92h-56.51ZM1629.61,1782.31h79.16v101.75s-79.18,22.68-79.18,22.68l.02-124.42ZM1810.64,1884.08l-79.17-.03-22.68-67.79,45.36-33.96h67.79l33.96,67.92-45.26,33.87Z"/>
        <path class="cls-2" d="M2003.06,1901.12l-22.68,67.92h-79.19v-33.84l33.96-34.08h67.92ZM2003.06,1901.12v67.92l79.17,22.65,11.28-22.68v-33.96l-33.94-33.92h-56.51ZM1901.21,2093.46h79.16v-101.75s-79.18-22.68-79.18-22.68l.02,124.42ZM2082.23,1991.68l-79.17.03-22.68,67.79,45.36,33.96h67.79l33.96-67.92-45.26-33.87Z"/>
        <path class="cls-2" d="M2274.66,1974.65l-22.68-67.92h-79.19v33.84l33.96,34.08h67.92ZM2274.66,1974.65v-67.92l79.17-22.65,11.28,22.68v33.96l-33.94,33.92h-56.51ZM2172.81,1782.31h79.16v101.75s-79.18,22.68-79.18,22.68l.02-124.42ZM2353.83,1884.08l-79.17-.03-22.68-67.79,45.36-33.96h67.79l33.96,67.92-45.26,33.87Z"/>
        <path class="cls-2" d="M2546.26,1901.12l-22.68,67.92h-79.19v-33.84l33.96-34.08h67.92ZM2546.26,1901.12v67.92l79.17,22.65,11.28-22.68v-33.96l-33.94-33.92h-56.51ZM2444.4,2093.46h79.16v-101.75s-79.18-22.68-79.18-22.68l.02,124.42ZM2625.43,1991.68l-79.17.03-22.68,67.79,45.36,33.96h67.79l33.96-67.92-45.26-33.87Z"/>
        <path class="cls-2" d="M2817.85,1974.65l-22.68-67.92h-79.19v33.84l33.96,34.08h67.92ZM2817.85,1974.65v-67.92l79.17-22.65,11.28,22.68v33.96l-33.94,33.92h-56.51ZM2716,1782.31h79.16v101.75s-79.18,22.68-79.18,22.68l.02-124.42ZM2897.03,1884.08l-79.17-.03-22.68-67.79,45.36-33.96h67.79l33.96,67.92-45.26,33.87Z"/>
        <path class="cls-2" d="M3089.45,1901.12l-22.68,67.92h-79.19v-33.84l33.96-34.08h67.92ZM3089.45,1901.12v67.92l79.17,22.65,11.28-22.68v-33.96l-33.94-33.92h-56.51ZM2987.6,2093.46h79.16v-101.75s-79.18-22.68-79.18-22.68l.02,124.42ZM3168.63,1991.68l-79.17.03-22.68,67.79,45.36,33.96h67.79l33.96-67.92-45.26-33.87Z"/>
        <path class="cls-2" d="M3361.05,1974.65l-22.68-67.92h-79.19v33.84l33.96,34.08h67.92ZM3361.05,1974.65v-67.92l79.17-22.65,11.28,22.68v33.96l-33.94,33.92h-56.51ZM3259.2,1782.31h79.16v101.75s-79.18,22.68-79.18,22.68l.02-124.42ZM3440.22,1884.08l-79.17-.03-22.68-67.79,45.36-33.96h67.79l33.96,67.92-45.26,33.87Z"/>
        <path class="cls-2" d="M3632.65,1901.12l-22.68,67.92h-79.19v-33.84l33.96-34.08h67.92ZM3632.65,1901.12v67.92l79.17,22.65,11.28-22.68v-33.96l-33.94-33.92h-56.51ZM3530.8,2093.46h79.16v-101.75s-79.18-22.68-79.18-22.68l.02,124.42ZM3711.82,1991.68l-79.17.03-22.68,67.79,45.36,33.96h67.79l33.96-67.92-45.26-33.87Z"/>
        <path class="cls-2" d="M3904.25,1974.65l-22.68-67.92h-79.19v33.84l33.96,34.08h67.92ZM3904.25,1974.65v-67.92l79.17-22.65,11.28,22.68v33.96l-33.94,33.92h-56.51ZM3802.39,1782.31h79.16v101.75s-79.18,22.68-79.18,22.68l.02-124.42ZM3983.42,1884.08l-79.17-.03-22.68-67.79,45.36-33.96h67.79l33.96,67.92-45.26,33.87Z"/>
        <path class="cls-2" d="M4175.85,1901.12l-22.68,67.92h-79.19v-33.84l33.96-34.08h67.92ZM4175.85,1901.12v67.92l79.17,22.65,11.28-22.68v-33.96l-33.94-33.92h-56.51ZM4073.99,2093.46h79.16v-101.75s-79.18-22.68-79.18-22.68l.02,124.42ZM4255.02,1991.68l-79.17.03-22.68,67.79,45.36,33.96h67.79l33.96-67.92-45.26-33.87Z"/>
        <path class="cls-2" d="M4447.44,1974.65l-22.68-67.92h-79.19v33.84l33.96,34.08h67.92ZM4447.44,1974.65v-67.92l79.17-22.65,11.28,22.68v33.96l-33.94,33.92h-56.51ZM4345.59,1782.31h79.16v101.75s-79.18,22.68-79.18,22.68l.02-124.42ZM4526.62,1884.08l-79.17-.03-22.68-67.79,45.36-33.96h67.79l33.96,67.92-45.26,33.87Z"/>
        <path class="cls-2" d="M4719.04,1901.12l-22.68,67.92h-79.19v-33.84l33.96-34.08h67.92ZM4719.04,1901.12v67.92l79.17,22.65,11.28-22.68v-33.96l-33.94-33.92h-56.51ZM4617.19,2093.46h79.16v-101.75s-79.18-22.68-79.18-22.68l.02,124.42ZM4798.21,1991.68l-79.17.03-22.68,67.79,45.36,33.96h67.79l33.96-67.92-45.26-33.87Z"/>
        <path class="cls-2" d="M101.87,2019.94l-22.68,67.92H0v-33.84l33.96-34.08h67.92ZM101.87,2019.94v67.92l79.17,22.65,11.28-22.68v-33.96l-33.94-33.92h-56.51ZM.02,2212.28h79.16v-101.75s-79.18-22.68-79.18-22.68l.02,124.42ZM181.05,2110.5l-79.17.03-22.68,67.79,45.36,33.96h67.79l33.96-67.92-45.26-33.87Z"/>
        <path class="cls-2" d="M373.47,2331.11l-22.68-67.92h-79.19v33.84l33.96,34.08h67.92ZM373.47,2331.11v-67.92l79.17-22.65,11.28,22.68v33.96l-33.94,33.92h-56.51ZM271.62,2138.77h79.16v101.75s-79.18,22.68-79.18,22.68l.02-124.42ZM452.64,2240.54l-79.17-.03-22.68-67.79,45.36-33.96h67.79l33.96,67.92-45.26,33.87Z"/>
        <path class="cls-2" d="M645.07,2019.94l-22.68,67.92h-79.19v-33.84l33.96-34.08h67.92ZM645.07,2019.94v67.92l79.17,22.65,11.28-22.68v-33.96l-33.94-33.92h-56.51ZM543.22,2212.28h79.16v-101.75s-79.18-22.68-79.18-22.68l.02,124.42ZM724.24,2110.5l-79.17.03-22.68,67.79,45.36,33.96h67.79l33.96-67.92-45.26-33.87Z"/>
        <path class="cls-2" d="M916.67,2331.11l-22.68-67.92h-79.19v33.84l33.96,34.08h67.92ZM916.67,2331.11v-67.92l79.17-22.65,11.28,22.68v33.96l-33.94,33.92h-56.51ZM814.82,2138.77h79.16v101.75s-79.18,22.68-79.18,22.68l.02-124.42ZM995.84,2240.54l-79.17-.03-22.68-67.79,45.36-33.96h67.79l33.96,67.92-45.26,33.87Z"/>
        <path class="cls-2" d="M1188.27,2019.94l-22.68,67.92h-79.19v-33.84l33.96-34.08h67.92ZM1188.27,2019.94v67.92l79.17,22.65,11.28-22.68v-33.96l-33.94-33.92h-56.51ZM1086.41,2212.28h79.16v-101.75s-79.18-22.68-79.18-22.68l.02,124.42ZM1267.44,2110.5l-79.17.03-22.68,67.79,45.36,33.96h67.79l33.96-67.92-45.26-33.87Z"/>
        <path class="cls-2" d="M1459.86,2331.11l-22.68-67.92h-79.19v33.84l33.96,34.08h67.92ZM1459.86,2331.11v-67.92l79.17-22.65,11.28,22.68v33.96l-33.94,33.92h-56.51ZM1358.01,2138.77h79.16v101.75s-79.18,22.68-79.18,22.68l.02-124.42ZM1539.04,2240.54l-79.17-.03-22.68-67.79,45.36-33.96h67.79l33.96,67.92-45.26,33.87Z"/>
        <path class="cls-2" d="M1731.46,2019.94l-22.68,67.92h-79.19v-33.84l33.96-34.08h67.92ZM1731.46,2019.94v67.92l79.17,22.65,11.28-22.68v-33.96l-33.94-33.92h-56.51ZM1629.61,2212.28h79.16v-101.75s-79.18-22.68-79.18-22.68l.02,124.42ZM1810.64,2110.5l-79.17.03-22.68,67.79,45.36,33.96h67.79l33.96-67.92-45.26-33.87Z"/>
        <path class="cls-2" d="M2003.06,2331.11l-22.68-67.92h-79.19v33.84l33.96,34.08h67.92ZM2003.06,2331.11v-67.92l79.17-22.65,11.28,22.68v33.96l-33.94,33.92h-56.51ZM1901.21,2138.77h79.16v101.75s-79.18,22.68-79.18,22.68l.02-124.42ZM2082.23,2240.54l-79.17-.03-22.68-67.79,45.36-33.96h67.79l33.96,67.92-45.26,33.87Z"/>
        <path class="cls-2" d="M2274.66,2019.94l-22.68,67.92h-79.19v-33.84l33.96-34.08h67.92ZM2274.66,2019.94v67.92l79.17,22.65,11.28-22.68v-33.96l-33.94-33.92h-56.51ZM2172.81,2212.28h79.16v-101.75s-79.18-22.68-79.18-22.68l.02,124.42ZM2353.83,2110.5l-79.17.03-22.68,67.79,45.36,33.96h67.79l33.96-67.92-45.26-33.87Z"/>
        <path class="cls-2" d="M2546.26,2331.11l-22.68-67.92h-79.19v33.84l33.96,34.08h67.92ZM2546.26,2331.11v-67.92l79.17-22.65,11.28,22.68v33.96l-33.94,33.92h-56.51ZM2444.4,2138.77h79.16v101.75s-79.18,22.68-79.18,22.68l.02-124.42ZM2625.43,2240.54l-79.17-.03-22.68-67.79,45.36-33.96h67.79l33.96,67.92-45.26,33.87Z"/>
        <path class="cls-2" d="M2817.85,2019.94l-22.68,67.92h-79.19v-33.84l33.96-34.08h67.92ZM2817.85,2019.94v67.92l79.17,22.65,11.28-22.68v-33.96l-33.94-33.92h-56.51ZM2716,2212.28h79.16v-101.75s-79.18-22.68-79.18-22.68l.02,124.42ZM2897.03,2110.5l-79.17.03-22.68,67.79,45.36,33.96h67.79l33.96-67.92-45.26-33.87Z"/>
        <path class="cls-2" d="M3089.45,2331.11l-22.68-67.92h-79.19v33.84l33.96,34.08h67.92ZM3089.45,2331.11v-67.92l79.17-22.65,11.28,22.68v33.96l-33.94,33.92h-56.51ZM2987.6,2138.77h79.16v101.75s-79.18,22.68-79.18,22.68l.02-124.42ZM3168.63,2240.54l-79.17-.03-22.68-67.79,45.36-33.96h67.79l33.96,67.92-45.26,33.87Z"/>
        <path class="cls-2" d="M3361.05,2019.94l-22.68,67.92h-79.19v-33.84l33.96-34.08h67.92ZM3361.05,2019.94v67.92l79.17,22.65,11.28-22.68v-33.96l-33.94-33.92h-56.51ZM3259.2,2212.28h79.16v-101.75s-79.18-22.68-79.18-22.68l.02,124.42ZM3440.22,2110.5l-79.17.03-22.68,67.79,45.36,33.96h67.79l33.96-67.92-45.26-33.87Z"/>
        <path class="cls-2" d="M3632.65,2331.11l-22.68-67.92h-79.19v33.84l33.96,34.08h67.92ZM3632.65,2331.11v-67.92l79.17-22.65,11.28,22.68v33.96l-33.94,33.92h-56.51ZM3530.8,2138.77h79.16v101.75s-79.18,22.68-79.18,22.68l.02-124.42ZM3711.82,2240.54l-79.17-.03-22.68-67.79,45.36-33.96h67.79l33.96,67.92-45.26,33.87Z"/>
        <path class="cls-2" d="M3904.25,2019.94l-22.68,67.92h-79.19v-33.84l33.96-34.08h67.92ZM3904.25,2019.94v67.92l79.17,22.65,11.28-22.68v-33.96l-33.94-33.92h-56.51ZM3802.39,2212.28h79.16v-101.75s-79.18-22.68-79.18-22.68l.02,124.42ZM3983.42,2110.5l-79.17.03-22.68,67.79,45.36,33.96h67.79l33.96-67.92-45.26-33.87Z"/>
        <path class="cls-2" d="M4175.85,2331.11l-22.68-67.92h-79.19v33.84l33.96,34.08h67.92ZM4175.85,2331.11v-67.92l79.17-22.65,11.28,22.68v33.96l-33.94,33.92h-56.51ZM4073.99,2138.77h79.16v101.75s-79.18,22.68-79.18,22.68l.02-124.42ZM4255.02,2240.54l-79.17-.03-22.68-67.79,45.36-33.96h67.79l33.96,67.92-45.26,33.87Z"/>
        <path class="cls-2" d="M4447.44,2019.94l-22.68,67.92h-79.19v-33.84l33.96-34.08h67.92ZM4447.44,2019.94v67.92l79.17,22.65,11.28-22.68v-33.96l-33.94-33.92h-56.51ZM4345.59,2212.28h79.16v-101.75s-79.18-22.68-79.18-22.68l.02,124.42ZM4526.62,2110.5l-79.17.03-22.68,67.79,45.36,33.96h67.79l33.96-67.92-45.26-33.87Z"/>
        <path class="cls-2" d="M4719.04,2331.11l-22.68-67.92h-79.19v33.84l33.96,34.08h67.92ZM4719.04,2331.11v-67.92l79.17-22.65,11.28,22.68v33.96l-33.94,33.92h-56.51ZM4617.19,2138.77h79.16v101.75s-79.18,22.68-79.18,22.68l.02-124.42ZM4798.21,2240.54l-79.17-.03-22.68-67.79,45.36-33.96h67.79l33.96,67.92-45.26,33.87Z"/>
        <path class="cls-2" d="M101.87,2449.93l-22.68-67.92H0v33.84l33.96,34.08h67.92ZM101.87,2449.93v-67.92l79.17-22.65,11.28,22.68v33.96l-33.94,33.92h-56.51ZM.02,2257.59h79.16v101.75s-79.18,22.68-79.18,22.68l.02-124.42ZM181.05,2359.37l-79.17-.03-22.68-67.79,45.36-33.96h67.79l33.96,67.92-45.26,33.87Z"/>
        <path class="cls-2" d="M373.47,2376.4l-22.68,67.92h-79.19v-33.84l33.96-34.08h67.92ZM373.47,2376.4v67.92l79.17,22.65,11.28-22.68v-33.96l-33.94-33.92h-56.51ZM271.62,2568.74h79.16v-101.75s-79.18-22.68-79.18-22.68l.02,124.42ZM452.64,2466.96l-79.17.03-22.68,67.79,45.36,33.96h67.79l33.96-67.92-45.26-33.87Z"/>
        <path class="cls-2" d="M645.07,2449.93l-22.68-67.92h-79.19v33.84l33.96,34.08h67.92ZM645.07,2449.93v-67.92l79.17-22.65,11.28,22.68v33.96l-33.94,33.92h-56.51ZM543.22,2257.59h79.16v101.75s-79.18,22.68-79.18,22.68l.02-124.42ZM724.24,2359.37l-79.17-.03-22.68-67.79,45.36-33.96h67.79l33.96,67.92-45.26,33.87Z"/>
        <path class="cls-2" d="M916.67,2376.4l-22.68,67.92h-79.19v-33.84l33.96-34.08h67.92ZM916.67,2376.4v67.92l79.17,22.65,11.28-22.68v-33.96l-33.94-33.92h-56.51ZM814.82,2568.74h79.16v-101.75s-79.18-22.68-79.18-22.68l.02,124.42ZM995.84,2466.96l-79.17.03-22.68,67.79,45.36,33.96h67.79l33.96-67.92-45.26-33.87Z"/>
        <path class="cls-2" d="M1188.27,2449.93l-22.68-67.92h-79.19v33.84l33.96,34.08h67.92ZM1188.27,2449.93v-67.92l79.17-22.65,11.28,22.68v33.96l-33.94,33.92h-56.51ZM1086.41,2257.59h79.16v101.75s-79.18,22.68-79.18,22.68l.02-124.42ZM1267.44,2359.37l-79.17-.03-22.68-67.79,45.36-33.96h67.79l33.96,67.92-45.26,33.87Z"/>
        <path class="cls-2" d="M1459.86,2376.4l-22.68,67.92h-79.19v-33.84l33.96-34.08h67.92ZM1459.86,2376.4v67.92l79.17,22.65,11.28-22.68v-33.96l-33.94-33.92h-56.51ZM1358.01,2568.74h79.16v-101.75s-79.18-22.68-79.18-22.68l.02,124.42ZM1539.04,2466.96l-79.17.03-22.68,67.79,45.36,33.96h67.79l33.96-67.92-45.26-33.87Z"/>
        <path class="cls-2" d="M1731.46,2449.93l-22.68-67.92h-79.19v33.84l33.96,34.08h67.92ZM1731.46,2449.93v-67.92l79.17-22.65,11.28,22.68v33.96l-33.94,33.92h-56.51ZM1629.61,2257.59h79.16v101.75s-79.18,22.68-79.18,22.68l.02-124.42ZM1810.64,2359.37l-79.17-.03-22.68-67.79,45.36-33.96h67.79l33.96,67.92-45.26,33.87Z"/>
        <path class="cls-2" d="M2003.06,2376.4l-22.68,67.92h-79.19v-33.84l33.96-34.08h67.92ZM2003.06,2376.4v67.92l79.17,22.65,11.28-22.68v-33.96l-33.94-33.92h-56.51ZM1901.21,2568.74h79.16v-101.75s-79.18-22.68-79.18-22.68l.02,124.42ZM2082.23,2466.96l-79.17.03-22.68,67.79,45.36,33.96h67.79l33.96-67.92-45.26-33.87Z"/>
        <path class="cls-2" d="M2274.66,2449.93l-22.68-67.92h-79.19v33.84l33.96,34.08h67.92ZM2274.66,2449.93v-67.92l79.17-22.65,11.28,22.68v33.96l-33.94,33.92h-56.51ZM2172.81,2257.59h79.16v101.75s-79.18,22.68-79.18,22.68l.02-124.42ZM2353.83,2359.37l-79.17-.03-22.68-67.79,45.36-33.96h67.79l33.96,67.92-45.26,33.87Z"/>
        <path class="cls-2" d="M2546.26,2376.4l-22.68,67.92h-79.19v-33.84l33.96-34.08h67.92ZM2546.26,2376.4v67.92l79.17,22.65,11.28-22.68v-33.96l-33.94-33.92h-56.51ZM2444.4,2568.74h79.16v-101.75s-79.18-22.68-79.18-22.68l.02,124.42ZM2625.43,2466.96l-79.17.03-22.68,67.79,45.36,33.96h67.79l33.96-67.92-45.26-33.87Z"/>
        <path class="cls-2" d="M2817.85,2449.93l-22.68-67.92h-79.19v33.84l33.96,34.08h67.92ZM2817.85,2449.93v-67.92l79.17-22.65,11.28,22.68v33.96l-33.94,33.92h-56.51ZM2716,2257.59h79.16v101.75s-79.18,22.68-79.18,22.68l.02-124.42ZM2897.03,2359.37l-79.17-.03-22.68-67.79,45.36-33.96h67.79l33.96,67.92-45.26,33.87Z"/>
        <path class="cls-2" d="M3089.45,2376.4l-22.68,67.92h-79.19v-33.84l33.96-34.08h67.92ZM3089.45,2376.4v67.92l79.17,22.65,11.28-22.68v-33.96l-33.94-33.92h-56.51ZM2987.6,2568.74h79.16v-101.75s-79.18-22.68-79.18-22.68l.02,124.42ZM3168.63,2466.96l-79.17.03-22.68,67.79,45.36,33.96h67.79l33.96-67.92-45.26-33.87Z"/>
        <path class="cls-2" d="M3361.05,2449.93l-22.68-67.92h-79.19v33.84l33.96,34.08h67.92ZM3361.05,2449.93v-67.92l79.17-22.65,11.28,22.68v33.96l-33.94,33.92h-56.51ZM3259.2,2257.59h79.16v101.75s-79.18,22.68-79.18,22.68l.02-124.42ZM3440.22,2359.37l-79.17-.03-22.68-67.79,45.36-33.96h67.79l33.96,67.92-45.26,33.87Z"/>
        <path class="cls-2" d="M3632.65,2376.4l-22.68,67.92h-79.19v-33.84l33.96-34.08h67.92ZM3632.65,2376.4v67.92l79.17,22.65,11.28-22.68v-33.96l-33.94-33.92h-56.51ZM3530.8,2568.74h79.16v-101.75s-79.18-22.68-79.18-22.68l.02,124.42ZM3711.82,2466.96l-79.17.03-22.68,67.79,45.36,33.96h67.79l33.96-67.92-45.26-33.87Z"/>
        <path class="cls-2" d="M3904.25,2449.93l-22.68-67.92h-79.19v33.84l33.96,34.08h67.92ZM3904.25,2449.93v-67.92l79.17-22.65,11.28,22.68v33.96l-33.94,33.92h-56.51ZM3802.39,2257.59h79.16v101.75s-79.18,22.68-79.18,22.68l.02-124.42ZM3983.42,2359.37l-79.17-.03-22.68-67.79,45.36-33.96h67.79l33.96,67.92-45.26,33.87Z"/>
        <path class="cls-2" d="M4175.85,2376.4l-22.68,67.92h-79.19v-33.84l33.96-34.08h67.92ZM4175.85,2376.4v67.92l79.17,22.65,11.28-22.68v-33.96l-33.94-33.92h-56.51ZM4073.99,2568.74h79.16v-101.75s-79.18-22.68-79.18-22.68l.02,124.42ZM4255.02,2466.96l-79.17.03-22.68,67.79,45.36,33.96h67.79l33.96-67.92-45.26-33.87Z"/>
        <path class="cls-2" d="M4447.44,2449.93l-22.68-67.92h-79.19v33.84l33.96,34.08h67.92ZM4447.44,2449.93v-67.92l79.17-22.65,11.28,22.68v33.96l-33.94,33.92h-56.51ZM4345.59,2257.59h79.16v101.75s-79.18,22.68-79.18,22.68l.02-124.42ZM4526.62,2359.37l-79.17-.03-22.68-67.79,45.36-33.96h67.79l33.96,67.92-45.26,33.87Z"/>
        <path class="cls-2" d="M4719.04,2376.4l-22.68,67.92h-79.19v-33.84l33.96-34.08h67.92ZM4719.04,2376.4v67.92l79.17,22.65,11.28-22.68v-33.96l-33.94-33.92h-56.51ZM4617.19,2568.74h79.16v-101.75s-79.18-22.68-79.18-22.68l.02,124.42ZM4798.21,2466.96l-79.17.03-22.68,67.79,45.36,33.96h67.79l33.96-67.92-45.26-33.87Z"/>
        <path class="cls-2" d="M101.87,2495.22l-22.68,67.92H0v-33.84l33.96-34.08h67.92ZM101.87,2495.22v67.92l79.17,22.65,11.28-22.68v-33.96l-33.94-33.92h-56.51ZM.02,2687.56h79.16v-101.75s-79.18-22.68-79.18-22.68l.02,124.42ZM181.05,2585.78l-79.17.03-22.68,67.79,45.36,33.96h67.79l33.96-67.92-45.26-33.87Z"/>
        <path class="cls-2" d="M373.47,2806.39l-22.68-67.92h-79.19v33.84l33.96,34.08h67.92ZM373.47,2806.39v-67.92l79.17-22.65,11.28,22.68v33.96l-33.94,33.92h-56.51ZM271.62,2614.05h79.16v101.75s-79.18,22.68-79.18,22.68l.02-124.42ZM452.64,2715.82l-79.17-.03-22.68-67.79,45.36-33.96h67.79l33.96,67.92-45.26,33.87Z"/>
        <path class="cls-2" d="M645.07,2495.22l-22.68,67.92h-79.19v-33.84l33.96-34.08h67.92ZM645.07,2495.22v67.92l79.17,22.65,11.28-22.68v-33.96l-33.94-33.92h-56.51ZM543.22,2687.56h79.16v-101.75s-79.18-22.68-79.18-22.68l.02,124.42ZM724.24,2585.78l-79.17.03-22.68,67.79,45.36,33.96h67.79l33.96-67.92-45.26-33.87Z"/>
        <path class="cls-2" d="M916.67,2806.39l-22.68-67.92h-79.19v33.84l33.96,34.08h67.92ZM916.67,2806.39v-67.92l79.17-22.65,11.28,22.68v33.96l-33.94,33.92h-56.51ZM814.82,2614.05h79.16v101.75s-79.18,22.68-79.18,22.68l.02-124.42ZM995.84,2715.82l-79.17-.03-22.68-67.79,45.36-33.96h67.79l33.96,67.92-45.26,33.87Z"/>
        <path class="cls-2" d="M1188.27,2495.22l-22.68,67.92h-79.19v-33.84l33.96-34.08h67.92ZM1188.27,2495.22v67.92l79.17,22.65,11.28-22.68v-33.96l-33.94-33.92h-56.51ZM1086.41,2687.56h79.16v-101.75s-79.18-22.68-79.18-22.68l.02,124.42ZM1267.44,2585.78l-79.17.03-22.68,67.79,45.36,33.96h67.79l33.96-67.92-45.26-33.87Z"/>
        <path class="cls-2" d="M1459.86,2806.39l-22.68-67.92h-79.19v33.84l33.96,34.08h67.92ZM1459.86,2806.39v-67.92l79.17-22.65,11.28,22.68v33.96l-33.94,33.92h-56.51ZM1358.01,2614.05h79.16v101.75s-79.18,22.68-79.18,22.68l.02-124.42ZM1539.04,2715.82l-79.17-.03-22.68-67.79,45.36-33.96h67.79l33.96,67.92-45.26,33.87Z"/>
        <path class="cls-2" d="M1731.46,2495.22l-22.68,67.92h-79.19v-33.84l33.96-34.08h67.92ZM1731.46,2495.22v67.92l79.17,22.65,11.28-22.68v-33.96l-33.94-33.92h-56.51ZM1629.61,2687.56h79.16v-101.75s-79.18-22.68-79.18-22.68l.02,124.42ZM1810.64,2585.78l-79.17.03-22.68,67.79,45.36,33.96h67.79l33.96-67.92-45.26-33.87Z"/>
        <path class="cls-2" d="M2003.06,2806.39l-22.68-67.92h-79.19v33.84l33.96,34.08h67.92ZM2003.06,2806.39v-67.92l79.17-22.65,11.28,22.68v33.96l-33.94,33.92h-56.51ZM1901.21,2614.05h79.16v101.75s-79.18,22.68-79.18,22.68l.02-124.42ZM2082.23,2715.82l-79.17-.03-22.68-67.79,45.36-33.96h67.79l33.96,67.92-45.26,33.87Z"/>
        <path class="cls-2" d="M2274.66,2495.22l-22.68,67.92h-79.19v-33.84l33.96-34.08h67.92ZM2274.66,2495.22v67.92l79.17,22.65,11.28-22.68v-33.96l-33.94-33.92h-56.51ZM2172.81,2687.56h79.16v-101.75s-79.18-22.68-79.18-22.68l.02,124.42ZM2353.83,2585.78l-79.17.03-22.68,67.79,45.36,33.96h67.79l33.96-67.92-45.26-33.87Z"/>
        <path class="cls-2" d="M2546.26,2806.39l-22.68-67.92h-79.19v33.84l33.96,34.08h67.92ZM2546.26,2806.39v-67.92l79.17-22.65,11.28,22.68v33.96l-33.94,33.92h-56.51ZM2444.4,2614.05h79.16v101.75s-79.18,22.68-79.18,22.68l.02-124.42ZM2625.43,2715.82l-79.17-.03-22.68-67.79,45.36-33.96h67.79l33.96,67.92-45.26,33.87Z"/>
        <path class="cls-2" d="M2817.85,2495.22l-22.68,67.92h-79.19v-33.84l33.96-34.08h67.92ZM2817.85,2495.22v67.92l79.17,22.65,11.28-22.68v-33.96l-33.94-33.92h-56.51ZM2716,2687.56h79.16v-101.75s-79.18-22.68-79.18-22.68l.02,124.42ZM2897.03,2585.78l-79.17.03-22.68,67.79,45.36,33.96h67.79l33.96-67.92-45.26-33.87Z"/>
        <path class="cls-2" d="M3089.45,2806.39l-22.68-67.92h-79.19v33.84l33.96,34.08h67.92ZM3089.45,2806.39v-67.92l79.17-22.65,11.28,22.68v33.96l-33.94,33.92h-56.51ZM2987.6,2614.05h79.16v101.75s-79.18,22.68-79.18,22.68l.02-124.42ZM3168.63,2715.82l-79.17-.03-22.68-67.79,45.36-33.96h67.79l33.96,67.92-45.26,33.87Z"/>
        <path class="cls-2" d="M3361.05,2495.22l-22.68,67.92h-79.19v-33.84l33.96-34.08h67.92ZM3361.05,2495.22v67.92l79.17,22.65,11.28-22.68v-33.96l-33.94-33.92h-56.51ZM3259.2,2687.56h79.16v-101.75s-79.18-22.68-79.18-22.68l.02,124.42ZM3440.22,2585.78l-79.17.03-22.68,67.79,45.36,33.96h67.79l33.96-67.92-45.26-33.87Z"/>
        <path class="cls-2" d="M3632.65,2806.39l-22.68-67.92h-79.19v33.84l33.96,34.08h67.92ZM3632.65,2806.39v-67.92l79.17-22.65,11.28,22.68v33.96l-33.94,33.92h-56.51ZM3530.8,2614.05h79.16v101.75s-79.18,22.68-79.18,22.68l.02-124.42ZM3711.82,2715.82l-79.17-.03-22.68-67.79,45.36-33.96h67.79l33.96,67.92-45.26,33.87Z"/>
        <path class="cls-2" d="M3904.25,2495.22l-22.68,67.92h-79.19v-33.84l33.96-34.08h67.92ZM3904.25,2495.22v67.92l79.17,22.65,11.28-22.68v-33.96l-33.94-33.92h-56.51ZM3802.39,2687.56h79.16v-101.75s-79.18-22.68-79.18-22.68l.02,124.42ZM3983.42,2585.78l-79.17.03-22.68,67.79,45.36,33.96h67.79l33.96-67.92-45.26-33.87Z"/>
        <path class="cls-2" d="M4175.85,2806.39l-22.68-67.92h-79.19v33.84l33.96,34.08h67.92ZM4175.85,2806.39v-67.92l79.17-22.65,11.28,22.68v33.96l-33.94,33.92h-56.51ZM4073.99,2614.05h79.16v101.75s-79.18,22.68-79.18,22.68l.02-124.42ZM4255.02,2715.82l-79.17-.03-22.68-67.79,45.36-33.96h67.79l33.96,67.92-45.26,33.87Z"/>
        <path class="cls-2" d="M4447.44,2495.22l-22.68,67.92h-79.19v-33.84l33.96-34.08h67.92ZM4447.44,2495.22v67.92l79.17,22.65,11.28-22.68v-33.96l-33.94-33.92h-56.51ZM4345.59,2687.56h79.16v-101.75s-79.18-22.68-79.18-22.68l.02,124.42ZM4526.62,2585.78l-79.17.03-22.68,67.79,45.36,33.96h67.79l33.96-67.92-45.26-33.87Z"/>
        <path class="cls-2" d="M4719.04,2806.39l-22.68-67.92h-79.19v33.84l33.96,34.08h67.92ZM4719.04,2806.39v-67.92l79.17-22.65,11.28,22.68v33.96l-33.94,33.92h-56.51ZM4617.19,2614.05h79.16v101.75s-79.18,22.68-79.18,22.68l.02-124.42ZM4798.21,2715.82l-79.17-.03-22.68-67.79,45.36-33.96h67.79l33.96,67.92-45.26,33.87Z"/>
        <path class="cls-2" d="M101.87,2925.21l-22.68-67.92H0v33.84l33.96,34.08h67.92ZM101.87,2925.21v-67.92l79.17-22.65,11.28,22.68v33.96l-33.94,33.92h-56.51ZM.02,2732.87h79.16v101.75s-79.18,22.68-79.18,22.68l.02-124.42ZM181.05,2834.64l-79.17-.03-22.68-67.79,45.36-33.96h67.79l33.96,67.92-45.26,33.87Z"/>
        <path class="cls-2" d="M373.47,2851.68l-22.68,67.92h-79.19v-33.84l33.96-34.08h67.92ZM373.47,2851.68v67.92l79.17,22.65,11.28-22.68v-33.96l-33.94-33.92h-56.51ZM271.62,3044.02h79.16v-101.75s-79.18-22.68-79.18-22.68l.02,124.42ZM452.64,2942.24l-79.17.03-22.68,67.79,45.36,33.96h67.79l33.96-67.92-45.26-33.87Z"/>
        <path class="cls-2" d="M645.07,2925.21l-22.68-67.92h-79.19v33.84l33.96,34.08h67.92ZM645.07,2925.21v-67.92l79.17-22.65,11.28,22.68v33.96l-33.94,33.92h-56.51ZM543.22,2732.87h79.16v101.75s-79.18,22.68-79.18,22.68l.02-124.42ZM724.24,2834.64l-79.17-.03-22.68-67.79,45.36-33.96h67.79l33.96,67.92-45.26,33.87Z"/>
        <path class="cls-2" d="M916.67,2851.68l-22.68,67.92h-79.19v-33.84l33.96-34.08h67.92ZM916.67,2851.68v67.92l79.17,22.65,11.28-22.68v-33.96l-33.94-33.92h-56.51ZM814.82,3044.02h79.16v-101.75s-79.18-22.68-79.18-22.68l.02,124.42ZM995.84,2942.24l-79.17.03-22.68,67.79,45.36,33.96h67.79l33.96-67.92-45.26-33.87Z"/>
        <path class="cls-2" d="M1188.27,2925.21l-22.68-67.92h-79.19v33.84l33.96,34.08h67.92ZM1188.27,2925.21v-67.92l79.17-22.65,11.28,22.68v33.96l-33.94,33.92h-56.51ZM1086.41,2732.87h79.16v101.75s-79.18,22.68-79.18,22.68l.02-124.42ZM1267.44,2834.64l-79.17-.03-22.68-67.79,45.36-33.96h67.79l33.96,67.92-45.26,33.87Z"/>
        <path class="cls-2" d="M1459.86,2851.68l-22.68,67.92h-79.19v-33.84l33.96-34.08h67.92ZM1459.86,2851.68v67.92l79.17,22.65,11.28-22.68v-33.96l-33.94-33.92h-56.51ZM1358.01,3044.02h79.16v-101.75s-79.18-22.68-79.18-22.68l.02,124.42ZM1539.04,2942.24l-79.17.03-22.68,67.79,45.36,33.96h67.79l33.96-67.92-45.26-33.87Z"/>
        <path class="cls-2" d="M1731.46,2925.21l-22.68-67.92h-79.19v33.84l33.96,34.08h67.92ZM1731.46,2925.21v-67.92l79.17-22.65,11.28,22.68v33.96l-33.94,33.92h-56.51ZM1629.61,2732.87h79.16v101.75s-79.18,22.68-79.18,22.68l.02-124.42ZM1810.64,2834.64l-79.17-.03-22.68-67.79,45.36-33.96h67.79l33.96,67.92-45.26,33.87Z"/>
        <path class="cls-2" d="M2003.06,2851.68l-22.68,67.92h-79.19v-33.84l33.96-34.08h67.92ZM2003.06,2851.68v67.92l79.17,22.65,11.28-22.68v-33.96l-33.94-33.92h-56.51ZM1901.21,3044.02h79.16v-101.75s-79.18-22.68-79.18-22.68l.02,124.42ZM2082.23,2942.24l-79.17.03-22.68,67.79,45.36,33.96h67.79l33.96-67.92-45.26-33.87Z"/>
        <path class="cls-2" d="M2274.66,2925.21l-22.68-67.92h-79.19v33.84l33.96,34.08h67.92ZM2274.66,2925.21v-67.92l79.17-22.65,11.28,22.68v33.96l-33.94,33.92h-56.51ZM2172.81,2732.87h79.16v101.75s-79.18,22.68-79.18,22.68l.02-124.42ZM2353.83,2834.64l-79.17-.03-22.68-67.79,45.36-33.96h67.79l33.96,67.92-45.26,33.87Z"/>
        <path class="cls-2" d="M2546.26,2851.68l-22.68,67.92h-79.19v-33.84l33.96-34.08h67.92ZM2546.26,2851.68v67.92l79.17,22.65,11.28-22.68v-33.96l-33.94-33.92h-56.51ZM2444.4,3044.02h79.16v-101.75s-79.18-22.68-79.18-22.68l.02,124.42ZM2625.43,2942.24l-79.17.03-22.68,67.79,45.36,33.96h67.79l33.96-67.92-45.26-33.87Z"/>
        <path class="cls-2" d="M2817.85,2925.21l-22.68-67.92h-79.19v33.84l33.96,34.08h67.92ZM2817.85,2925.21v-67.92l79.17-22.65,11.28,22.68v33.96l-33.94,33.92h-56.51ZM2716,2732.87h79.16v101.75s-79.18,22.68-79.18,22.68l.02-124.42ZM2897.03,2834.64l-79.17-.03-22.68-67.79,45.36-33.96h67.79l33.96,67.92-45.26,33.87Z"/>
        <path class="cls-2" d="M3089.45,2851.68l-22.68,67.92h-79.19v-33.84l33.96-34.08h67.92ZM3089.45,2851.68v67.92l79.17,22.65,11.28-22.68v-33.96l-33.94-33.92h-56.51ZM2987.6,3044.02h79.16v-101.75s-79.18-22.68-79.18-22.68l.02,124.42ZM3168.63,2942.24l-79.17.03-22.68,67.79,45.36,33.96h67.79l33.96-67.92-45.26-33.87Z"/>
        <path class="cls-2" d="M3361.05,2925.21l-22.68-67.92h-79.19v33.84l33.96,34.08h67.92ZM3361.05,2925.21v-67.92l79.17-22.65,11.28,22.68v33.96l-33.94,33.92h-56.51ZM3259.2,2732.87h79.16v101.75s-79.18,22.68-79.18,22.68l.02-124.42ZM3440.22,2834.64l-79.17-.03-22.68-67.79,45.36-33.96h67.79l33.96,67.92-45.26,33.87Z"/>
        <path class="cls-2" d="M3632.65,2851.68l-22.68,67.92h-79.19v-33.84l33.96-34.08h67.92ZM3632.65,2851.68v67.92l79.17,22.65,11.28-22.68v-33.96l-33.94-33.92h-56.51ZM3530.8,3044.02h79.16v-101.75s-79.18-22.68-79.18-22.68l.02,124.42ZM3711.82,2942.24l-79.17.03-22.68,67.79,45.36,33.96h67.79l33.96-67.92-45.26-33.87Z"/>
        <path class="cls-2" d="M3904.25,2925.21l-22.68-67.92h-79.19v33.84l33.96,34.08h67.92ZM3904.25,2925.21v-67.92l79.17-22.65,11.28,22.68v33.96l-33.94,33.92h-56.51ZM3802.39,2732.87h79.16v101.75s-79.18,22.68-79.18,22.68l.02-124.42ZM3983.42,2834.64l-79.17-.03-22.68-67.79,45.36-33.96h67.79l33.96,67.92-45.26,33.87Z"/>
        <path class="cls-2" d="M4175.85,2851.68l-22.68,67.92h-79.19v-33.84l33.96-34.08h67.92ZM4175.85,2851.68v67.92l79.17,22.65,11.28-22.68v-33.96l-33.94-33.92h-56.51ZM4073.99,3044.02h79.16v-101.75s-79.18-22.68-79.18-22.68l.02,124.42ZM4255.02,2942.24l-79.17.03-22.68,67.79,45.36,33.96h67.79l33.96-67.92-45.26-33.87Z"/>
        <path class="cls-2" d="M4447.44,2925.21l-22.68-67.92h-79.19v33.84l33.96,34.08h67.92ZM4447.44,2925.21v-67.92l79.17-22.65,11.28,22.68v33.96l-33.94,33.92h-56.51ZM4345.59,2732.87h79.16v101.75s-79.18,22.68-79.18,22.68l.02-124.42ZM4526.62,2834.64l-79.17-.03-22.68-67.79,45.36-33.96h67.79l33.96,67.92-45.26,33.87Z"/>
        <path class="cls-2" d="M4719.04,2851.68l-22.68,67.92h-79.19v-33.84l33.96-34.08h67.92ZM4719.04,2851.68v67.92l79.17,22.65,11.28-22.68v-33.96l-33.94-33.92h-56.51ZM4617.19,3044.02h79.16v-101.75s-79.18-22.68-79.18-22.68l.02,124.42ZM4798.21,2942.24l-79.17.03-22.68,67.79,45.36,33.96h67.79l33.96-67.92-45.26-33.87Z"/>
        <path class="cls-2" d="M101.87,2970.5l-22.68,67.92H0v-33.84l33.96-34.08h67.92ZM101.87,2970.5v67.92l79.17,22.65,11.28-22.68v-33.96l-33.94-33.92h-56.51ZM.02,3162.84h79.16v-101.75s-79.18-22.68-79.18-22.68l.02,124.42ZM181.05,3061.06l-79.17.03-22.68,67.79,45.36,33.96h67.79l33.96-67.92-45.26-33.87Z"/>
        <path class="cls-2" d="M373.47,3281.67l-22.68-67.92h-79.19v33.84l33.96,34.08h67.92ZM373.47,3281.67v-67.92l79.17-22.65,11.28,22.68v33.96l-33.94,33.92h-56.51ZM271.62,3089.33h79.16v101.75s-79.18,22.68-79.18,22.68l.02-124.42ZM452.64,3191.11l-79.17-.03-22.68-67.79,45.36-33.96h67.79l33.96,67.92-45.26,33.87Z"/>
        <path class="cls-2" d="M645.07,2970.5l-22.68,67.92h-79.19v-33.84l33.96-34.08h67.92ZM645.07,2970.5v67.92l79.17,22.65,11.28-22.68v-33.96l-33.94-33.92h-56.51ZM543.22,3162.84h79.16v-101.75s-79.18-22.68-79.18-22.68l.02,124.42ZM724.24,3061.06l-79.17.03-22.68,67.79,45.36,33.96h67.79l33.96-67.92-45.26-33.87Z"/>
        <path class="cls-2" d="M916.67,3281.67l-22.68-67.92h-79.19v33.84l33.96,34.08h67.92ZM916.67,3281.67v-67.92l79.17-22.65,11.28,22.68v33.96l-33.94,33.92h-56.51ZM814.82,3089.33h79.16v101.75s-79.18,22.68-79.18,22.68l.02-124.42ZM995.84,3191.11l-79.17-.03-22.68-67.79,45.36-33.96h67.79l33.96,67.92-45.26,33.87Z"/>
        <path class="cls-2" d="M1188.27,2970.5l-22.68,67.92h-79.19v-33.84l33.96-34.08h67.92ZM1188.27,2970.5v67.92l79.17,22.65,11.28-22.68v-33.96l-33.94-33.92h-56.51ZM1086.41,3162.84h79.16v-101.75s-79.18-22.68-79.18-22.68l.02,124.42ZM1267.44,3061.06l-79.17.03-22.68,67.79,45.36,33.96h67.79l33.96-67.92-45.26-33.87Z"/>
        <path class="cls-2" d="M1459.86,3281.67l-22.68-67.92h-79.19v33.84l33.96,34.08h67.92ZM1459.86,3281.67v-67.92l79.17-22.65,11.28,22.68v33.96l-33.94,33.92h-56.51ZM1358.01,3089.33h79.16v101.75s-79.18,22.68-79.18,22.68l.02-124.42ZM1539.04,3191.11l-79.17-.03-22.68-67.79,45.36-33.96h67.79l33.96,67.92-45.26,33.87Z"/>
        <path class="cls-2" d="M1731.46,2970.5l-22.68,67.92h-79.19v-33.84l33.96-34.08h67.92ZM1731.46,2970.5v67.92l79.17,22.65,11.28-22.68v-33.96l-33.94-33.92h-56.51ZM1629.61,3162.84h79.16v-101.75s-79.18-22.68-79.18-22.68l.02,124.42ZM1810.64,3061.06l-79.17.03-22.68,67.79,45.36,33.96h67.79l33.96-67.92-45.26-33.87Z"/>
        <path class="cls-2" d="M2003.06,3281.67l-22.68-67.92h-79.19v33.84l33.96,34.08h67.92ZM2003.06,3281.67v-67.92l79.17-22.65,11.28,22.68v33.96l-33.94,33.92h-56.51ZM1901.21,3089.33h79.16v101.75s-79.18,22.68-79.18,22.68l.02-124.42ZM2082.23,3191.11l-79.17-.03-22.68-67.79,45.36-33.96h67.79l33.96,67.92-45.26,33.87Z"/>
        <path class="cls-2" d="M2274.66,2970.5l-22.68,67.92h-79.19v-33.84l33.96-34.08h67.92ZM2274.66,2970.5v67.92l79.17,22.65,11.28-22.68v-33.96l-33.94-33.92h-56.51ZM2172.81,3162.84h79.16v-101.75s-79.18-22.68-79.18-22.68l.02,124.42ZM2353.83,3061.06l-79.17.03-22.68,67.79,45.36,33.96h67.79l33.96-67.92-45.26-33.87Z"/>
        <path class="cls-2" d="M2546.26,3281.67l-22.68-67.92h-79.19v33.84l33.96,34.08h67.92ZM2546.26,3281.67v-67.92l79.17-22.65,11.28,22.68v33.96l-33.94,33.92h-56.51ZM2444.4,3089.33h79.16v101.75s-79.18,22.68-79.18,22.68l.02-124.42ZM2625.43,3191.11l-79.17-.03-22.68-67.79,45.36-33.96h67.79l33.96,67.92-45.26,33.87Z"/>
        <path class="cls-2" d="M2817.85,2970.5l-22.68,67.92h-79.19v-33.84l33.96-34.08h67.92ZM2817.85,2970.5v67.92l79.17,22.65,11.28-22.68v-33.96l-33.94-33.92h-56.51ZM2716,3162.84h79.16v-101.75s-79.18-22.68-79.18-22.68l.02,124.42ZM2897.03,3061.06l-79.17.03-22.68,67.79,45.36,33.96h67.79l33.96-67.92-45.26-33.87Z"/>
        <path class="cls-2" d="M3089.45,3281.67l-22.68-67.92h-79.19v33.84l33.96,34.08h67.92ZM3089.45,3281.67v-67.92l79.17-22.65,11.28,22.68v33.96l-33.94,33.92h-56.51ZM2987.6,3089.33h79.16v101.75s-79.18,22.68-79.18,22.68l.02-124.42ZM3168.63,3191.11l-79.17-.03-22.68-67.79,45.36-33.96h67.79l33.96,67.92-45.26,33.87Z"/>
        <path class="cls-2" d="M3361.05,2970.5l-22.68,67.92h-79.19v-33.84l33.96-34.08h67.92ZM3361.05,2970.5v67.92l79.17,22.65,11.28-22.68v-33.96l-33.94-33.92h-56.51ZM3259.2,3162.84h79.16v-101.75s-79.18-22.68-79.18-22.68l.02,124.42ZM3440.22,3061.06l-79.17.03-22.68,67.79,45.36,33.96h67.79l33.96-67.92-45.26-33.87Z"/>
        <path class="cls-2" d="M3632.65,3281.67l-22.68-67.92h-79.19v33.84l33.96,34.08h67.92ZM3632.65,3281.67v-67.92l79.17-22.65,11.28,22.68v33.96l-33.94,33.92h-56.51ZM3530.8,3089.33h79.16v101.75s-79.18,22.68-79.18,22.68l.02-124.42ZM3711.82,3191.11l-79.17-.03-22.68-67.79,45.36-33.96h67.79l33.96,67.92-45.26,33.87Z"/>
        <path class="cls-2" d="M3904.25,2970.5l-22.68,67.92h-79.19v-33.84l33.96-34.08h67.92ZM3904.25,2970.5v67.92l79.17,22.65,11.28-22.68v-33.96l-33.94-33.92h-56.51ZM3802.39,3162.84h79.16v-101.75s-79.18-22.68-79.18-22.68l.02,124.42ZM3983.42,3061.06l-79.17.03-22.68,67.79,45.36,33.96h67.79l33.96-67.92-45.26-33.87Z"/>
        <path class="cls-2" d="M4175.85,3281.67l-22.68-67.92h-79.19v33.84l33.96,34.08h67.92ZM4175.85,3281.67v-67.92l79.17-22.65,11.28,22.68v33.96l-33.94,33.92h-56.51ZM4073.99,3089.33h79.16v101.75s-79.18,22.68-79.18,22.68l.02-124.42ZM4255.02,3191.11l-79.17-.03-22.68-67.79,45.36-33.96h67.79l33.96,67.92-45.26,33.87Z"/>
        <path class="cls-2" d="M4447.44,2970.5l-22.68,67.92h-79.19v-33.84l33.96-34.08h67.92ZM4447.44,2970.5v67.92l79.17,22.65,11.28-22.68v-33.96l-33.94-33.92h-56.51ZM4345.59,3162.84h79.16v-101.75s-79.18-22.68-79.18-22.68l.02,124.42ZM4526.62,3061.06l-79.17.03-22.68,67.79,45.36,33.96h67.79l33.96-67.92-45.26-33.87Z"/>
        <path class="cls-2" d="M4719.04,3281.67l-22.68-67.92h-79.19v33.84l33.96,34.08h67.92ZM4719.04,3281.67v-67.92l79.17-22.65,11.28,22.68v33.96l-33.94,33.92h-56.51ZM4617.19,3089.33h79.16v101.75s-79.18,22.68-79.18,22.68l.02-124.42ZM4798.21,3191.11l-79.17-.03-22.68-67.79,45.36-33.96h67.79l33.96,67.92-45.26,33.87Z"/>
      </g>
    </g>
  </g>
</svg>