<svg width="1400" height="842" viewBox="0 0 1400 842" fill="none" xmlns="http://www.w3.org/2000/svg">
<g clip-path="url(#clip0_1135_969)">
<mask id="mask0_1135_969" style="mask-type:luminance" maskUnits="userSpaceOnUse" x="0" y="-89" width="1400" height="1021">
<path d="M1400 -89H0V932H1400V-89Z" fill="white"/>
</mask>
<g mask="url(#mask0_1135_969)">
<path d="M40.8734 -10.166L40.9445 17.0884L72.6468 26.2661H40.8142L32.0281 53.6628L31.7437 26.3372L0 17.1358H31.7437L40.8734 -10.166Z" fill="#F0F1F0" fill-opacity="0.5"/>
<path d="M128.521 -10.166L128.592 17.0884L160.294 26.2661H128.462L119.676 53.6628L119.391 26.3372L87.6475 17.1358H119.397L128.521 -10.166Z" fill="#F0F1F0" fill-opacity="0.5"/>
<path d="M216.168 -10.166L216.245 17.0884L247.948 26.2661H216.109L207.323 53.6628L207.039 26.3372L175.295 17.1358H207.045L216.168 -10.166Z" fill="#F0F1F0" fill-opacity="0.5"/>
<path d="M303.817 -10.166L303.894 17.0884L335.596 26.2661H303.758L294.971 53.6628L294.687 26.3372L262.943 17.1358H294.693L303.817 -10.166Z" fill="#F0F1F0" fill-opacity="0.5"/>
<path d="M391.464 -10.166L391.541 17.0884L423.244 26.2661H391.405L382.619 53.6628L382.335 26.3372L350.591 17.1358H382.34L391.464 -10.166Z" fill="#F0F1F0" fill-opacity="0.5"/>
<path d="M479.112 -10.166L479.189 17.0884L510.891 26.2661H479.052L470.272 53.6628L469.982 26.3372L438.238 17.1358H469.988L479.112 -10.166Z" fill="#F0F1F0" fill-opacity="0.5"/>
<path d="M566.759 -10.166L566.836 17.0884L598.538 26.2661H566.7L557.92 53.6628L557.629 26.3372L525.886 17.1358H557.635L566.759 -10.166Z" fill="#F0F1F0" fill-opacity="0.5"/>
<path d="M654.408 -10.166L654.485 17.0884L686.187 26.2661H654.348L645.568 53.6628L645.278 26.3372L613.54 17.1358H645.284L654.408 -10.166Z" fill="#F0F1F0" fill-opacity="0.5"/>
<path d="M742.055 -10.166L742.132 17.0884L773.834 26.2661H741.996L733.216 53.6628L732.925 26.3372L701.188 17.1358H732.931L742.055 -10.166Z" fill="#F0F1F0" fill-opacity="0.5"/>
<path d="M829.702 -10.166L829.779 17.0884L861.482 26.2661H829.643L820.863 53.6628L820.573 26.3372L788.835 17.1358H820.579L829.702 -10.166Z" fill="#F0F1F0" fill-opacity="0.5"/>
<path d="M917.351 -10.166L917.428 17.0884L949.13 26.2661H917.298L908.511 53.6628L908.227 26.3372L876.483 17.1358H908.227L917.351 -10.166Z" fill="#F0F1F0" fill-opacity="0.5"/>
<path d="M1005 -10.166L1005.08 17.0884L1036.78 26.2661H1004.95L996.159 53.6628L995.875 26.3372L964.131 17.1358H995.875L1005 -10.166Z" fill="#F0F1F0" fill-opacity="0.5"/>
<path d="M1092.65 -10.166L1092.72 17.0884L1124.43 26.2661H1092.59L1083.81 53.6628L1083.52 26.3372L1051.78 17.1358H1083.52L1092.65 -10.166Z" fill="#F0F1F0" fill-opacity="0.5"/>
<path d="M1180.3 -10.166L1180.37 17.0884L1212.07 26.2661H1180.24L1171.45 53.6628L1171.17 26.3372L1139.43 17.1358H1171.17L1180.3 -10.166Z" fill="#F0F1F0" fill-opacity="0.5"/>
<path d="M1267.95 -10.166L1268.02 17.0884L1299.73 26.2661H1267.89L1259.1 53.6628L1258.82 26.3372L1227.07 17.1358H1258.82L1267.95 -10.166Z" fill="#F0F1F0" fill-opacity="0.5"/>
<path d="M1355.6 -10.166L1355.67 17.0884L1387.37 26.2661H1355.54L1346.75 53.6628L1346.47 26.3372L1314.72 17.1358H1346.47L1355.6 -10.166Z" fill="#F0F1F0" fill-opacity="0.5"/>
<path d="M-12.045 132.505L-12.122 105.25L-43.8242 96.0725H-11.9857L-3.20553 68.6758L-2.91523 96.0013L28.8226 105.209H-2.92115L-12.045 132.505Z" fill="#F0F1F0" fill-opacity="0.5"/>
<path d="M75.6025 132.505L75.5255 105.25L43.8232 96.0725H75.6618L84.4419 68.6758L84.7322 96.0013L116.47 105.209H84.7263L75.6025 132.505Z" fill="#F0F1F0" fill-opacity="0.5"/>
<path d="M163.251 132.505L163.174 105.25L131.472 96.0725H163.31L172.09 68.6758L172.381 96.0013L204.124 105.209H172.375L163.251 132.505Z" fill="#F0F1F0" fill-opacity="0.5"/>
<path d="M250.898 132.505L250.821 105.25L219.119 96.0725H250.958L259.738 68.6758L260.028 96.0013L291.772 105.209H260.022L250.898 132.505Z" fill="#F0F1F0" fill-opacity="0.5"/>
<path d="M338.546 132.505L338.469 105.25L306.767 96.0725H338.605L347.385 68.6758L347.676 96.0013L379.419 105.209H347.67L338.546 132.505Z" fill="#F0F1F0" fill-opacity="0.5"/>
<path d="M426.193 132.505L426.116 105.25L394.414 96.0725H426.253L435.039 68.6758L435.323 96.0013L467.067 105.209H435.317L426.193 132.505Z" fill="#F0F1F0" fill-opacity="0.5"/>
<path d="M513.842 132.505L513.765 105.25L482.062 96.0725H513.901L522.687 68.6758L522.971 96.0013L554.715 105.209H522.966L513.842 132.505Z" fill="#F0F1F0" fill-opacity="0.5"/>
<path d="M601.489 132.505L601.418 105.25L569.71 96.0725H601.548L610.335 68.6758L610.619 96.0013L642.363 105.209H610.613L601.489 132.505Z" fill="#F0F1F0" fill-opacity="0.5"/>
<path d="M689.137 132.505L689.065 105.25L657.363 96.0725H689.196L697.982 68.6758L698.266 96.0013L730.01 105.209H698.26L689.137 132.505Z" fill="#F0F1F0" fill-opacity="0.5"/>
<path d="M776.785 132.505L776.714 105.25L745.012 96.0725H776.844L785.63 68.6758L785.915 96.0013L817.659 105.209H785.915L776.785 132.505Z" fill="#F0F1F0" fill-opacity="0.5"/>
<path d="M864.433 132.505L864.361 105.25L832.659 96.0725H864.492L873.278 68.6758L873.562 96.0013L905.306 105.209H873.562L864.433 132.505Z" fill="#F0F1F0" fill-opacity="0.5"/>
<path d="M952.08 132.505L952.009 105.25L920.307 96.0725H952.139L960.925 68.6758L961.21 96.0013L992.953 105.209H961.21L952.08 132.505Z" fill="#F0F1F0" fill-opacity="0.5"/>
<path d="M1039.73 132.505L1039.66 105.25L1007.96 96.0725H1039.79L1048.57 68.6758L1048.86 96.0013L1080.6 105.209H1048.86L1039.73 132.505Z" fill="#F0F1F0" fill-opacity="0.5"/>
<path d="M1127.38 132.505L1127.3 105.25L1095.6 96.0725H1127.44L1136.22 68.6758L1136.51 96.0013L1168.25 105.209H1136.51L1127.38 132.505Z" fill="#F0F1F0" fill-opacity="0.5"/>
<path d="M1215.03 132.505L1214.95 105.25L1183.25 96.0725H1215.09L1223.87 68.6758L1224.16 96.0013L1255.9 105.209H1224.15L1215.03 132.505Z" fill="#F0F1F0" fill-opacity="0.5"/>
<path d="M1302.68 132.505L1302.6 105.25L1270.9 96.0725H1302.74L1311.52 68.6758L1311.81 96.0013L1343.55 105.209H1311.8L1302.68 132.505Z" fill="#F0F1F0" fill-opacity="0.5"/>
<path d="M1390.33 132.505L1390.25 105.25L1358.55 96.0725H1390.38L1399.16 68.6758L1399.45 96.0013L1431.2 105.209H1399.45L1390.33 132.505Z" fill="#F0F1F0" fill-opacity="0.5"/>
<path d="M40.8734 147.51L40.9445 174.764L72.6468 183.942H40.8142L32.0281 211.339L31.7437 184.013L0 174.812H31.7437L40.8734 147.51Z" fill="#F0F1F0" fill-opacity="0.5"/>
<path d="M128.521 147.51L128.592 174.764L160.294 183.942H128.462L119.676 211.339L119.391 184.013L87.6475 174.812H119.397L128.521 147.51Z" fill="#F0F1F0" fill-opacity="0.5"/>
<path d="M216.168 147.51L216.245 174.764L247.948 183.942H216.109L207.323 211.339L207.039 184.013L175.295 174.812H207.045L216.168 147.51Z" fill="#F0F1F0" fill-opacity="0.5"/>
<path d="M303.817 147.51L303.894 174.764L335.596 183.942H303.758L294.971 211.339L294.687 184.013L262.943 174.812H294.693L303.817 147.51Z" fill="#F0F1F0" fill-opacity="0.5"/>
<path d="M391.464 147.51L391.541 174.764L423.244 183.942H391.405L382.619 211.339L382.335 184.013L350.591 174.812H382.34L391.464 147.51Z" fill="#F0F1F0" fill-opacity="0.5"/>
<path d="M479.112 147.51L479.189 174.764L510.891 183.942H479.052L470.272 211.339L469.982 184.013L438.238 174.812H469.988L479.112 147.51Z" fill="#F0F1F0" fill-opacity="0.5"/>
<path d="M566.759 147.51L566.836 174.764L598.538 183.942H566.7L557.92 211.339L557.629 184.013L525.886 174.812H557.635L566.759 147.51Z" fill="#F0F1F0" fill-opacity="0.5"/>
<path d="M654.408 147.51L654.485 174.764L686.187 183.942H654.348L645.568 211.339L645.278 184.013L613.54 174.812H645.284L654.408 147.51Z" fill="#F0F1F0" fill-opacity="0.5"/>
<path d="M742.055 147.51L742.132 174.764L773.834 183.942H741.996L733.216 211.339L732.925 184.013L701.188 174.812H732.931L742.055 147.51Z" fill="#F0F1F0" fill-opacity="0.5"/>
<path d="M829.702 147.51L829.779 174.764L861.482 183.942H829.643L820.863 211.339L820.573 184.013L788.835 174.812H820.579L829.702 147.51Z" fill="#F0F1F0" fill-opacity="0.5"/>
<path d="M917.351 147.51L917.428 174.764L949.13 183.942H917.298L908.511 211.339L908.227 184.013L876.483 174.812H908.227L917.351 147.51Z" fill="#F0F1F0" fill-opacity="0.5"/>
<path d="M1005 147.51L1005.08 174.764L1036.78 183.942H1004.95L996.159 211.339L995.875 184.013L964.131 174.812H995.875L1005 147.51Z" fill="#F0F1F0" fill-opacity="0.5"/>
<path d="M1092.65 147.51L1092.72 174.764L1124.43 183.942H1092.59L1083.81 211.339L1083.52 184.013L1051.78 174.812H1083.52L1092.65 147.51Z" fill="#F0F1F0" fill-opacity="0.5"/>
<path d="M1180.3 147.51L1180.37 174.764L1212.07 183.942H1180.24L1171.45 211.339L1171.17 184.013L1139.43 174.812H1171.17L1180.3 147.51Z" fill="#F0F1F0" fill-opacity="0.5"/>
<path d="M1267.95 147.51L1268.02 174.764L1299.73 183.942H1267.89L1259.1 211.339L1258.82 184.013L1227.07 174.812H1258.82L1267.95 147.51Z" fill="#F0F1F0" fill-opacity="0.5"/>
<path d="M1355.6 147.51L1355.67 174.764L1387.37 183.942H1355.54L1346.75 211.339L1346.47 184.013L1314.72 174.812H1346.47L1355.6 147.51Z" fill="#F0F1F0" fill-opacity="0.5"/>
<path d="M-12.045 290.178L-12.122 262.924L-43.8242 253.746H-11.9857L-3.20553 226.35L-2.91523 253.675L28.8226 262.877H-2.92115L-12.045 290.178Z" fill="#F0F1F0" fill-opacity="0.5"/>
<path d="M75.6025 290.178L75.5255 262.924L43.8232 253.746H75.6618L84.4419 226.35L84.7322 253.675L116.47 262.877H84.7263L75.6025 290.178Z" fill="#F0F1F0" fill-opacity="0.5"/>
<path d="M163.251 290.178L163.174 262.924L131.472 253.746H163.31L172.09 226.35L172.381 253.675L204.124 262.877H172.375L163.251 290.178Z" fill="#F0F1F0" fill-opacity="0.5"/>
<path d="M250.898 290.178L250.821 262.924L219.119 253.746H250.958L259.738 226.35L260.028 253.675L291.772 262.877H260.022L250.898 290.178Z" fill="#F0F1F0" fill-opacity="0.5"/>
<path d="M338.546 290.178L338.469 262.924L306.767 253.746H338.605L347.385 226.35L347.676 253.675L379.419 262.877H347.67L338.546 290.178Z" fill="#F0F1F0" fill-opacity="0.5"/>
<path d="M426.193 290.178L426.116 262.924L394.414 253.746H426.253L435.039 226.35L435.323 253.675L467.067 262.877H435.317L426.193 290.178Z" fill="#F0F1F0" fill-opacity="0.5"/>
<path d="M513.842 290.178L513.765 262.924L482.062 253.746H513.901L522.687 226.35L522.971 253.675L554.715 262.877H522.966L513.842 290.178Z" fill="#F0F1F0" fill-opacity="0.5"/>
<path d="M601.489 290.178L601.418 262.924L569.71 253.746H601.548L610.335 226.35L610.619 253.675L642.363 262.877H610.613L601.489 290.178Z" fill="#F0F1F0" fill-opacity="0.5"/>
<path d="M689.137 290.178L689.065 262.924L657.363 253.746H689.196L697.982 226.35L698.266 253.675L730.01 262.877H698.26L689.137 290.178Z" fill="#F0F1F0" fill-opacity="0.5"/>
<path d="M776.785 290.178L776.714 262.924L745.012 253.746H776.844L785.63 226.35L785.915 253.675L817.659 262.877H785.915L776.785 290.178Z" fill="#F0F1F0" fill-opacity="0.5"/>
<path d="M864.433 290.178L864.361 262.924L832.659 253.746H864.492L873.278 226.35L873.562 253.675L905.306 262.877H873.562L864.433 290.178Z" fill="#F0F1F0" fill-opacity="0.5"/>
<path d="M952.08 290.178L952.009 262.924L920.307 253.746H952.139L960.925 226.35L961.21 253.675L992.953 262.877H961.21L952.08 290.178Z" fill="#F0F1F0" fill-opacity="0.5"/>
<path d="M1039.73 290.178L1039.66 262.924L1007.96 253.746H1039.79L1048.57 226.35L1048.86 253.675L1080.6 262.877H1048.86L1039.73 290.178Z" fill="#F0F1F0" fill-opacity="0.5"/>
<path d="M1127.38 290.178L1127.3 262.924L1095.6 253.746H1127.44L1136.22 226.35L1136.51 253.675L1168.25 262.877H1136.51L1127.38 290.178Z" fill="#F0F1F0" fill-opacity="0.5"/>
<path d="M1215.03 290.178L1214.95 262.924L1183.25 253.746H1215.09L1223.87 226.35L1224.16 253.675L1255.9 262.877H1224.15L1215.03 290.178Z" fill="#F0F1F0" fill-opacity="0.5"/>
<path d="M1302.68 290.178L1302.6 262.924L1270.9 253.746H1302.74L1311.52 226.35L1311.81 253.675L1343.55 262.877H1311.8L1302.68 290.178Z" fill="#F0F1F0" fill-opacity="0.5"/>
<path d="M1390.33 290.178L1390.25 262.924L1358.55 253.746H1390.38L1399.16 226.35L1399.45 253.675L1431.2 262.877H1399.45L1390.33 290.178Z" fill="#F0F1F0" fill-opacity="0.5"/>
<path d="M40.8734 305.184L40.9445 332.438L72.6468 341.616H40.8142L32.0281 369.012L31.7437 341.687L0 332.479H31.7437L40.8734 305.184Z" fill="#F0F1F0" fill-opacity="0.5"/>
<path d="M128.521 305.184L128.592 332.438L160.294 341.616H128.462L119.676 369.012L119.391 341.687L87.6475 332.479H119.397L128.521 305.184Z" fill="#F0F1F0" fill-opacity="0.5"/>
<path d="M216.168 305.184L216.245 332.438L247.948 341.616H216.109L207.323 369.012L207.039 341.687L175.295 332.479H207.045L216.168 305.184Z" fill="#F0F1F0" fill-opacity="0.5"/>
<path d="M303.817 305.184L303.894 332.438L335.596 341.616H303.758L294.971 369.012L294.687 341.687L262.943 332.479H294.693L303.817 305.184Z" fill="#F0F1F0" fill-opacity="0.5"/>
<path d="M391.464 305.184L391.541 332.438L423.244 341.616H391.405L382.619 369.012L382.335 341.687L350.591 332.479H382.34L391.464 305.184Z" fill="#F0F1F0" fill-opacity="0.5"/>
<path d="M479.112 305.184L479.189 332.438L510.891 341.616H479.052L470.272 369.012L469.982 341.687L438.238 332.479H469.988L479.112 305.184Z" fill="#F0F1F0" fill-opacity="0.5"/>
<path d="M566.759 305.184L566.836 332.438L598.538 341.616H566.7L557.92 369.012L557.629 341.687L525.886 332.479H557.635L566.759 305.184Z" fill="#F0F1F0" fill-opacity="0.5"/>
<path d="M654.408 305.184L654.485 332.438L686.187 341.616H654.348L645.568 369.012L645.278 341.687L613.54 332.479H645.284L654.408 305.184Z" fill="#F0F1F0" fill-opacity="0.5"/>
<path d="M742.055 305.184L742.132 332.438L773.834 341.616H741.996L733.216 369.012L732.925 341.687L701.188 332.479H732.931L742.055 305.184Z" fill="#F0F1F0" fill-opacity="0.5"/>
<path d="M829.702 305.184L829.779 332.438L861.482 341.616H829.643L820.863 369.012L820.573 341.687L788.835 332.479H820.579L829.702 305.184Z" fill="#F0F1F0" fill-opacity="0.5"/>
<path d="M917.351 305.184L917.428 332.438L949.13 341.616H917.298L908.511 369.012L908.227 341.687L876.483 332.479H908.227L917.351 305.184Z" fill="#F0F1F0" fill-opacity="0.5"/>
<path d="M1005 305.184L1005.08 332.438L1036.78 341.616H1004.95L996.159 369.012L995.875 341.687L964.131 332.479H995.875L1005 305.184Z" fill="#F0F1F0" fill-opacity="0.5"/>
<path d="M1092.65 305.184L1092.72 332.438L1124.43 341.616H1092.59L1083.81 369.012L1083.52 341.687L1051.78 332.479H1083.52L1092.65 305.184Z" fill="#F0F1F0" fill-opacity="0.5"/>
<path d="M1180.3 305.184L1180.37 332.438L1212.07 341.616H1180.24L1171.45 369.012L1171.17 341.687L1139.43 332.479H1171.17L1180.3 305.184Z" fill="#F0F1F0" fill-opacity="0.5"/>
<path d="M1267.95 305.184L1268.02 332.438L1299.73 341.616H1267.89L1259.1 369.012L1258.82 341.687L1227.07 332.479H1258.82L1267.95 305.184Z" fill="#F0F1F0" fill-opacity="0.5"/>
<path d="M1355.6 305.184L1355.67 332.438L1387.37 341.616H1355.54L1346.75 369.012L1346.47 341.687L1314.72 332.479H1346.47L1355.6 305.184Z" fill="#F0F1F0" fill-opacity="0.5"/>
<path d="M-12.045 447.846L-12.122 420.598L-43.8242 411.42H-11.9857L-3.20553 384.023L-2.91523 411.349L28.8226 420.55H-2.92115L-12.045 447.846Z" fill="#F0F1F0" fill-opacity="0.5"/>
<path d="M75.6025 447.846L75.5255 420.598L43.8232 411.42H75.6618L84.4419 384.023L84.7322 411.349L116.47 420.55H84.7263L75.6025 447.846Z" fill="#F0F1F0" fill-opacity="0.5"/>
<path d="M163.251 447.846L163.174 420.598L131.472 411.42H163.31L172.09 384.023L172.381 411.349L204.124 420.55H172.375L163.251 447.846Z" fill="#F0F1F0" fill-opacity="0.5"/>
<path d="M250.898 447.846L250.821 420.598L219.119 411.42H250.958L259.738 384.023L260.028 411.349L291.772 420.55H260.022L250.898 447.846Z" fill="#F0F1F0" fill-opacity="0.5"/>
<path d="M338.546 447.846L338.469 420.598L306.767 411.42H338.605L347.385 384.023L347.676 411.349L379.419 420.55H347.67L338.546 447.846Z" fill="#F0F1F0" fill-opacity="0.5"/>
<path d="M426.193 447.846L426.116 420.598L394.414 411.42H426.253L435.039 384.023L435.323 411.349L467.067 420.55H435.317L426.193 447.846Z" fill="#F0F1F0" fill-opacity="0.5"/>
<path d="M513.842 447.846L513.765 420.598L482.062 411.42H513.901L522.687 384.023L522.971 411.349L554.715 420.55H522.966L513.842 447.846Z" fill="#F0F1F0" fill-opacity="0.5"/>
<path d="M601.489 447.846L601.418 420.598L569.71 411.42H601.548L610.335 384.023L610.619 411.349L642.363 420.55H610.613L601.489 447.846Z" fill="#F0F1F0" fill-opacity="0.5"/>
<path d="M689.137 447.846L689.065 420.598L657.363 411.42H689.196L697.982 384.023L698.266 411.349L730.01 420.55H698.26L689.137 447.846Z" fill="#F0F1F0" fill-opacity="0.5"/>
<path d="M776.785 447.846L776.714 420.598L745.012 411.42H776.844L785.63 384.023L785.915 411.349L817.659 420.55H785.915L776.785 447.846Z" fill="#F0F1F0" fill-opacity="0.5"/>
<path d="M864.433 447.846L864.361 420.598L832.659 411.42H864.492L873.278 384.023L873.562 411.349L905.306 420.55H873.562L864.433 447.846Z" fill="#F0F1F0" fill-opacity="0.5"/>
<path d="M952.08 447.846L952.009 420.598L920.307 411.42H952.139L960.925 384.023L961.21 411.349L992.953 420.55H961.21L952.08 447.846Z" fill="#F0F1F0" fill-opacity="0.5"/>
<path d="M1039.73 447.846L1039.66 420.598L1007.96 411.42H1039.79L1048.57 384.023L1048.86 411.349L1080.6 420.55H1048.86L1039.73 447.846Z" fill="#F0F1F0" fill-opacity="0.5"/>
<path d="M1127.38 447.846L1127.3 420.598L1095.6 411.42H1127.44L1136.22 384.023L1136.51 411.349L1168.25 420.55H1136.51L1127.38 447.846Z" fill="#F0F1F0" fill-opacity="0.5"/>
<path d="M1215.03 447.846L1214.95 420.598L1183.25 411.42H1215.09L1223.87 384.023L1224.16 411.349L1255.9 420.55H1224.15L1215.03 447.846Z" fill="#F0F1F0" fill-opacity="0.5"/>
<path d="M1302.68 447.846L1302.6 420.598L1270.9 411.42H1302.74L1311.52 384.023L1311.81 411.349L1343.55 420.55H1311.8L1302.68 447.846Z" fill="#F0F1F0" fill-opacity="0.5"/>
<path d="M1390.33 447.846L1390.25 420.598L1358.55 411.42H1390.38L1399.16 384.023L1399.45 411.349L1431.2 420.55H1399.45L1390.33 447.846Z" fill="#F0F1F0" fill-opacity="0.5"/>
<path d="M40.8734 462.859L40.9445 490.114L72.6468 499.286H40.8142L32.0281 526.688L31.7437 499.363L0 490.155H31.7437L40.8734 462.859Z" fill="#F0F1F0" fill-opacity="0.5"/>
<path d="M128.521 462.859L128.592 490.114L160.294 499.286H128.462L119.676 526.688L119.391 499.363L87.6475 490.155H119.397L128.521 462.859Z" fill="#F0F1F0" fill-opacity="0.5"/>
<path d="M216.168 462.859L216.245 490.114L247.948 499.286H216.109L207.323 526.688L207.039 499.363L175.295 490.155H207.045L216.168 462.859Z" fill="#F0F1F0" fill-opacity="0.5"/>
<path d="M303.817 462.859L303.894 490.114L335.596 499.286H303.758L294.971 526.688L294.687 499.363L262.943 490.155H294.693L303.817 462.859Z" fill="#F0F1F0" fill-opacity="0.5"/>
<path d="M391.464 462.859L391.541 490.114L423.244 499.286H391.405L382.619 526.688L382.335 499.363L350.591 490.155H382.34L391.464 462.859Z" fill="#F0F1F0" fill-opacity="0.5"/>
<path d="M479.112 462.859L479.189 490.114L510.891 499.286H479.052L470.272 526.688L469.982 499.363L438.238 490.155H469.988L479.112 462.859Z" fill="#F0F1F0" fill-opacity="0.5"/>
<path d="M566.759 462.859L566.836 490.114L598.538 499.286H566.7L557.92 526.688L557.629 499.363L525.886 490.155H557.635L566.759 462.859Z" fill="#F0F1F0" fill-opacity="0.5"/>
<path d="M654.408 462.859L654.485 490.114L686.187 499.286H654.348L645.568 526.688L645.278 499.363L613.54 490.155H645.284L654.408 462.859Z" fill="#F0F1F0" fill-opacity="0.5"/>
<path d="M742.055 462.859L742.132 490.114L773.834 499.286H741.996L733.216 526.688L732.925 499.363L701.188 490.155H732.931L742.055 462.859Z" fill="#F0F1F0" fill-opacity="0.5"/>
<path d="M829.702 462.859L829.779 490.114L861.482 499.286H829.643L820.863 526.688L820.573 499.363L788.835 490.155H820.579L829.702 462.859Z" fill="#F0F1F0" fill-opacity="0.5"/>
<path d="M917.351 462.859L917.428 490.114L949.13 499.286H917.298L908.511 526.688L908.227 499.363L876.483 490.155H908.227L917.351 462.859Z" fill="#F0F1F0" fill-opacity="0.5"/>
<path d="M1005 462.859L1005.08 490.114L1036.78 499.286H1004.95L996.159 526.688L995.875 499.363L964.131 490.155H995.875L1005 462.859Z" fill="#F0F1F0" fill-opacity="0.5"/>
<path d="M1092.65 462.859L1092.72 490.114L1124.43 499.286H1092.59L1083.81 526.688L1083.52 499.363L1051.78 490.155H1083.52L1092.65 462.859Z" fill="#F0F1F0" fill-opacity="0.5"/>
<path d="M1180.3 462.859L1180.37 490.114L1212.07 499.286H1180.24L1171.45 526.688L1171.17 499.363L1139.43 490.155H1171.17L1180.3 462.859Z" fill="#F0F1F0" fill-opacity="0.5"/>
<path d="M1267.95 462.859L1268.02 490.114L1299.73 499.286H1267.89L1259.1 526.688L1258.82 499.363L1227.07 490.155H1258.82L1267.95 462.859Z" fill="#F0F1F0" fill-opacity="0.5"/>
<path d="M1355.6 462.859L1355.67 490.114L1387.37 499.286H1355.54L1346.75 526.688L1346.47 499.363L1314.72 490.155H1346.47L1355.6 462.859Z" fill="#F0F1F0" fill-opacity="0.5"/>
<path d="M-12.045 605.522L-12.122 578.274L-43.8242 569.096H-11.9857L-3.20553 541.699L-2.91523 569.025L28.8226 578.226H-2.92115L-12.045 605.522Z" fill="#F0F1F0" fill-opacity="0.5"/>
<path d="M75.6025 605.522L75.5255 578.274L43.8232 569.096H75.6618L84.4419 541.699L84.7322 569.025L116.47 578.226H84.7263L75.6025 605.522Z" fill="#F0F1F0" fill-opacity="0.5"/>
<path d="M163.251 605.522L163.174 578.274L131.472 569.096H163.31L172.09 541.699L172.381 569.025L204.124 578.226H172.375L163.251 605.522Z" fill="#F0F1F0" fill-opacity="0.5"/>
<path d="M250.898 605.522L250.821 578.274L219.119 569.096H250.958L259.738 541.699L260.028 569.025L291.772 578.226H260.022L250.898 605.522Z" fill="#F0F1F0" fill-opacity="0.5"/>
<path d="M338.546 605.522L338.469 578.274L306.767 569.096H338.605L347.385 541.699L347.676 569.025L379.419 578.226H347.67L338.546 605.522Z" fill="#F0F1F0" fill-opacity="0.5"/>
<path d="M426.193 605.522L426.116 578.274L394.414 569.096H426.253L435.039 541.699L435.323 569.025L467.067 578.226H435.317L426.193 605.522Z" fill="#F0F1F0" fill-opacity="0.5"/>
<path d="M513.842 605.522L513.765 578.274L482.062 569.096H513.901L522.687 541.699L522.971 569.025L554.715 578.226H522.966L513.842 605.522Z" fill="#F0F1F0" fill-opacity="0.5"/>
<path d="M601.489 605.522L601.418 578.274L569.71 569.096H601.548L610.335 541.699L610.619 569.025L642.363 578.226H610.613L601.489 605.522Z" fill="#F0F1F0" fill-opacity="0.5"/>
<path d="M689.137 605.522L689.065 578.274L657.363 569.096H689.196L697.982 541.699L698.266 569.025L730.01 578.226H698.26L689.137 605.522Z" fill="#F0F1F0" fill-opacity="0.5"/>
<path d="M776.785 605.522L776.714 578.274L745.012 569.096H776.844L785.63 541.699L785.915 569.025L817.659 578.226H785.915L776.785 605.522Z" fill="#F0F1F0" fill-opacity="0.5"/>
<path d="M864.433 605.522L864.361 578.274L832.659 569.096H864.492L873.278 541.699L873.562 569.025L905.306 578.226H873.562L864.433 605.522Z" fill="#F0F1F0" fill-opacity="0.5"/>
<path d="M952.08 605.522L952.009 578.274L920.307 569.096H952.139L960.925 541.699L961.21 569.025L992.953 578.226H961.21L952.08 605.522Z" fill="#F0F1F0" fill-opacity="0.5"/>
<path d="M1039.73 605.522L1039.66 578.274L1007.96 569.096H1039.79L1048.57 541.699L1048.86 569.025L1080.6 578.226H1048.86L1039.73 605.522Z" fill="#F0F1F0" fill-opacity="0.5"/>
<path d="M1127.38 605.522L1127.3 578.274L1095.6 569.096H1127.44L1136.22 541.699L1136.51 569.025L1168.25 578.226H1136.51L1127.38 605.522Z" fill="#F0F1F0" fill-opacity="0.5"/>
<path d="M1215.03 605.522L1214.95 578.274L1183.25 569.096H1215.09L1223.87 541.699L1224.16 569.025L1255.9 578.226H1224.15L1215.03 605.522Z" fill="#F0F1F0" fill-opacity="0.5"/>
<path d="M1302.68 605.522L1302.6 578.274L1270.9 569.096H1302.74L1311.52 541.699L1311.81 569.025L1343.55 578.226H1311.8L1302.68 605.522Z" fill="#F0F1F0" fill-opacity="0.5"/>
<path d="M1390.33 605.522L1390.25 578.274L1358.55 569.096H1390.38L1399.16 541.699L1399.45 569.025L1431.2 578.226H1399.45L1390.33 605.522Z" fill="#F0F1F0" fill-opacity="0.5"/>
<path d="M40.8734 620.533L40.9445 647.788L72.6468 656.965H40.8142L32.0281 684.362L31.7437 657.036L0 647.829H31.7437L40.8734 620.533Z" fill="#F0F1F0" fill-opacity="0.5"/>
<path d="M128.521 620.533L128.592 647.788L160.294 656.965H128.462L119.676 684.362L119.391 657.036L87.6475 647.829H119.397L128.521 620.533Z" fill="#F0F1F0" fill-opacity="0.5"/>
<path d="M216.168 620.533L216.245 647.788L247.948 656.965H216.109L207.323 684.362L207.039 657.036L175.295 647.829H207.045L216.168 620.533Z" fill="#F0F1F0" fill-opacity="0.5"/>
<path d="M303.817 620.533L303.894 647.788L335.596 656.965H303.758L294.971 684.362L294.687 657.036L262.943 647.829H294.693L303.817 620.533Z" fill="#F0F1F0" fill-opacity="0.5"/>
<path d="M391.464 620.533L391.541 647.788L423.244 656.965H391.405L382.619 684.362L382.335 657.036L350.591 647.829H382.34L391.464 620.533Z" fill="#F0F1F0" fill-opacity="0.5"/>
<path d="M479.112 620.533L479.189 647.788L510.891 656.965H479.052L470.272 684.362L469.982 657.036L438.238 647.829H469.988L479.112 620.533Z" fill="#F0F1F0" fill-opacity="0.5"/>
<path d="M566.759 620.533L566.836 647.788L598.538 656.965H566.7L557.92 684.362L557.629 657.036L525.886 647.829H557.635L566.759 620.533Z" fill="#F0F1F0" fill-opacity="0.5"/>
<path d="M654.408 620.533L654.485 647.788L686.187 656.965H654.348L645.568 684.362L645.278 657.036L613.54 647.829H645.284L654.408 620.533Z" fill="#F0F1F0" fill-opacity="0.5"/>
<path d="M742.055 620.533L742.132 647.788L773.834 656.965H741.996L733.216 684.362L732.925 657.036L701.188 647.829H732.931L742.055 620.533Z" fill="#F0F1F0" fill-opacity="0.5"/>
<path d="M829.702 620.533L829.779 647.788L861.482 656.965H829.643L820.863 684.362L820.573 657.036L788.835 647.829H820.579L829.702 620.533Z" fill="#F0F1F0" fill-opacity="0.5"/>
<path d="M917.351 620.533L917.428 647.788L949.13 656.965H917.298L908.511 684.362L908.227 657.036L876.483 647.829H908.227L917.351 620.533Z" fill="#F0F1F0" fill-opacity="0.5"/>
<path d="M1005 620.533L1005.08 647.788L1036.78 656.965H1004.95L996.159 684.362L995.875 657.036L964.131 647.829H995.875L1005 620.533Z" fill="#F0F1F0" fill-opacity="0.5"/>
<path d="M1092.65 620.533L1092.72 647.788L1124.43 656.965H1092.59L1083.81 684.362L1083.52 657.036L1051.78 647.829H1083.52L1092.65 620.533Z" fill="#F0F1F0" fill-opacity="0.5"/>
<path d="M1180.3 620.533L1180.37 647.788L1212.07 656.965H1180.24L1171.45 684.362L1171.17 657.036L1139.43 647.829H1171.17L1180.3 620.533Z" fill="#F0F1F0" fill-opacity="0.5"/>
<path d="M1267.95 620.533L1268.02 647.788L1299.73 656.965H1267.89L1259.1 684.362L1258.82 657.036L1227.07 647.829H1258.82L1267.95 620.533Z" fill="#F0F1F0" fill-opacity="0.5"/>
<path d="M1355.6 620.533L1355.67 647.788L1387.37 656.965H1355.54L1346.75 684.362L1346.47 657.036L1314.72 647.829H1346.47L1355.6 620.533Z" fill="#F0F1F0" fill-opacity="0.5"/>
<path d="M-12.045 763.196L-12.122 735.947L-43.8242 726.77H-11.9857L-3.20553 699.367L-2.91523 726.693L28.8226 735.9H-2.92115L-12.045 763.196Z" fill="#F0F1F0" fill-opacity="0.5"/>
<path d="M75.6025 763.196L75.5255 735.947L43.8232 726.77H75.6618L84.4419 699.367L84.7322 726.693L116.47 735.9H84.7263L75.6025 763.196Z" fill="#F0F1F0" fill-opacity="0.5"/>
<path d="M163.251 763.196L163.174 735.947L131.472 726.77H163.31L172.09 699.367L172.381 726.693L204.124 735.9H172.375L163.251 763.196Z" fill="#F0F1F0" fill-opacity="0.5"/>
<path d="M250.898 763.196L250.821 735.947L219.119 726.77H250.958L259.738 699.367L260.028 726.693L291.772 735.9H260.022L250.898 763.196Z" fill="#F0F1F0" fill-opacity="0.5"/>
<path d="M338.546 763.196L338.469 735.947L306.767 726.77H338.605L347.385 699.367L347.676 726.693L379.419 735.9H347.67L338.546 763.196Z" fill="#F0F1F0" fill-opacity="0.5"/>
<path d="M426.193 763.196L426.116 735.947L394.414 726.77H426.253L435.039 699.367L435.323 726.693L467.067 735.9H435.317L426.193 763.196Z" fill="#F0F1F0" fill-opacity="0.5"/>
<path d="M513.842 763.196L513.765 735.947L482.062 726.77H513.901L522.687 699.367L522.971 726.693L554.715 735.9H522.966L513.842 763.196Z" fill="#F0F1F0" fill-opacity="0.5"/>
<path d="M601.489 763.196L601.418 735.947L569.71 726.77H601.548L610.335 699.367L610.619 726.693L642.363 735.9H610.613L601.489 763.196Z" fill="#F0F1F0" fill-opacity="0.5"/>
<path d="M689.137 763.196L689.065 735.947L657.363 726.77H689.196L697.982 699.367L698.266 726.693L730.01 735.9H698.26L689.137 763.196Z" fill="#F0F1F0" fill-opacity="0.5"/>
<path d="M776.785 763.196L776.714 735.947L745.012 726.77H776.844L785.63 699.367L785.915 726.693L817.659 735.9H785.915L776.785 763.196Z" fill="#F0F1F0" fill-opacity="0.5"/>
<path d="M864.433 763.196L864.361 735.947L832.659 726.77H864.492L873.278 699.367L873.562 726.693L905.306 735.9H873.562L864.433 763.196Z" fill="#F0F1F0" fill-opacity="0.5"/>
<path d="M952.08 763.196L952.009 735.947L920.307 726.77H952.139L960.925 699.367L961.21 726.693L992.953 735.9H961.21L952.08 763.196Z" fill="#F0F1F0" fill-opacity="0.5"/>
<path d="M1039.73 763.196L1039.66 735.947L1007.96 726.77H1039.79L1048.57 699.367L1048.86 726.693L1080.6 735.9H1048.86L1039.73 763.196Z" fill="#F0F1F0" fill-opacity="0.5"/>
<path d="M1127.38 763.196L1127.3 735.947L1095.6 726.77H1127.44L1136.22 699.367L1136.51 726.693L1168.25 735.9H1136.51L1127.38 763.196Z" fill="#F0F1F0" fill-opacity="0.5"/>
<path d="M1215.03 763.196L1214.95 735.947L1183.25 726.77H1215.09L1223.87 699.367L1224.16 726.693L1255.9 735.9H1224.15L1215.03 763.196Z" fill="#F0F1F0" fill-opacity="0.5"/>
<path d="M1302.68 763.196L1302.6 735.947L1270.9 726.77H1302.74L1311.52 699.367L1311.81 726.693L1343.55 735.9H1311.8L1302.68 763.196Z" fill="#F0F1F0" fill-opacity="0.5"/>
<path d="M1390.33 763.196L1390.25 735.947L1358.55 726.77H1390.38L1399.16 699.367L1399.45 726.693L1431.2 735.9H1399.45L1390.33 763.196Z" fill="#F0F1F0" fill-opacity="0.5"/>
<path d="M40.8734 778.209L40.9445 805.463L72.6468 814.635H40.8142L32.0281 842.038L31.7437 814.712L0 805.505H31.7437L40.8734 778.209Z" fill="#F0F1F0" fill-opacity="0.5"/>
<path d="M128.521 778.209L128.592 805.463L160.294 814.635H128.462L119.676 842.038L119.391 814.712L87.6475 805.505H119.397L128.521 778.209Z" fill="#F0F1F0" fill-opacity="0.5"/>
<path d="M216.168 778.209L216.245 805.463L247.948 814.635H216.109L207.323 842.038L207.039 814.712L175.295 805.505H207.045L216.168 778.209Z" fill="#F0F1F0" fill-opacity="0.5"/>
<path d="M303.817 778.209L303.894 805.463L335.596 814.635H303.758L294.971 842.038L294.687 814.712L262.943 805.505H294.693L303.817 778.209Z" fill="#F0F1F0" fill-opacity="0.5"/>
<path d="M391.464 778.209L391.541 805.463L423.244 814.635H391.405L382.619 842.038L382.335 814.712L350.591 805.505H382.34L391.464 778.209Z" fill="#F0F1F0" fill-opacity="0.5"/>
<path d="M479.112 778.209L479.189 805.463L510.891 814.635H479.052L470.272 842.038L469.982 814.712L438.238 805.505H469.988L479.112 778.209Z" fill="#F0F1F0" fill-opacity="0.5"/>
<path d="M566.759 778.209L566.836 805.463L598.538 814.635H566.7L557.92 842.038L557.629 814.712L525.886 805.505H557.635L566.759 778.209Z" fill="#F0F1F0" fill-opacity="0.5"/>
<path d="M654.408 778.209L654.485 805.463L686.187 814.635H654.348L645.568 842.038L645.278 814.712L613.54 805.505H645.284L654.408 778.209Z" fill="#F0F1F0" fill-opacity="0.5"/>
<path d="M742.055 778.209L742.132 805.463L773.834 814.635H741.996L733.216 842.038L732.925 814.712L701.188 805.505H732.931L742.055 778.209Z" fill="#F0F1F0" fill-opacity="0.5"/>
<path d="M829.702 778.209L829.779 805.463L861.482 814.635H829.643L820.863 842.038L820.573 814.712L788.835 805.505H820.579L829.702 778.209Z" fill="#F0F1F0" fill-opacity="0.5"/>
<path d="M917.351 778.209L917.428 805.463L949.13 814.635H917.298L908.511 842.038L908.227 814.712L876.483 805.505H908.227L917.351 778.209Z" fill="#F0F1F0" fill-opacity="0.5"/>
<path d="M1005 778.209L1005.08 805.463L1036.78 814.635H1004.95L996.159 842.038L995.875 814.712L964.131 805.505H995.875L1005 778.209Z" fill="#F0F1F0" fill-opacity="0.5"/>
<path d="M1092.65 778.209L1092.72 805.463L1124.43 814.635H1092.59L1083.81 842.038L1083.52 814.712L1051.78 805.505H1083.52L1092.65 778.209Z" fill="#F0F1F0" fill-opacity="0.5"/>
<path d="M1180.3 778.209L1180.37 805.463L1212.07 814.635H1180.24L1171.45 842.038L1171.17 814.712L1139.43 805.505H1171.17L1180.3 778.209Z" fill="#F0F1F0" fill-opacity="0.5"/>
<path d="M1267.95 778.209L1268.02 805.463L1299.73 814.635H1267.89L1259.1 842.038L1258.82 814.712L1227.07 805.505H1258.82L1267.95 778.209Z" fill="#F0F1F0" fill-opacity="0.5"/>
<path d="M1355.6 778.209L1355.67 805.463L1387.37 814.635H1355.54L1346.75 842.038L1346.47 814.712L1314.72 805.505H1346.47L1355.6 778.209Z" fill="#F0F1F0" fill-opacity="0.5"/>
</g>
</g>
<defs>
<clipPath id="clip0_1135_969">
<rect width="1400" height="1021" fill="white" transform="translate(0 -89)"/>
</clipPath>
</defs>
</svg>
