<svg width="643" height="575" viewBox="0 0 643 575" fill="none" xmlns="http://www.w3.org/2000/svg">
<path d="M449.984 3H228.326L146.498 84.8282L267.558 154.722L323.444 57.924L372.142 142.272L327.974 167.772L479.8 188.565L534.331 46.365L489.848 72.0473L449.984 3Z" stroke="#2A3A74" stroke-width="6"/>
<path d="M490.882 501.109L601.711 309.148L571.76 197.369L450.7 267.263L506.587 364.061L409.19 364.061L409.19 313.06L315.271 434.148L411.153 552.474L411.153 501.109L490.882 501.109Z" stroke="#2A3A74" stroke-width="6"/>
<path d="M42.1742 283.385L153.003 475.346L264.782 505.297L264.782 365.509L153.01 365.509L201.708 281.162L245.876 306.662L187.97 164.781L37.5556 188.655L82.0386 214.337L42.1742 283.385Z" stroke="#2A3A74" stroke-width="6"/>
</svg>
