<?xml version="1.0" encoding="UTF-8"?>
<svg id="Layer_2" data-name="Layer 2" xmlns="http://www.w3.org/2000/svg" viewBox="0 0 1503.75 243">
  <defs>
    <style>
      .cls-1 {
        fill: #f1f1f0;
      }

      .cls-2 {
        fill: #425ba9;
      }
    </style>
  </defs>
  <g id="Layer_1-2" data-name="Layer 1">
    <g>
      <path class="cls-1" d="M351.66,181.92V60.31h110.49l28.14,24.15v35.44l-25.19,21.54,29.19,31.27v9.21h-31.79l-33.18-37.18h-46.73v37.18h-30.92ZM382.59,119.03h64.97l11.81-9.9v-13.2l-11.81-9.9h-64.97v33.01Z"/>
      <path class="cls-1" d="M524,181.92V60.31h131.86v25.71h-100.93v22.93h76.61v23.45h-76.61v23.8h103.02v25.71h-133.94Z"/>
      <path class="cls-1" d="M685.21,181.92V60.31h47.77l37.35,69.32h4.86l37.52-69.32h47.08v121.61h-29.88v-89.3h-3.82l-38.22,70.36h-30.75l-38.22-70.36h-3.82v89.3h-29.88Z"/>
      <path class="cls-1" d="M892.64,133.95v-24.84h69.32v24.84h-69.32Z"/>
      <path class="cls-1" d="M994.79,181.92V60.31h47.77l37.35,69.32h4.86l37.52-69.32h47.08v121.61h-29.88v-89.3h-3.82l-38.22,70.36h-30.75l-38.22-70.36h-3.82v89.3h-29.88Z"/>
      <path class="cls-1" d="M1198.34,181.92V60.31h131.86v25.71h-100.93v22.93h76.61v23.45h-76.61v23.8h103.02v25.71h-133.94Z"/>
      <path class="cls-1" d="M1415.32,181.92v-95.55h-57.5v-26.06h145.93v26.06h-57.5v95.55h-30.92Z"/>
    </g>
    <path class="cls-2" d="M128.7,0l-28.65,85.8H0v-42.75L42.9,0h85.8ZM128.7,0v85.8l100.02,28.61,14.25-28.65v-42.9L200.1,0h-71.4ZM.03,242.99h100l.02-128.54L0,85.8l.03,157.19ZM228.72,114.41l-100.02.04-28.65,85.65,57.3,42.9h85.65l42.9-85.8-57.18-42.79Z"/>
  </g>
</svg>