<svg width="130" height="122" viewBox="0 0 130 122" fill="none" xmlns="http://www.w3.org/2000/svg">
<path d="M104.842 40.6113L25.5234 119.93" stroke="black"/>
<path d="M75.6836 83.8548L75.6836 11.0635" stroke="black" stroke-dasharray="2 2"/>
<path d="M15.6992 67.4556L15.6875 10.813" stroke="black" stroke-dasharray="2 2"/>
<path d="M104.843 53.9355L117.895 53.9355" stroke="black" stroke-dasharray="2 2"/>
<path d="M104.855 40.8457L117.906 40.8457" stroke="black" stroke-dasharray="2 2"/>
<path d="M83.5397 12.8347L83.4531 7.47998L74.8516 10.4011L83.5397 12.8347Z" fill="black"/>
<path d="M7.92773 7.85403L7.91016 13.2095L16.5668 10.4563L7.92773 7.85403Z" fill="black"/>
<path d="M120.582 62.252H115.227L118.008 53.6044L120.582 62.252Z" fill="black"/>
<path d="M120.582 32.4453H115.227L118.008 41.0929L120.582 32.4453Z" fill="black"/>
<path d="M117.906 27.4634L117.906 67.4556" stroke="black"/>
<path d="M93.9336 78.1387L52.1445 119.928" stroke="black"/>
<path d="M93.9336 91.1777L65.1836 119.928" stroke="black"/>
<path d="M124.164 50.543L122.672 49.0513V45.605L124.164 44.1133H127.751L129.243 45.605V47.9711H124.125V48.524L124.858 49.257H128.78V50.543H124.164ZM124.125 46.7752H127.79V46.0936L127.057 45.3606H124.858L124.125 46.0936V46.7752Z" fill="black"/>
<path d="M47.7559 7.47974V2.20361H48.695V2.6257H48.8955L49.3915 2.20361H51.4386V3.25884H49.6131L48.9483 3.80756V7.47974H47.7559Z" fill="black"/>
<path d="M40.0594 7.47887V6.36033H44.7024L45.23 5.83272V4.8197L44.6919 4.28153H41.1463L39.9434 3.07858V1.28469L41.1358 0.0922852H46.127V1.21083H41.7372L41.2096 1.73844V2.62483L41.7478 3.16299H45.2934L46.4963 4.36595V6.28646L45.3039 7.47887H40.0594Z" fill="black"/>
<path d="M105.248 53.6035L37.9375 120.914" stroke="black"/>
<path d="M74.7577 101.072L79.8395 119.074L110.257 85.3775L93.8115 75.9958L95.1694 70.1433L91.5484 58.2204L85.9661 55.3535L80.2264 56.4099L77.5173 62.6385L79.3277 73.658L82.8925 78.9286L75.7068 83.567H72.0858L34.9979 70.4268L31.8848 67.912L27.9471 61.2347L26.2849 61.5244L28.7097 67.6216L22.5135 59.7887L20.3686 60.9011L26.2849 67.912L18.4243 61.9979L17.3825 63.4185L24.1066 69.6692L16.8018 65.6197L15.6992 66.912L25.0873 73.0552L20.3686 74.771L20.7976 76.6299L25.8044 75.9958H30.0687L66.4004 95.2854L74.7577 101.072Z" fill="#BEBEBE"/>
<path d="M0.757812 10.1631H90.0664" stroke="black"/>
<path d="M73.4692 85.8244L75.6835 83.5674H72.0858L34.9979 70.4272L31.8848 67.9123L27.9471 61.2351L26.2849 61.5248L28.7097 67.6219L22.5135 59.7891L20.3686 60.9014L26.2849 67.9123L18.4243 61.9983L17.3825 63.4189L24.1066 69.6695L16.8018 65.6201L15.6992 66.9123L25.0873 73.0555L20.3686 74.7714L20.7976 76.6303L25.8044 75.9962H30.0687L65.0142 94.4806L73.4692 85.8244Z" fill="#415AA9"/>
<path d="M75.6836 83.1694L37.9375 120.916" stroke="black"/>
<path d="M18.0273 87.2083L65.1836 40.0547" stroke="black"/>
<path d="M77.4961 40.7461L17.6328 100.607" stroke="black"/>
<path d="M77.998 67.4541L25.5234 119.929" stroke="black"/>
<path d="M89.7188 41.5391L17.6328 113.623" stroke="black"/>
<path d="M51.1719 39.8672L17.832 73.2099" stroke="black"/>
<path d="M74.7577 101.085L79.8395 119.086L110.257 85.3902L93.8115 76.0085L95.1694 70.156L91.5484 58.2331L85.9661 55.3662L80.2264 56.4226L77.5173 62.6512L79.3277 73.6707L82.8925 78.9413L75.7068 83.5797H72.0858L34.9979 70.4395L31.8848 67.9247L27.9471 61.2474L26.2849 61.5371L28.7097 67.6343L22.5135 59.8014L20.3686 60.9138L26.2849 67.9247L18.4243 62.0106L17.3825 63.4312L24.1066 69.6819L16.8018 65.6324L15.6992 66.9247L25.0873 73.0679L20.3686 74.7837L20.7976 76.6426L25.8044 76.0085H30.0687L66.4004 95.2981L74.7577 101.085Z" stroke="black"/>
</svg>
