<svg width="128" height="135" viewBox="0 0 128 135" fill="none" xmlns="http://www.w3.org/2000/svg">
<path d="M30.2969 72.6117V23.5781" stroke="black" stroke-dasharray="2 2"/>
<path d="M20.2031 72.5649V23.5312" stroke="black" stroke-dasharray="2 2"/>
<path d="M103.195 67.0234L116.246 67.0234" stroke="black" stroke-dasharray="2 2"/>
<path d="M103.206 53.9316L116.258 53.9316" stroke="black" stroke-dasharray="2 2"/>
<path d="M37.8913 25.9212L37.8047 20.5664L29.2032 23.4875L37.8913 25.9212Z" fill="black"/>
<path d="M12.2793 20.9336L12.2617 26.2891L20.9184 23.5358L12.2793 20.9336Z" fill="black"/>
<path d="M0.40625 23.6484L47.7334 23.5312" stroke="black"/>
<path d="M118.934 75.3398H113.578L116.36 66.6922L118.934 75.3398Z" fill="black"/>
<path d="M118.934 45.5312H113.578L116.36 54.1789L118.934 45.5312Z" fill="black"/>
<path d="M116.258 35.4336L116.258 83.6563" stroke="black"/>
<path d="M16.3789 100.295L51.4688 65.207" stroke="black"/>
<path d="M65.6602 64.0234L15.9844 113.697" stroke="black"/>
<path d="M77.8828 64.8125L15.9844 126.709" stroke="black"/>
<path d="M103.193 53.6973L23.875 133.016" stroke="black"/>
<path d="M103.6 66.6914L36.2891 134.002" stroke="black"/>
<path d="M92.2852 91.2266L50.4961 133.016" stroke="black"/>
<path d="M92.2852 104.266L63.5352 133.016" stroke="black"/>
<path d="M122.515 63.6289L121.023 62.1372V58.6909L122.515 57.1992H126.103L127.595 58.6909V61.057H122.477V61.61L123.21 62.343H127.132V63.6289H122.515ZM122.477 59.8611H126.141V59.1796L125.408 58.4466H123.21L122.477 59.1796V59.8611Z" fill="black"/>
<path d="M28.1211 16.0886V10.8125H29.0602V11.2346H29.2607L29.7567 10.8125H31.8038V11.8677H29.9783L29.3135 12.4164V16.0886H28.1211Z" fill="black"/>
<path d="M20.4247 16.0878V14.9692H25.0677L25.5953 14.4416V13.4286L25.0571 12.8904H21.5116L20.3086 11.6875V9.89358L21.501 8.70117H26.4922V9.81971H22.1025L21.5749 10.3473V11.2337L22.113 11.7719H25.6586L26.8615 12.9748V14.8953L25.6691 16.0878H20.4247Z" fill="black"/>
<path d="M75.2691 115.062L93.5425 128.621V100.511L79.6584 90.6475L75.2691 77.5172L73.1458 75.1013H69.8895L68.839 76.0466L67.4735 78.7777L66.318 76.0466H63.3769H61.0659L58.4399 78.7777L57.2844 77.5172H54.046L50.9819 78.7777L49.7247 80.3901L48.9861 83.3996L50.9819 86.0256L46.1485 83.9248L39.4846 78.7777L25.7214 68.1133H22.6752L20.2031 70.1635V73.6847L44.783 95.2651L46.1485 101.992L43.3124 104.828L36.4846 106.088L30.1821 109.554L29.0259 112.705L32.0719 114.386L37.7437 112.761H44.1494L54.046 115.062H75.2691Z" fill="#BEBEBE"/>
<path d="M20.2031 70.1635V73.6847L24.9012 77.7923L30.1821 71.8126L25.7214 68.1133H22.6752L20.2031 70.1635Z" fill="#415AA9"/>
<path d="M93.5425 128.621L75.2691 115.062H54.046L44.1494 112.761H37.7437L32.0719 114.386L29.0259 112.705L30.1821 109.554L36.4846 106.088L43.3124 104.828L46.1485 101.992L44.783 95.2651L20.2031 73.6847V70.1635L22.6752 68.1133H25.7214L39.4846 78.7777L46.1485 83.9248L50.9819 86.0256L48.9861 83.3996L49.7247 80.3901L50.9819 78.7777L54.046 77.5172H57.2844L58.4399 78.7777L61.0659 76.0466H63.3769H66.318L67.4735 78.7777L68.839 76.0466L69.8895 75.1013H73.1458L75.2691 77.5172L79.6584 90.6475L93.5425 100.511" stroke="black"/>
<path d="M38.8516 63.6289L16.1836 86.2988" stroke="black"/>
</svg>
