<?xml version="1.0" encoding="UTF-8"?>
<svg id="Layer_1" xmlns="http://www.w3.org/2000/svg" version="1.1" viewBox="0 0 125 126.7">
  <!-- Generator: Adobe Illustrator 29.2.1, SVG Export Plug-In . SVG Version: 2.1.0 Build 116)  -->
  <defs>
    <style>
      .st0 {
        stroke-dasharray: 2 2;
      }

      .st0, .st1 {
        fill: none;
        stroke: #000;
      }

      .st2 {
        fill: #bebebe;
      }

      .st3 {
        fill: #415aa9;
      }
    </style>
  </defs>
  <path class="st0" d="M72.3,75.9V15.9"/>
  <path class="st0" d="M17.2,64.8V15.8"/>
  <path class="st0" d="M100.2,59.3h13.1"/>
  <path class="st0" d="M100.2,46.2h13.1"/>
  <path d="M79.9,18.2v-5.4c0,0-8.7,2.9-8.7,2.9l8.7,2.4Z"/>
  <path d="M9.3,13.2v5.4s8.6-2.8,8.6-2.8l-8.6-2.6Z"/>
  <path class="st1" d="M.4,15.9l89.1-.2"/>
  <path d="M115.9,67.6h-5.4l2.8-8.6,2.6,8.6Z"/>
  <path d="M115.9,37.8h-5.4l2.8,8.6,2.6-8.6Z"/>
  <path class="st1" d="M113.3,32.8v40"/>
  <path class="st1" d="M100.6,59L33.3,126.3"/>
  <path class="st1" d="M89.3,83.5l-41.8,41.8"/>
  <path class="st1" d="M89.3,96.5l-28.8,28.8"/>
  <path d="M119.5,55.9l-1.5-1.5v-3.4l1.5-1.5h3.6l1.5,1.5v2.4h-5.1v.6l.7.7h3.9v1.3h-4.6ZM119.5,52.1h3.7v-.7l-.7-.7h-2.2l-.7.7v.7Z"/>
  <path d="M48,11.1v-5.3h.9v.4h.2l.5-.4h2v1.1h-1.8l-.7.5v3.7h-1.2Z"/>
  <path d="M40.3,11.1v-1.1h4.6l.5-.5v-1l-.5-.5h-3.5l-1.2-1.2v-1.8l1.2-1.2h5v1.1h-4.4l-.5.5v.9l.5.5h3.5l1.2,1.2v1.9l-1.2,1.2h-5.2Z"/>
  <path class="st2" d="M72.3,107.3l18.3,13.6v-28.1l-13.9-9.9-7.2-13.1-6-18.5-2.8-.8-2.5,1.7,4.5,18.5-15.6-23.1-3.9-1-1.8,2-.2,2.7,14.1,22.5-23.2-22.5-2.9-.8-3,2.7,1,2.7,20,21.3-3.9-1-6.7-5.1-13.8-10.7h-3l-2.5,2.1v3.5l24.6,21.6,1.4,6.7-2.8,2.8-6.8,1.3-6.3,3.5-1.2,3.2,3,1.7,5.7-1.6h6.4l9.9,2.3h21.2Z"/>
  <path class="st3" d="M59.5,87.5l7.9-9,2.1-2.3,2.7-1.9-2.7-4.5-6-18.5-2.8-.8-2.5,1.7,4.5,18.5-15.6-23.1-3.9-1-1.8,2-.2,2.7,14.1,22.5-23.2-22.5-2.9-.8-3,2.7,1,2.7,20,21.3-3.9-1-6.7-5.1-13.8-10.7h-3l-2.5,2.1v3.5l24.6,21.6,1.4,6.7-2.8,2.8-6.8,1.3-6.3,3.5-1.2,3.2,3,1.7,5.7-1.6h6.4l8.3-7.9,10-9.6Z"/>
  <path class="st1" d="M46.5,45.2L13.2,78.6"/>
  <path class="st1" d="M13.4,92.6l47.2-47.2"/>
  <path class="st1" d="M72.8,46.1L13,106"/>
  <path class="st1" d="M100.2,46L20.9,125.3"/>
  <path class="st1" d="M85.1,46.9L13,119"/>
  <path class="st1" d="M90.5,120.9l-18.3-13.6h-21.2l-9.9-2.3h-6.4l-5.7,1.6-3-1.7,1.2-3.2,6.3-3.5,6.8-1.3,2.8-2.8-1.4-6.7-24.6-21.6v-3.5l2.5-2.1h3l13.8,10.7,6.7,5.1,3.9,1-20-21.3-1-2.7,3-2.7,2.9.8,23.2,22.5-14.1-22.5.2-2.7,1.8-2,3.9,1,15.6,23.1-4.5-18.5,2.5-1.7,2.8.8,6,18.5,7.2,13.1,13.9,9.9"/>
</svg>