<svg width="518" height="291" viewBox="0 0 518 291" fill="none" xmlns="http://www.w3.org/2000/svg">
<path d="M324.336 111.914H518V218.463H324.336V111.914Z" fill="#D9D9D9"/>
<path d="M280.878 18.0172L303.562 8.50157L299.651 4.69531L276.966 10.7219L271.882 10.4047L237.854 21.8235L203.045 39.9032L214.778 52.2736L247.632 30.0704L275.793 18.0172H280.878Z" fill="#D9D9D9"/>
<path d="M305.353 8.84155L281.267 18.945L281.08 19.0229H275.999L248.115 30.9574L214.636 53.5843L201.397 39.627L237.461 20.8958L237.535 20.8709L271.562 9.45211L271.749 9.38995L271.945 9.40172L276.867 9.70864L299.944 3.57812L305.353 8.84155ZM277.067 11.736L276.904 11.7255L272.017 11.4199L238.248 22.7524L204.692 40.1806L214.922 50.964L247.07 29.2382L247.149 29.1846L247.237 29.1466L275.587 17.0125H280.676L301.773 8.16293L299.359 5.81359L277.067 11.736Z" fill="black"/>
<path d="M210.752 220.475H181.602L179.592 214.779L181.602 209.083L175.906 179.933V169.881L177.581 158.154L173.225 112.586L170.21 104.21L172.22 94.8281L176.576 87.7919L180.932 64.3378L188.303 42.559L195.674 33.8475L208.407 27.1464L210.752 22.7906L213.097 10.3934L219.128 5.03252L225.495 4.02734L231.191 6.70781L235.881 13.744V20.4452L233.871 22.7906L232.196 30.4969L228.51 34.1826H224.489L221.139 31.5021L217.453 36.1929V41.2188L221.139 47.2499V54.6211L213.097 87.1218L215.443 103.205V118.952L217.453 127.329L215.443 136.71H210.752L208.072 127.329V117.277L201.37 97.1735L197.685 158.154L194.669 167.201L192.659 209.083L210.752 214.779V220.475Z" fill="#D9D9D9"/>
<path d="M232.099 5.65159L237.222 13.3357V20.9386L235.109 23.4038L233.421 31.1638L229.065 35.5202H224.02L221.357 33.3901L218.793 36.653V40.8379L222.479 46.8703V54.7821L214.461 87.1846L216.769 103.008L216.783 103.104V118.792L218.756 127.013L218.827 127.309L218.764 127.607L216.527 138.048H209.741L206.731 127.514V117.492L202.29 104.168L199.012 158.408L198.956 158.576L195.999 167.446L194.047 208.112L212.092 213.793V221.813H180.654L178.17 214.776L180.216 208.979L174.566 180.06V169.783L174.579 169.689L176.232 158.121L171.907 112.878L168.819 104.301L170.91 94.5448L170.959 94.3177L175.303 87.2985L179.614 64.0905L179.632 63.9962L187.115 41.885L187.28 41.6906L194.82 32.7802L207.42 26.1477L209.473 22.3345L211.781 10.1415L211.865 9.69257L218.238 4.028L218.532 3.76754L225.692 2.63672L232.099 5.65159ZM219.726 6.29226L214.329 11.0891L212.03 23.2408L209.393 28.1391L196.528 34.909L189.491 43.2265L182.232 64.6729L177.894 88.034L177.848 88.2807L173.483 95.332L171.601 104.114L174.487 112.129L174.543 112.288L174.56 112.456L178.931 158.183L178.908 158.341L177.246 169.972V179.8L182.987 209.182L181.012 214.776L182.55 219.132H209.412V215.759L191.271 210.048L193.33 167.134L193.339 166.949L193.398 166.774L196.358 157.894L200.033 97.0898L202.642 96.7468L209.412 117.057V127.138L211.763 135.368H214.359L216.078 127.341L214.14 119.262L214.103 119.108V103.301L211.733 87.0524L211.796 86.7972L219.799 54.4549V47.6248L216.113 41.5931V35.727L220.92 29.6082L224.959 32.8397H227.955L230.969 29.8249L232.634 22.1728L232.853 21.9157L234.541 19.9465V14.1471L230.282 7.75879L225.296 5.41273L219.726 6.29226Z" fill="black"/>
<path d="M243.923 52.2734H262.016V221.143H243.923V52.2734Z" fill="#354AA4"/>
<path d="M262.016 52.2734V221.143H243.923V52.2734H262.016ZM246.603 218.462H259.336V54.9539H246.603V218.462Z" fill="black"/>
<path d="M518 219.133L518 237.226L-7.90877e-07 237.226L0 219.133L518 219.133Z" fill="#8C8C8C"/>
<path d="M518 221.813L-1.17167e-07 221.813L0 219.133L518 219.133L518 221.813Z" fill="black"/>
<path d="M235.211 211.762H272.067V221.143H235.211V211.762Z" fill="#354AA4"/>
<path d="M272.067 211.762V221.143H235.211V211.762H272.067ZM237.891 218.463H269.387V214.442H237.891V218.463Z" fill="black"/>
<path d="M203.019 61.9168L198.726 83.3782L202.995 98.4807L200.415 99.2097L195.972 83.4861L200.391 61.3906L203.019 61.9168Z" fill="black"/>
<path d="M261.986 52.2734V54.9539H259.335V52.2734H261.986ZM272.591 52.2734V54.9539H267.289V52.2734H272.591ZM283.197 52.2734V54.9539H277.894V52.2734H283.197ZM293.802 52.2734V54.9539H288.499V52.2734H293.802ZM304.407 52.2734V54.9539H299.105V52.2734H304.407ZM315.013 52.2734V54.9539H309.71V52.2734H315.013ZM325.618 52.2734V54.9539H320.316V52.2734H325.618ZM336.224 52.2734V54.9539H330.921V52.2734H336.224ZM346.829 52.2734V54.9539H341.526V52.2734H346.829ZM357.434 52.2734V54.9539H352.132V52.2734H357.434ZM368.04 52.2734V54.9539H362.737V52.2734H368.04ZM378.644 52.2734V54.9539H373.342V52.2734H378.644ZM389.25 52.2734V54.9539H383.947V52.2734H389.25ZM399.855 52.2734V54.9539H394.553V52.2734H399.855ZM410.461 52.2734V54.9539H405.158V52.2734H410.461ZM421.066 52.2734V54.9539H415.763V52.2734H421.066ZM431.671 52.2734V54.9539H426.369V52.2734H431.671ZM442.277 52.2734V54.9539H436.974V52.2734H442.277ZM452.882 52.2734V54.9539H447.579V52.2734H452.882ZM463.488 52.2734V54.9539H458.185V52.2734H463.488ZM474.093 52.2734V54.9539H468.79V52.2734H474.093ZM484.698 52.2734V54.9539H479.396V52.2734H484.698ZM495.304 52.2734V54.9539H490.001V52.2734H495.304ZM503.257 52.2734V54.9539H500.606V52.2734H503.257Z" fill="black"/>
<path d="M324.383 109.906V112.587H321.656V109.906H324.383ZM335.292 109.906V112.587H329.837V109.906H335.292ZM346.199 109.906V112.587H340.745V109.906H346.199ZM357.107 109.906V112.587H351.653V109.906H357.107ZM368.015 109.906V112.587H362.561V109.906H368.015ZM378.923 109.906V112.587H373.469V109.906H378.923ZM389.831 109.906V112.587H384.378V109.906H389.831ZM400.739 109.906V112.587H395.285V109.906H400.739ZM411.648 109.906V112.587L406.193 112.587V109.906L411.648 109.906ZM422.555 109.906V112.587H417.101V109.906H422.555ZM433.464 109.906V112.587H428.009V109.906H433.464ZM444.371 109.906V112.587H438.917V109.906H444.371ZM455.279 109.906V112.587H449.825V109.906H455.279ZM466.187 109.906V112.587H460.734V109.906H466.187ZM477.095 109.906V112.587H471.641V109.906H477.095ZM488.003 109.906V112.587H482.549V109.906H488.003ZM498.911 109.906V112.587H493.457V109.906H498.911ZM509.82 109.906V112.587H504.365V109.906H509.82ZM518 109.906V112.587H515.273V109.906H518Z" fill="black"/>
<path d="M324.336 115.298L321.655 115.298L321.655 112.586L324.336 112.586L324.336 115.298ZM324.336 126.145L321.655 126.145L321.655 120.722L324.336 120.722L324.336 126.145ZM324.336 136.993L321.655 136.993L321.655 131.569L324.336 131.569L324.336 136.993ZM324.336 147.84L321.655 147.84L321.655 142.417L324.336 142.417L324.336 147.84ZM324.336 158.688L321.655 158.688L321.655 153.264L324.336 153.264L324.336 158.688ZM324.336 169.535L321.655 169.535L321.655 164.112L324.336 164.112L324.336 169.535ZM324.336 180.383L321.655 180.383L321.655 174.959L324.336 174.959L324.336 180.383ZM324.336 191.23L321.655 191.23L321.655 185.807L324.336 185.807L324.336 191.23ZM324.336 202.078L321.655 202.078L321.655 196.654L324.336 196.654L324.336 202.078ZM324.336 212.925L321.655 212.925L321.655 207.502L324.336 207.502L324.336 212.925ZM324.336 223.773L321.655 223.773L321.655 218.349L324.336 218.349L324.336 223.773ZM324.336 234.62L321.655 234.62L321.655 229.197L324.336 229.197L324.336 234.62ZM324.336 245.468L321.655 245.468L321.655 240.044L324.336 240.044L324.336 245.468ZM324.336 256.315L321.655 256.315L321.655 250.892L324.336 250.892L324.336 256.315ZM324.336 267.163L321.655 267.163L321.655 261.739L324.336 261.739L324.336 267.163ZM324.336 278.01L321.655 278.01L321.655 272.587L324.336 272.587L324.336 278.01ZM324.336 286.146L321.655 286.146L321.655 283.434L324.336 283.434L324.336 286.146Z" fill="black"/>
<path d="M246.603 221.285L243.922 221.285L243.922 218.465L246.603 218.465L246.603 221.285ZM246.603 232.565L243.922 232.565L243.922 226.925L246.603 226.925L246.603 232.565ZM246.603 243.846L243.922 243.846L243.922 238.205L246.603 238.205L246.603 243.846ZM246.603 255.126L243.922 255.126L243.922 249.486L246.603 249.486L246.603 255.126ZM246.603 266.406L243.922 266.406L243.922 260.766L246.603 260.766L246.603 266.406ZM246.603 277.686L243.922 277.686L243.922 272.046L246.603 272.046L246.603 277.686ZM246.603 286.147L243.922 286.147L243.922 283.327L246.603 283.327L246.603 286.147Z" fill="black"/>
<path d="M321.656 284.803L311.604 290.607V285.808H256.654V290.607L246.603 284.803L256.654 279V283.798H311.604V279L321.656 284.803Z" fill="#354AA4"/>
<path d="M397.379 112.586L403.183 122.638L398.385 122.638L398.385 209.753L403.183 209.753L397.379 219.805L391.576 209.753L396.374 209.753L396.374 122.638L391.576 122.638L397.379 112.586Z" fill="#354AA4"/>
<path d="M454.338 54.2859L460.142 64.3377L455.344 64.3377L455.344 209.753L460.142 209.753L454.338 219.805L448.535 209.753L453.333 209.753L453.333 64.3377L448.535 64.3377L454.338 54.2859Z" fill="#354AA4"/>
<path d="M277.214 268.052L272.201 263.871V253.471L277.214 249.289H292.439V253.31H279.358L276.972 255.32V262.021L279.358 264.032H292.439V268.052H277.214Z" fill="#354AA4"/>
<path d="M469.216 147.431V128.668H486.746L490.392 131.724V135.691L488.676 137.138L491.598 139.604V144.107L487.684 147.431H469.216ZM473.987 136.039H484.334L485.62 134.967V133.52L484.334 132.447H473.987V136.039ZM473.987 143.652H485.218L486.826 142.285V140.971L485.218 139.604H473.987V143.652Z" fill="black"/>
<path d="M428.017 154.801L437.747 172.143V173.564H433.11L431.1 169.838H418.528L416.518 173.564H412.015V172.143L421.718 154.801H428.017ZM420.673 165.817H428.955L425.176 158.768H424.479L420.673 165.817Z" fill="black"/>
<path d="M339.749 99.0076L340.025 83.5344L345.507 86.8313L384.839 21.4271L387.136 22.8085L347.805 88.2127L353.287 91.5097L339.749 99.0076Z" fill="black"/>
<path d="M235.211 174.906L221.809 182.643L221.809 176.246L6.17262e-07 176.246L4.35002e-07 173.565L221.809 173.565L221.809 167.168L235.211 174.906Z" fill="black"/>
<path d="M500.135 9.38866L498.996 8.24947V6.44015L500.269 5.16693H504.156V4.49681L503.486 3.8267H499.867V2.6875H504.022L505.362 4.02773V9.38866H504.424V8.71855H504.183L503.352 9.38866H500.135ZM500.671 8.24947H503.017L504.156 7.32471V6.30613H500.805L500.202 6.90923V7.78039L500.671 8.24947Z" fill="black"/>
<path d="M491.02 9.38866V2.6875H491.958V3.22359H492.199L492.842 2.6875H495.978L497.386 4.09474V9.38866H496.179V4.56383L495.442 3.8267H493.177L492.226 4.61744V9.38866H491.02Z" fill="black"/>
<path d="M483.577 9.38866V7.71337L488.067 4.04113V3.8267H483.711V2.6875H489.407V4.36279L484.917 8.03503V8.24947H489.541V9.38866H483.577Z" fill="black"/>
<path d="M478.017 9.38866L476.476 7.8474V4.22877L478.017 2.6875H482.306V3.8267H478.553L477.682 4.69785V7.37831L478.553 8.24947H482.306V9.38866H478.017Z" fill="black"/>
<path d="M469.772 9.38866L468.23 7.8474V4.22877L469.772 2.6875H473.323L474.865 4.22877V6.7082H469.437V7.37831L470.308 8.24947H474.396V9.38866H469.772ZM469.437 5.569H473.658V4.69785L472.787 3.8267H470.308L469.437 4.69785V5.569Z" fill="black"/>
<path d="M465.145 9.38554V2.68437H466.351V9.38554H465.145ZM465.078 1.34414V0.00390625H466.418V1.34414H465.078Z" fill="black"/>
<path d="M456.769 12.0691V2.6875H457.707V3.35762H457.975L458.779 2.6875H461.727L463.269 4.22877V7.8474L461.727 9.38866H457.975V12.0691H456.769ZM457.975 8.24947H461.191L462.062 7.37831V4.69785L461.191 3.8267H459.114L457.975 4.76486V8.24947Z" fill="black"/>
<path d="M449.325 9.38866V7.71337L453.815 4.04113V3.8267H449.459V2.6875H455.155V4.36279L450.665 8.03503V8.24947H455.289V9.38866H449.325Z" fill="black"/>
<path d="M443.019 9.38866L441.478 7.8474V4.22877L443.019 2.6875H446.57L448.112 4.22877V6.7082H442.684V7.37831L443.555 8.24947H447.643V9.38866H443.019ZM442.684 5.569H446.905V4.69785L446.034 3.8267H443.555L442.684 4.69785V5.569Z" fill="black"/>
<path d="M433.236 9.38554V0.00390625H434.443V3.15345H434.684L435.247 2.68437H438.195L439.736 4.22564V7.84427L438.195 9.38554H433.236ZM434.443 8.24634H437.659L438.53 7.37519V4.69472L437.659 3.82357H435.582L434.443 4.76173V8.24634Z" fill="black"/>
<path d="M426.331 9.38866L424.79 7.8474V4.22877L426.331 2.6875H429.883L431.424 4.22877V6.7082H425.996V7.37831L426.867 8.24947H430.955V9.38866H426.331ZM425.996 5.569H430.218V4.69785L429.347 3.8267H426.867L425.996 4.69785V5.569Z" fill="black"/>
<path d="M421.705 9.38554V2.68437H422.911V9.38554H421.705ZM421.638 1.34414V0.00390625H422.978V1.34414H421.638Z" fill="black"/>
<path d="M413.394 9.38866V2.6875H414.332V3.22359H414.573L415.216 2.6875H418.352L419.76 4.09474V9.38866H418.553V4.56383L417.816 3.8267H415.551L414.6 4.61744V9.38866H413.394Z" fill="black"/>
<path d="M401.672 9.38866L400.533 8.24947V6.44015L401.806 5.16693H405.693V4.49681L405.023 3.8267H401.404V2.6875H405.559L406.899 4.02773V9.38866H405.961V8.71855H405.72L404.889 9.38866H401.672ZM402.208 8.24947H404.554L405.693 7.32471V6.30613H402.343L401.739 6.90923V7.78039L402.208 8.24947Z" fill="black"/>
<path d="M396.981 9.38554V3.82357H395.641V2.68437H396.981V0.875058L397.852 0.00390625H400.666V1.1431H398.388L398.187 1.34414V2.68437H400.599V3.82357H398.187V9.38554H396.981Z" fill="black"/>
<path d="M389.606 9.38866L388.064 7.8474V4.22877L389.606 2.6875H393.157L394.699 4.22877V6.7082H389.271V7.37831L390.142 8.24947H394.23V9.38866H389.606ZM389.271 5.569H393.492V4.69785L392.621 3.8267H390.142L389.271 4.69785V5.569Z" fill="black"/>
<path d="M382.768 9.38866V2.6875H383.706V3.22359H383.947L384.59 2.6875H387.257V3.8267H384.925L383.974 4.61744V9.38866H382.768Z" fill="black"/>
<path d="M378.612 9.38487L377.741 8.51372V3.82291H376.4V2.68371H377.741V0.941406H378.947V2.68371H381.359V3.82291H378.947V8.04464L379.148 8.24568H381.426V9.38487H378.612Z" fill="black"/>
<path d="M367.559 9.38554V8.24634H373.456L374.26 7.4422V5.96794L373.456 5.1638H368.899L367.425 3.68955V1.47816L368.899 0.00390625H375.064V1.1431H369.502L368.698 1.94724V3.22047L369.502 4.02461H374.059L375.533 5.49886V7.91128L374.059 9.38554H367.559Z" fill="black"/>
<path d="M140.4 161.502L139.261 160.363V158.553L140.534 157.28H144.421V156.61L143.751 155.94H140.132V154.801H144.287L145.627 156.141V161.502H144.689V160.832H144.447L143.616 161.502H140.4ZM140.936 160.363H143.281L144.421 159.438V158.419H141.07L140.467 159.023V159.894L140.936 160.363Z" fill="black"/>
<path d="M131.285 161.502V154.801H132.223V155.337H132.465L133.108 154.801H136.244L137.651 156.208V161.502H136.445V156.677L135.708 155.94H133.443L132.491 156.731V161.502H131.285Z" fill="black"/>
<path d="M122.975 161.502V154.801H123.913V155.337H124.154L124.797 154.801H127.933L129.341 156.208V161.502H128.135V156.677L127.397 155.94H125.132L124.181 156.731V161.502H122.975Z" fill="black"/>
<path d="M115.874 161.502L114.333 159.961V156.342L115.874 154.801H119.56L121.101 156.342V159.961L119.56 161.502H115.874ZM116.41 160.363H119.024L119.895 159.492V156.811L119.024 155.94H116.41L115.539 156.811V159.492L116.41 160.363Z" fill="black"/>
<path d="M109.035 161.502V154.801H109.973V155.337H110.215L110.858 154.801H113.525V155.94H111.193L110.241 156.731V161.502H109.035Z" fill="black"/>
<path d="M100.726 161.503V152.121H101.932V155.23H102.16L102.682 154.802H105.684L107.092 156.209V161.503H105.885V156.678L105.148 155.941H103.017L101.932 156.839V161.503H100.726Z" fill="black"/>
<path d="M94.6975 161.502L93.1562 159.961V156.342L94.6975 154.801H98.9863V155.94H95.2336L94.3625 156.811V159.492L95.2336 160.363H98.9863V161.502H94.6975Z" fill="black"/>
<path d="M86.1897 161.502L84.6484 159.961V156.342L86.1897 154.801H89.8753L91.4166 156.342V159.961L89.8753 161.502H86.1897ZM86.7258 160.363H89.3393L90.2104 159.492V156.811L89.3393 155.94H86.7258L85.8546 156.811V159.492L86.7258 160.363Z" fill="black"/>
<path d="M73.0611 161.502L71.9219 160.363V158.553L73.1951 157.28H77.0818V156.61L76.4117 155.94H72.793V154.801H76.9477L78.288 156.141V161.502H77.3498V160.832H77.1086L76.2776 161.502H73.0611ZM73.5972 160.363H75.9426L77.0818 159.438V158.419H73.7312L73.1281 159.023V159.894L73.5972 160.363Z" fill="black"/>
<path d="M66.9609 164.183V163.044H68.8373L69.0383 162.843V154.802H70.2445V163.312L69.3734 164.183H66.9609ZM68.9713 153.461V152.121H70.3115V153.461H68.9713Z" fill="black"/>
<path d="M63.0764 161.502L61.5352 159.961V156.342L63.0764 154.801H67.3652V155.94H63.6125L62.7414 156.811V159.492L63.6125 160.363H67.3652V161.502H63.0764Z" fill="black"/>
<path d="M54.1709 161.503V152.121H55.3771V157.482H57.1462L59.0493 154.802H60.1885V155.204L58.1916 158.018L60.4566 161.101V161.503H59.2504L57.1462 158.621H55.3771V161.503H54.1709Z" fill="black"/>
<path d="M47.3301 161.502L45.9229 160.095V154.801H47.1291V159.626L47.8662 160.363H49.9301L50.8817 159.572V154.801H52.0879V161.502H51.1498V160.966H50.9085L50.2652 161.502H47.3301Z" fill="black"/>
<path d="M40.5576 161.502V154.801H41.4958V155.337H41.737L42.3803 154.801H45.0474V155.94H42.7154L41.7638 156.731V161.502H40.5576Z" fill="black"/>
<path d="M36.4028 161.502L35.5316 160.631V155.94H34.1914V154.801H35.5316V153.059H36.7378V154.801H39.1503V155.94H36.7378V160.162L36.9389 160.363H39.2173V161.502H36.4028Z" fill="black"/>
<path d="M27.2828 161.502V160.363H31.6386L32.1077 159.894V159.157L31.6386 158.687H28.355L27.2158 157.548V155.94L28.355 154.801H32.9788V155.94H28.8911L28.422 156.409V157.079L28.8911 157.548H32.1747L33.3139 158.687V160.363L32.1747 161.502H27.2828Z" fill="black"/>
<path d="M19.1064 161.502V154.801H20.0446V155.337H20.2859L20.9292 154.801H24.0653L25.4726 156.208V161.502H24.2663V156.677L23.5292 155.94H21.2642L20.3127 156.731V161.502H19.1064Z" fill="black"/>
<path d="M12.0061 161.502L10.4648 159.961V156.342L12.0061 154.801H15.6918L17.233 156.342V159.961L15.6918 161.502H12.0061ZM12.5422 160.363H15.1557L16.0268 159.492V156.811L15.1557 155.94H12.5422L11.6711 156.811V159.492L12.5422 160.363Z" fill="black"/>
<path d="M1.33984 161.503V152.121H2.61307V156.209H5.05229L8.0008 152.121H9.18021V152.59L6.16468 156.745L9.44825 161.034V161.503H8.21524L5.05229 157.348H2.61307V161.503H1.33984Z" fill="black"/>
</svg>
