<?xml version="1.0" encoding="UTF-8"?>
<svg id="Layer_1" xmlns="http://www.w3.org/2000/svg" version="1.1" viewBox="0 0 125 127">
  <!-- Generator: Adobe Illustrator 29.2.1, SVG Export Plug-In . SVG Version: 2.1.0 Build 116)  -->
  <defs>
    <style>
      .st0 {
        stroke-dasharray: 2 2;
      }

      .st0, .st1 {
        fill: none;
        stroke: #000;
      }

      .st2 {
        fill: #bebebe;
      }

      .st3 {
        fill: #415aa9;
      }
    </style>
  </defs>
  <path class="st0" d="M43.3,76.2V16.1"/>
  <path class="st0" d="M17.2,65.1V16.1"/>
  <path class="st0" d="M100.2,59.5h13.1"/>
  <path class="st0" d="M100.2,46.5h13.1"/>
  <path d="M50.9,18.4v-5.4c0,0-8.7,2.9-8.7,2.9l8.7,2.4Z"/>
  <path d="M9.3,13.5v5.4s8.6-2.8,8.6-2.8l-8.6-2.6Z"/>
  <path class="st1" d="M.4,16.2h57.9"/>
  <path d="M115.9,67.9h-5.4l2.8-8.6,2.6,8.6Z"/>
  <path d="M115.9,38.1h-5.4l2.8,8.6,2.6-8.6Z"/>
  <path class="st1" d="M113.3,33.1v40"/>
  <path class="st1" d="M74.9,57.3L13,119.2"/>
  <path class="st1" d="M100.2,46.2L20.9,125.5"/>
  <path class="st1" d="M100.6,59.2L33.3,126.5"/>
  <path class="st1" d="M89.3,83.7l-41.8,41.8"/>
  <path class="st1" d="M89.3,96.8l-28.8,28.8"/>
  <path d="M119.5,56.2l-1.5-1.5v-3.4l1.5-1.5h3.6l1.5,1.5v2.4h-5.1v.6l.7.7h3.9v1.3h-4.6ZM119.5,52.4h3.7v-.7l-.7-.7h-2.2l-.7.7v.7Z"/>
  <path d="M33,11.4v-5.3h.9v.4h.2l.5-.4h2v1.1h-1.8l-.7.5v3.7h-1.2Z"/>
  <path d="M25.3,11.4v-1.1h4.6l.5-.5v-1l-.5-.5h-3.5l-1.2-1.2v-1.8l1.2-1.2h5v1.1h-4.4l-.5.5v.9l.5.5h3.5l1.2,1.2v1.9l-1.2,1.2h-5.2Z"/>
  <path class="st2" d="M72.3,107.6l18.3,13.6v-28.1l-13.9-9.9-4.4-13.1-2.1-2.4h-3.3l-1.1.9-1.4,2.7-1.2-2.7h-5.3l-2.6,2.7-1.2-1.3h-3.2l-3.1,1.3-1.3,1.6-.7,3,2,2.6-4.8-2.1-6.7-5.1-13.8-10.7h-3l-2.5,2.1v3.5l24.6,21.6,1.4,6.7-2.8,2.8-6.8,1.3-6.3,3.5-1.2,3.2,3,1.7,5.7-1.6h6.4l9.9,2.3h21.2Z"/>
  <path class="st3" d="M17.2,62.7v3.5l19,16.8,6.9-6.7-20.3-15.7h-3l-2.5,2.1Z"/>
  <path class="st1" d="M90.5,121.1l-18.3-13.6h-21.2l-9.9-2.3h-6.4l-5.7,1.6-3-1.7,1.2-3.2,6.3-3.5,6.8-1.3,2.8-2.8-1.4-6.7-24.6-21.6v-3.5l2.5-2.1h3l13.8,10.7,6.7,5.1,4.8,2.1-2-2.6.7-3,1.3-1.6,3.1-1.3h3.2l1.2,1.3,2.6-2.7h5.3l1.2,2.7,1.4-2.7,1.1-.9h3.3l2.1,2.4,4.4,13.1,13.9,9.9"/>
  <path class="st1" d="M35.9,56.1l-22.7,22.7"/>
  <path class="st1" d="M13.4,92.8l35.1-35.1"/>
  <path class="st1" d="M62.7,56.5L13,106.2"/>
</svg>